<svg width="647" height="239" viewBox="0 0 647 239" fill="none" xmlns="http://www.w3.org/2000/svg">
<g filter="url(#filter0_ii_0_1)">
<path fill-rule="evenodd" clip-rule="evenodd" d="M23.0701 52.7734C22.8699 66.3027 22.6694 79.8636 22.6694 93.4191V112.705C22.6694 115.042 22.6217 117.398 22.5738 119.762C22.4584 125.465 22.3421 131.211 22.8925 136.824C23.7924 146.004 23.7035 155.276 23.6148 164.525C23.5883 167.292 23.5618 170.058 23.5618 172.818C23.5618 175.402 23.2657 178.572 22.9497 181.955C22.2497 189.45 21.4524 197.988 23.5624 203.5C28.4779 206.684 68.5094 204.202 72.5 202C75.611 200.284 78.474 197.687 81.249 195.17C82.4078 194.119 83.5514 193.082 84.6911 192.128C94.3904 184.016 102.636 173.664 106.332 161.44C106.96 159.363 107.741 157.339 108.521 155.316C110.017 151.44 111.509 147.572 111.909 143.369C112.545 136.696 112.802 130.219 112.802 123.513C112.802 117.27 111.612 110.97 110.397 104.896C110.015 102.986 109.671 101.045 109.326 99.0941C108.239 92.96 107.134 86.7251 104.77 81.0247C104.382 80.0878 104.012 79.1027 103.636 78.1002C102.351 74.6708 100.988 71.0376 98.5233 68.4319C95.2049 64.9238 91.7027 61.3813 87.8146 58.5164C80.9973 53.4931 74.1554 49.2095 66.1986 46.345C60.2507 44.2038 53.8108 42.9985 47.4582 42.9985C44.9215 42.9985 38.9774 42.9985 33.3782 44.3371C30.4774 45.0306 24.8622 47.9449 23.1156 49.6915C23.1005 50.7186 23.0853 51.7459 23.0701 52.7734ZM47.8273 78.9863C47.8273 88.1538 47.4873 105.948 46.8327 115.102C46.7027 116.919 46.5609 118.729 46.4196 120.532C45.5478 131.656 44.6937 142.553 46.7457 153.712C46.8864 154.477 46.9307 155.224 46.9735 155.946C47.0994 158.072 47.2127 159.983 49.7323 161.506C51.778 162.742 55.9264 161.107 57.3004 159.906C58.4511 158.901 59.6783 157.973 60.9041 157.045C62.552 155.799 64.1974 154.555 65.6513 153.126C66.188 152.599 66.7843 152.118 67.4484 151.583C70.7364 148.932 75.689 144.94 83.3268 127.297C93.5425 95.9536 64.5883 92.5395 54.6482 91.3674C53.0341 91.1771 51.9213 91.0459 51.5591 90.8638C50.573 90.3681 48.8946 83.3378 48.1726 80.3134C47.9414 79.3452 47.8083 78.7875 47.8273 78.9863Z" fill="#D90B17"/>
</g>
<path d="M23.0701 52.7734L24.5699 52.7956L24.5699 52.7956L23.0701 52.7734ZM22.5738 119.762L24.0735 119.793L24.0735 119.793L22.5738 119.762ZM22.8925 136.824L21.3996 136.971L21.3996 136.971L22.8925 136.824ZM23.6148 164.525L25.1147 164.539L23.6148 164.525ZM22.9497 181.955L21.4562 181.815L21.4562 181.815L22.9497 181.955ZM23.5624 203.5L22.1615 204.036L22.3364 204.493L22.7469 204.759L23.5624 203.5ZM72.5 202L71.7754 200.687L71.7754 200.687L72.5 202ZM81.249 195.17L80.2412 194.059L80.2412 194.059L81.249 195.17ZM84.6911 192.128L85.6535 193.279L85.6535 193.279L84.6911 192.128ZM106.332 161.44L107.768 161.874L107.768 161.874L106.332 161.44ZM108.521 155.316L107.122 154.776L107.122 154.776L108.521 155.316ZM111.909 143.369L110.416 143.226L110.416 143.227L111.909 143.369ZM110.397 104.896L111.868 104.602L111.868 104.602L110.397 104.896ZM109.326 99.0941L110.802 98.8323L110.802 98.8323L109.326 99.0941ZM104.77 81.0247L106.156 80.4502L106.156 80.4502L104.77 81.0247ZM103.636 78.1002L102.232 78.6269L102.232 78.6269L103.636 78.1002ZM98.5233 68.4319L97.4336 69.4627L97.4336 69.4627L98.5233 68.4319ZM87.8146 58.5164L86.9248 59.724L86.9248 59.724L87.8146 58.5164ZM66.1986 46.345L66.7067 44.9337L66.7067 44.9337L66.1986 46.345ZM33.3782 44.3371L33.0294 42.8782L33.0294 42.8782L33.3782 44.3371ZM23.1156 49.6915L22.0549 48.6309L21.6247 49.0611L21.6157 49.6695L23.1156 49.6915ZM46.8327 115.102L45.3365 114.995L46.8327 115.102ZM47.8273 78.9863H49.3273V78.9148L49.3205 78.8437L47.8273 78.9863ZM46.4196 120.532L47.915 120.649L47.915 120.649L46.4196 120.532ZM46.7457 153.712L48.221 153.441L48.221 153.441L46.7457 153.712ZM46.9735 155.946L45.4761 156.035L45.4761 156.035L46.9735 155.946ZM49.7323 161.506L50.5081 160.222L50.5081 160.222L49.7323 161.506ZM57.3004 159.906L56.3133 158.777L56.3133 158.777L57.3004 159.906ZM60.9041 157.045L59.9993 155.849L59.9993 155.849L60.9041 157.045ZM65.6513 153.126L64.6 152.056L64.6 152.056L65.6513 153.126ZM67.4484 151.583L68.3898 152.751L68.3898 152.751L67.4484 151.583ZM83.3268 127.297L84.7034 127.893L84.7312 127.829L84.753 127.762L83.3268 127.297ZM54.6482 91.3674L54.8238 89.8777L54.8238 89.8777L54.6482 91.3674ZM51.5591 90.8638L50.8854 92.204L50.8854 92.204L51.5591 90.8638ZM48.1726 80.3134L46.7136 80.6617L46.7136 80.6617L48.1726 80.3134ZM24.1694 93.4191C24.1694 79.8765 24.3698 66.3268 24.5699 52.7956L21.5702 52.7512C21.3701 66.2787 21.1694 79.8506 21.1694 93.4191H24.1694ZM24.1694 112.705V93.4191H21.1694V112.705H24.1694ZM24.0735 119.793C24.1213 117.431 24.1694 115.059 24.1694 112.705H21.1694C21.1694 115.024 21.122 117.365 21.0741 119.732L24.0735 119.793ZM24.3853 136.678C23.8451 131.168 23.9578 125.511 24.0735 119.793L21.0741 119.732C20.959 125.419 20.8391 131.254 21.3996 136.971L24.3853 136.678ZM25.1147 164.539C25.2033 155.304 25.2944 145.951 24.3853 136.678L21.3996 136.971C22.2904 146.057 22.2037 155.248 22.1149 164.511L25.1147 164.539ZM25.0618 172.818C25.0618 170.066 25.0882 167.308 25.1147 164.539L22.1149 164.511C22.0884 167.277 22.0618 170.049 22.0618 172.818H25.0618ZM24.4432 182.094C24.757 178.735 25.0618 175.487 25.0618 172.818H22.0618C22.0618 175.317 21.7743 178.409 21.4562 181.815L24.4432 182.094ZM24.9632 202.964C24.0094 200.472 23.6795 197.184 23.7023 193.48C23.7249 189.797 24.092 185.855 24.4432 182.094L21.4562 181.815C21.1075 185.55 20.7259 189.625 20.7023 193.462C20.6789 197.279 21.0054 201.016 22.1615 204.036L24.9632 202.964ZM71.7754 200.687C71.6898 200.734 71.4428 200.835 70.9566 200.966C70.4965 201.09 69.9028 201.22 69.1827 201.352C67.7441 201.615 65.8716 201.876 63.694 202.12C59.3427 202.608 53.8452 203.023 48.311 203.271C42.7742 203.519 37.2305 203.598 32.7815 203.42C30.5543 203.33 28.6308 203.178 27.1322 202.956C25.5501 202.722 24.6889 202.442 24.3778 202.241L22.7469 204.759C23.6648 205.353 25.1298 205.693 26.6934 205.924C28.3405 206.167 30.382 206.326 32.6614 206.417C37.2255 206.6 42.8608 206.518 48.4451 206.268C54.0321 206.018 59.5979 205.599 64.0284 205.102C66.2418 204.853 68.1899 204.584 69.7235 204.303C70.4895 204.162 71.1698 204.016 71.7369 203.863C72.278 203.717 72.8114 203.541 73.2246 203.313L71.7754 200.687ZM80.2412 194.059C77.4367 196.603 74.7046 199.071 71.7754 200.687L73.2246 203.313C76.5173 201.497 79.5113 198.771 82.2567 196.281L80.2412 194.059ZM83.7288 190.978C82.5618 191.954 81.3957 193.012 80.2412 194.059L82.2567 196.281C83.42 195.226 84.5409 194.21 85.6535 193.279L83.7288 190.978ZM104.896 161.006C101.31 172.866 93.2821 182.988 83.7288 190.978L85.6535 193.279C95.4987 185.045 103.962 174.462 107.768 161.874L104.896 161.006ZM107.122 154.776C106.345 156.79 105.543 158.867 104.896 161.006L107.768 161.874C108.376 159.86 109.137 157.887 109.921 155.856L107.122 154.776ZM110.416 143.227C110.038 147.191 108.629 150.869 107.122 154.776L109.921 155.856C111.404 152.011 112.979 147.953 113.403 143.511L110.416 143.227ZM111.302 123.513C111.302 130.179 111.046 136.608 110.416 143.226L113.403 143.511C114.043 136.783 114.302 130.258 114.302 123.513H111.302ZM108.926 105.191C110.143 111.275 111.302 117.438 111.302 123.513H114.302C114.302 117.102 113.081 110.665 111.868 104.602L108.926 105.191ZM107.849 99.3558C108.194 101.304 108.54 103.261 108.926 105.191L111.868 104.602C111.49 102.711 111.149 100.786 110.802 98.8323L107.849 99.3558ZM103.385 81.5992C105.675 87.1222 106.756 93.1915 107.849 99.3558L110.802 98.8323C109.721 92.7286 108.593 86.3281 106.156 80.4502L103.385 81.5992ZM102.232 78.6269C102.606 79.6246 102.984 80.6343 103.385 81.5992L106.156 80.4502C105.779 79.5413 105.419 78.5809 105.041 77.5736L102.232 78.6269ZM97.4336 69.4627C99.6521 71.8079 100.922 75.1322 102.232 78.6269L105.041 77.5736C103.78 74.2095 102.324 70.2672 99.613 67.4011L97.4336 69.4627ZM86.9248 59.724C90.6966 62.5032 94.1204 65.9602 97.4336 69.4627L99.613 67.4011C96.2893 63.8875 92.7088 60.2595 88.7044 57.3088L86.9248 59.724ZM65.6905 47.7564C73.4538 50.5511 80.1625 54.7413 86.9248 59.724L88.7044 57.3088C81.8321 52.245 74.8569 47.8678 66.7067 44.9337L65.6905 47.7564ZM47.4582 44.4985C53.6255 44.4985 59.8938 45.6695 65.6905 47.7564L66.7067 44.9337C60.6076 42.738 53.9961 41.4985 47.4582 41.4985V44.4985ZM33.7269 45.796C39.1341 44.5033 44.9153 44.4985 47.4582 44.4985V41.4985C44.9277 41.4985 38.8206 41.4937 33.0294 42.8782L33.7269 45.796ZM24.1762 50.7522C24.8743 50.0541 26.5347 48.9769 28.5069 47.9498C30.4541 46.9357 32.455 46.1001 33.7269 45.796L33.0294 42.8782C31.4006 43.2676 29.1434 44.2359 27.1212 45.289C25.124 46.3291 23.1035 47.5823 22.0549 48.6309L24.1762 50.7522ZM24.5699 52.7956C24.5851 51.7681 24.6003 50.7408 24.6154 49.7136L21.6157 49.6695C21.6006 50.6965 21.5854 51.7237 21.5702 52.7512L24.5699 52.7956ZM48.3289 115.209C48.9873 106.001 49.3273 88.1642 49.3273 78.9863H46.3273C46.3273 88.1434 45.9872 105.896 45.3365 114.995L48.3289 115.209ZM47.915 120.649C48.0563 118.847 48.1985 117.032 48.3289 115.209L45.3365 114.995C45.207 116.806 45.0656 118.611 44.9242 120.415L47.915 120.649ZM48.221 153.441C46.2101 142.506 47.0408 131.803 47.915 120.649L44.9242 120.415C44.0547 131.509 43.1773 142.601 45.2704 153.983L48.221 153.441ZM48.4708 155.858C48.4287 155.147 48.3809 154.31 48.221 153.441L45.2704 153.983C45.3919 154.644 45.4326 155.301 45.4761 156.035L48.4708 155.858ZM50.5081 160.222C49.5088 159.618 49.0849 159.011 48.8553 158.414C48.5944 157.735 48.5365 156.967 48.4708 155.858L45.4761 156.035C45.5363 157.052 45.5981 158.302 46.0552 159.491C46.5436 160.761 47.4361 161.871 48.9566 162.79L50.5081 160.222ZM56.3133 158.777C55.8468 159.185 54.6924 159.809 53.3691 160.174C52.7276 160.351 52.114 160.448 51.5885 160.446C51.0533 160.445 50.708 160.343 50.5081 160.222L48.9566 162.79C49.7794 163.287 50.7199 163.444 51.5807 163.446C52.4514 163.449 53.3443 163.293 54.1673 163.066C55.7731 162.623 57.3799 161.829 58.2875 161.036L56.3133 158.777ZM59.9993 155.849C58.7807 156.771 57.5107 157.731 56.3133 158.777L58.2875 161.036C59.3915 160.071 60.5759 159.174 61.809 158.242L59.9993 155.849ZM64.6 152.056C63.227 153.405 61.6609 154.592 59.9993 155.849L61.809 158.242C63.4431 157.006 65.1678 155.704 66.7026 154.196L64.6 152.056ZM66.507 150.415C65.8548 150.941 65.1988 151.468 64.6 152.056L66.7026 154.196C67.1773 153.73 67.7137 153.296 68.3898 152.751L66.507 150.415ZM81.9503 126.701C78.1592 135.458 75.0639 140.758 72.5488 144.172C70.0558 147.556 68.1092 149.123 66.507 150.415L68.3898 152.751C70.0756 151.392 72.2493 149.637 74.9641 145.952C77.6568 142.296 80.8567 136.779 84.7034 127.893L81.9503 126.701ZM54.4725 92.8571C59.4962 93.4494 68.8466 94.5781 75.7002 99.2568C79.0784 101.563 81.8021 104.703 83.1174 109.059C84.4378 113.431 84.3893 119.197 81.9007 126.833L84.753 127.762C87.3722 119.726 87.5353 113.311 85.9893 108.191C84.4382 103.055 81.2176 99.391 77.3916 96.7791C69.837 91.6218 59.7402 90.4574 54.8238 89.8777L54.4725 92.8571ZM50.8854 92.204C51.1456 92.3348 51.4301 92.4088 51.6362 92.4555C51.8678 92.5079 52.1319 92.5536 52.4101 92.5957C52.9651 92.6795 53.675 92.763 54.4725 92.8571L54.8238 89.8777C54.0072 89.7814 53.3537 89.7042 52.8583 89.6293C52.6113 89.592 52.4283 89.5589 52.299 89.5296C52.1441 89.4945 52.1537 89.4838 52.2328 89.5236L50.8854 92.204ZM46.7136 80.6617C47.0734 82.1688 47.6812 84.7159 48.3255 86.9521C48.6463 88.0659 48.9868 89.1402 49.3208 89.9837C49.4864 90.4019 49.6667 90.8053 49.8608 91.1417C49.958 91.3102 50.0758 91.4922 50.2172 91.6607C50.3473 91.8159 50.5661 92.0435 50.8854 92.204L52.2328 89.5236C52.3387 89.5768 52.4104 89.633 52.449 89.6667C52.4887 89.7012 52.5105 89.7267 52.5158 89.733C52.5239 89.7426 52.5039 89.7198 52.4594 89.6426C52.3701 89.4879 52.2518 89.2371 52.1101 88.8792C51.8296 88.1707 51.5204 87.2054 51.2082 86.1216C50.5862 83.9626 49.9938 81.4824 49.6316 79.9651L46.7136 80.6617ZM49.3205 78.8437C49.3206 78.8452 49.3254 78.8909 49.3255 78.9553C49.3255 78.9816 49.3254 79.0661 49.3091 79.1742C49.3011 79.2269 49.2824 79.3334 49.2357 79.4615C49.1996 79.5606 49.0844 79.8532 48.7835 80.1021C48.3863 80.4308 47.8561 80.5274 47.3786 80.3774C47.0166 80.2637 46.8029 80.0458 46.7328 79.9708C46.5773 79.8042 46.4996 79.6408 46.4891 79.6197C46.4443 79.5296 46.4208 79.4573 46.4207 79.4568C46.4113 79.4291 46.4188 79.4496 46.4522 79.5813C46.5087 79.8038 46.5966 80.1719 46.7136 80.6617L49.6316 79.9651C49.5174 79.4867 49.4232 79.0919 49.36 78.8432C49.3337 78.7393 49.297 78.597 49.2608 78.4905C49.2539 78.4702 49.2248 78.3834 49.1755 78.2842C49.1627 78.2586 49.083 78.092 48.9258 77.9236C48.8549 77.8476 48.6404 77.6292 48.2777 77.5153C47.7995 77.3651 47.2686 77.4618 46.8709 77.7909C46.5694 78.0403 46.4537 78.3338 46.4172 78.434C46.37 78.5633 46.351 78.6713 46.3428 78.7259C46.3259 78.8377 46.3254 78.9273 46.3255 78.9603C46.3256 79.0378 46.3316 79.1026 46.3341 79.1289L49.3205 78.8437Z" fill="black"/>
<g filter="url(#filter1_ii_0_1)">
<path d="M363.373 156.595C363.373 131.078 364.124 105.272 362.502 79.8994C360.504 82.3552 356.013 82.7833 354.685 82.7833C351.196 82.7833 347.438 82.9497 345.278 79.8994C342.795 76.3941 340.63 68.9864 343.068 64.9613C345.753 60.5313 351.602 57.878 357.018 57.0304C370.448 54.9287 385.634 52.4857 399.116 55.2054C401.687 55.7239 406.712 56.9052 406.712 59.8918C406.712 63.807 405.002 65.7053 402.244 68.5663C400.734 70.1321 398.625 71.5539 396.436 72.2163C395.229 72.5814 392.467 72.9293 391.521 73.6808C389.694 75.1317 388.84 80.1756 388.84 82.3552C388.84 92.0489 390.062 101.536 390.652 111.172C390.652 119.471 392.861 152.96 392.861 161.259V169.956C392.861 171.388 393.294 170.215 394.648 169.776C397.481 168.857 400.976 167.96 403.979 167.96C411.279 168.867 413.292 180.426 412.967 186.334C412.893 187.686 411.7 189.457 411.279 190.795C410.893 192.022 409.793 193.708 408.598 194.445C404.54 196.95 400.258 198.87 395.691 200.529C385.528 204.219 374.647 204.99 363.82 204.99C357.252 204.99 341.309 200.68 344.955 190.752C347.368 184.181 354.649 180.558 361.238 178.405C363.888 177.539 363.373 172.407 363.373 170.384V156.595Z" fill="#D90B17"/>
</g>
<path d="M362.479 79.5389C364.131 105.027 363.373 130.957 363.373 156.595C363.373 161.191 363.373 165.788 363.373 170.384C363.373 172.407 363.888 177.539 361.238 178.405C354.649 180.558 347.368 184.181 344.955 190.752C341.309 200.68 357.252 204.99 363.82 204.99C374.647 204.99 385.528 204.219 395.691 200.529C400.258 198.87 404.54 196.95 408.598 194.445C409.793 193.708 410.893 192.022 411.279 190.795C411.7 189.457 412.892 187.686 412.967 186.334C413.292 180.426 411.279 168.867 403.979 167.96C400.976 167.96 397.481 168.857 394.648 169.776C393.294 170.215 392.861 171.388 392.861 169.956C392.861 167.057 392.861 164.158 392.861 161.259C392.861 152.96 390.652 119.471 390.652 111.172C390.062 101.536 388.84 92.0489 388.84 82.3552C388.84 80.1756 389.694 75.1317 391.521 73.6808C392.467 72.9293 395.229 72.5814 396.436 72.2163C398.625 71.5539 400.734 70.1321 402.244 68.5663C405.002 65.7053 406.712 63.807 406.712 59.8918C406.712 56.9052 401.687 55.7239 399.116 55.2054C385.634 52.4857 370.448 54.9287 357.018 57.0304C351.602 57.878 345.753 60.5313 343.068 64.9613C340.63 68.9864 342.795 76.3941 345.278 79.8994C347.438 82.9497 351.196 82.7833 354.685 82.7833C356.013 82.7833 360.504 82.3552 362.502 79.8994" stroke="black" stroke-width="3" stroke-linecap="round"/>
<g filter="url(#filter2_i_0_1)">
<path d="M355.355 60.7825C356.992 61.3085 359.521 62.4188 360.301 63.8968C361.08 65.3749 358.46 69.4444 357.337 70.0937C356.041 70.8429 354.455 71.3602 352.921 70.8672L344.021 68.0072C337.873 66.0314 332.931 62.4816 327.464 59.3502C326.752 58.9424 326.112 58.4524 325.391 58.0592C324.986 57.8384 324.452 57.8103 324.106 57.5087C322.955 56.504 323.275 56.1211 323.542 54.8489C324.297 51.2446 326.287 47.8625 327.631 44.4276C329.084 40.7145 331.408 37.0695 333.572 33.6795C334.961 31.5021 336.273 29.3511 337.206 26.9672C337.938 25.0954 336.703 30.9475 335.971 32.8193C335.095 35.0572 334.57 37.5971 334.235 39.9509C334.097 40.9179 333.711 41.7864 333.651 42.7607C333.583 43.8446 333.242 45.0929 332.874 46.1229C332.038 48.4602 331.531 53.2262 334.803 54.3688C337.865 55.4376 341.008 56.4527 344.19 57.1523C348.052 58.0012 351.65 59.5919 355.355 60.7825Z" fill="#C9CB8D"/>
</g>
<path d="M355.355 60.7825C356.992 61.3085 359.521 62.4188 360.301 63.8968C361.08 65.3749 358.46 69.4444 357.337 70.0937C356.041 70.8429 354.455 71.3602 352.921 70.8672L344.021 68.0072C337.873 66.0314 332.931 62.4816 327.464 59.3502C326.752 58.9424 326.112 58.4524 325.391 58.0592C324.986 57.8384 324.452 57.8103 324.106 57.5087C322.955 56.504 323.275 56.1211 323.542 54.8489C324.297 51.2446 326.287 47.8625 327.631 44.4276C329.084 40.7145 331.408 37.0695 333.572 33.6795C334.961 31.5021 336.273 29.3511 337.206 26.9672C337.938 25.0954 336.703 30.9475 335.971 32.8193C335.095 35.0572 334.57 37.5971 334.235 39.9509C334.097 40.9179 333.711 41.7864 333.651 42.7607C333.583 43.8446 333.242 45.0929 332.874 46.1229C332.038 48.4602 331.531 53.2262 334.803 54.3688C337.865 55.4376 341.008 56.4527 344.19 57.1523C348.052 58.0012 351.65 59.5919 355.355 60.7825Z" stroke="black" stroke-width="3" stroke-linecap="round"/>
<g filter="url(#filter3_i_0_1)">
<path d="M391.072 55.7329C389.391 56.0976 386.759 56.9557 385.816 58.3444C384.873 59.733 386.994 64.0103 388.031 64.7599C389.227 65.6248 390.736 66.2878 392.312 65.9459L401.452 63.9627C407.767 62.5927 413.07 59.5499 418.843 56.9711C419.595 56.6353 420.286 56.2113 421.045 55.8907C421.471 55.7107 422.003 55.7337 422.38 55.4682C423.636 54.5834 423.363 54.174 423.247 52.8894C422.917 49.2501 421.34 45.7132 420.408 42.1856C419.4 38.3722 417.523 34.5433 415.775 30.9821C414.652 28.6947 413.603 26.4408 412.956 23.9926C412.448 22.0703 412.992 27.98 413.5 29.9023C414.107 32.2006 414.333 34.7645 414.391 37.1261C414.415 38.0962 414.696 38.9925 414.643 39.9626C414.584 41.0418 414.777 42.3098 415.022 43.3643C415.578 45.7572 415.528 50.5227 412.157 51.3419C409.003 52.1082 405.774 52.8137 402.543 53.203C398.622 53.6755 394.877 54.9073 391.072 55.7329Z" fill="#C9CB8D"/>
</g>
<path d="M391.072 55.7329C389.391 56.0976 386.759 56.9557 385.816 58.3444C384.873 59.733 386.994 64.0103 388.031 64.7599C389.227 65.6248 390.736 66.2878 392.312 65.9459L401.452 63.9627C407.767 62.5927 413.07 59.5499 418.843 56.9711C419.595 56.6353 420.286 56.2113 421.045 55.8907C421.471 55.7107 422.003 55.7337 422.38 55.4682C423.636 54.5834 423.363 54.174 423.247 52.8894C422.917 49.2501 421.34 45.7132 420.408 42.1856C419.4 38.3722 417.523 34.5433 415.775 30.9821C414.652 28.6947 413.603 26.4408 412.956 23.9926C412.448 22.0703 412.992 27.98 413.5 29.9023C414.107 32.2006 414.333 34.7645 414.391 37.1261C414.415 38.0962 414.696 38.9925 414.643 39.9626C414.584 41.0418 414.777 42.3098 415.022 43.3643C415.578 45.7572 415.528 50.5227 412.157 51.3419C409.003 52.1082 405.774 52.8137 402.543 53.203C398.622 53.6755 394.877 54.9073 391.072 55.7329Z" stroke="black" stroke-width="3" stroke-linecap="round"/>
<g filter="url(#filter4_ii_0_1)">
<path fill-rule="evenodd" clip-rule="evenodd" d="M147.351 202.239C139.145 200.15 115.034 194.014 113 114.21C113.053 113.906 113.106 113.599 113.159 113.289C113.625 110.569 114.122 107.67 115.16 105.152C115.931 103.281 116.617 101.398 117.298 99.5245C118.896 95.1321 120.476 90.7912 123.108 86.7714C123.937 85.5065 124.759 84.2327 125.582 82.957C128.236 78.8456 130.902 74.7157 133.821 70.8092C134.522 69.8715 135.226 68.8623 135.945 67.8316C138.029 64.8446 140.239 61.6779 142.849 59.5522C145.721 56.1474 154.658 49.9604 157.234 49.3504C159.36 48.8472 161.202 48.9893 163.215 49.1446C163.768 49.1873 164.335 49.231 164.923 49.2625C173.305 48.4895 193.026 66.2466 195.939 70.6333C196.683 71.754 197.444 72.8271 198.199 73.8929C199.644 75.9333 201.071 77.9474 202.332 80.2194C202.989 81.4014 203.386 82.8257 203.768 84.1938C203.907 84.6915 204.044 85.1817 204.19 85.6501C204.592 86.9372 205.036 88.2193 205.481 89.5032C206.301 91.8707 207.123 94.2441 207.689 96.6653C208.06 98.25 208.373 99.9177 208.69 101.608C209.386 105.316 210.102 109.13 211.49 112.408C213.062 116.12 213.349 120.895 213.607 125.202C213.674 126.313 213.739 127.392 213.823 128.414C214.303 134.228 213.726 139.987 213.045 145.739C212.726 148.437 211.933 151.186 211.166 153.786C210.877 154.769 210.684 155.808 210.491 156.85C210.194 158.45 209.896 160.057 209.244 161.481C208.051 164.089 207.032 166.744 206.013 169.399C205.064 171.873 204.114 174.347 203.024 176.784C199.491 184.674 195.757 192.66 189.719 198.946C185.005 203.854 162.272 203.18 148.681 202.596C148.304 202.481 147.858 202.368 147.351 202.239ZM155.43 158.996C153.679 156.86 152.054 154.433 150.564 152.106C148.228 148.456 146.88 144.404 145.522 140.324C144.648 137.697 143.77 135.059 142.622 132.507C138.471 123.284 138.621 116.007 142.121 105.551C145.621 99.0071 151.528 94.6724 158.768 94.2466C166.563 93.788 172.73 99.6849 176.92 105.551C178.122 107.234 199.122 142.007 169.061 158.738C167.417 160.524 157.122 163.007 155.43 158.996Z" fill="#D90B17"/>
</g>
<path d="M113 114.21L111.522 113.953L111.497 114.1L111.5 114.249L113 114.21ZM147.351 202.239L147.721 200.785L147.721 200.785L147.351 202.239ZM113.159 113.289L111.68 113.036L111.68 113.036L113.159 113.289ZM115.16 105.152L113.773 104.58L113.773 104.58L115.16 105.152ZM117.298 99.5245L118.708 100.037L117.298 99.5245ZM123.108 86.7714L121.853 85.9496L121.853 85.9496L123.108 86.7714ZM125.582 82.957L126.843 83.7705L126.843 83.7705L125.582 82.957ZM133.821 70.8092L135.023 71.707L135.023 71.707L133.821 70.8092ZM135.945 67.8316L134.715 66.9733L134.715 66.9733L135.945 67.8316ZM142.849 59.5522L143.797 60.7153L143.906 60.6266L143.996 60.5192L142.849 59.5522ZM157.234 49.3504L156.889 47.8908L156.889 47.8908L157.234 49.3504ZM163.215 49.1446L163.099 50.6401L163.099 50.6401L163.215 49.1446ZM164.923 49.2625L164.843 50.7604L164.952 50.7662L165.061 50.7562L164.923 49.2625ZM195.939 70.6333L194.69 71.4632L194.69 71.4632L195.939 70.6333ZM198.199 73.8929L196.975 74.76L196.975 74.76L198.199 73.8929ZM202.332 80.2194L201.021 80.9476L201.021 80.9476L202.332 80.2194ZM203.768 84.1938L205.213 83.7907L205.213 83.7907L203.768 84.1938ZM204.19 85.6501L202.758 86.0976L202.758 86.0976L204.19 85.6501ZM205.481 89.5032L204.063 89.9941L204.063 89.9941L205.481 89.5032ZM207.689 96.6653L206.228 97.0069L206.228 97.0069L207.689 96.6653ZM208.69 101.608L207.216 101.884L207.216 101.884L208.69 101.608ZM211.49 112.408L210.109 112.992L210.109 112.992L211.49 112.408ZM213.607 125.202L215.104 125.113L215.104 125.113L213.607 125.202ZM213.823 128.414L212.328 128.537L212.328 128.537L213.823 128.414ZM213.045 145.739L214.535 145.915L214.535 145.915L213.045 145.739ZM211.166 153.786L209.728 153.362L209.728 153.362L211.166 153.786ZM210.491 156.85L209.016 156.577L209.016 156.577L210.491 156.85ZM209.244 161.481L207.88 160.857L207.88 160.857L209.244 161.481ZM206.013 169.399L204.613 168.861L204.613 168.861L206.013 169.399ZM203.024 176.784L204.393 177.397L204.393 177.397L203.024 176.784ZM189.719 198.946L190.801 199.985L190.801 199.985L189.719 198.946ZM148.681 202.596L148.245 204.031L148.427 204.086L148.617 204.095L148.681 202.596ZM150.564 152.106L149.3 152.914L149.3 152.914L150.564 152.106ZM155.43 158.996L156.812 158.413L156.728 158.213L156.59 158.045L155.43 158.996ZM145.522 140.324L144.099 140.798L144.099 140.798L145.522 140.324ZM142.622 132.507L141.254 133.123L141.254 133.123L142.622 132.507ZM142.121 105.551L140.798 104.844L140.739 104.955L140.699 105.075L142.121 105.551ZM158.768 94.2466L158.856 95.744L158.768 94.2466ZM176.92 105.551L175.699 106.423L175.699 106.423L176.92 105.551ZM169.061 158.738L168.331 157.427L168.12 157.544L167.957 157.722L169.061 158.738ZM111.5 114.249C112.52 154.258 119.073 176.057 126.587 188.159C130.357 194.231 134.367 197.859 138.023 200.104C141.673 202.345 144.906 203.164 146.981 203.692L147.721 200.785C145.694 200.269 142.835 199.538 139.593 197.547C136.357 195.561 132.674 192.275 129.136 186.577C122.034 175.137 115.514 153.966 114.5 114.172L111.5 114.249ZM111.68 113.036C111.627 113.346 111.575 113.651 111.522 113.953L114.478 114.468C114.531 114.161 114.584 113.852 114.637 113.543L111.68 113.036ZM113.773 104.58C112.66 107.28 112.14 110.351 111.68 113.036L114.637 113.543C115.109 110.788 115.583 108.06 116.547 105.724L113.773 104.58ZM115.889 99.0117C115.205 100.89 114.531 102.743 113.773 104.58L116.547 105.724C117.332 103.819 118.028 101.906 118.708 100.037L115.889 99.0117ZM121.853 85.9496C119.11 90.1379 117.478 94.6432 115.889 99.0117L118.708 100.037C120.315 95.6211 121.841 91.4445 124.363 87.5932L121.853 85.9496ZM124.322 82.1435C123.498 83.4198 122.679 84.6895 121.853 85.9496L124.363 87.5932C125.195 86.3235 126.02 85.0455 126.843 83.7705L124.322 82.1435ZM132.62 69.9114C129.665 73.8659 126.971 78.0395 124.322 82.1435L126.843 83.7705C129.502 79.6517 132.14 75.5654 135.023 71.707L132.62 69.9114ZM134.715 66.9733C133.993 68.0081 133.303 68.9967 132.62 69.9114L135.023 71.707C135.741 70.7463 136.459 69.7165 137.175 68.69L134.715 66.9733ZM141.902 58.389C139.097 60.6732 136.768 64.0316 134.715 66.9733L137.175 68.69C139.291 65.6577 141.381 62.6826 143.797 60.7153L141.902 58.389ZM156.889 47.8908C156.006 48.0998 154.792 48.7089 153.553 49.4241C152.261 50.1704 150.774 51.1328 149.29 52.176C146.36 54.2351 143.271 56.7253 141.703 58.5851L143.996 60.5192C145.299 58.9743 148.115 56.6687 151.015 54.6305C152.445 53.6252 153.856 52.7136 155.054 52.022C156.305 51.2991 157.174 50.9061 157.58 50.8101L156.889 47.8908ZM163.33 47.649C161.334 47.4951 159.272 47.3267 156.889 47.8908L157.58 50.8101C159.448 50.3678 161.069 50.4836 163.099 50.6401L163.33 47.649ZM165.004 47.7646C164.435 47.7342 163.886 47.6919 163.33 47.649L163.099 50.6401C163.651 50.6826 164.234 50.7277 164.843 50.7604L165.004 47.7646ZM197.189 69.8035C196.357 68.5508 194.464 66.516 192.076 64.2472C189.651 61.944 186.612 59.3036 183.398 56.8252C180.19 54.3511 176.773 52.0117 173.597 50.3326C170.494 48.6924 167.351 47.5323 164.786 47.7688L165.061 50.7562C166.687 50.6062 169.151 51.3758 172.195 52.9848C175.165 54.5547 178.432 56.7839 181.566 59.2008C184.694 61.6134 187.655 64.1864 190.01 66.4224C192.4 68.6926 194.065 70.5224 194.69 71.4632L197.189 69.8035ZM199.423 73.0259C198.666 71.9573 197.919 70.9023 197.189 69.8035L194.69 71.4632C195.448 72.6057 196.222 73.6969 196.975 74.76L199.423 73.0259ZM203.644 79.4913C202.336 77.1362 200.862 75.0573 199.423 73.0259L196.975 74.76C198.426 76.8092 199.806 78.7585 201.021 80.9476L203.644 79.4913ZM205.213 83.7907C204.842 82.4617 204.402 80.8565 203.644 79.4913L201.021 80.9476C201.576 81.9462 201.93 83.1896 202.323 84.597L205.213 83.7907ZM205.622 85.2026C205.483 84.7602 205.353 84.2927 205.213 83.7907L202.323 84.597C202.461 85.0902 202.604 85.6032 202.758 86.0976L205.622 85.2026ZM206.898 89.0124C206.452 87.7248 206.016 86.4642 205.622 85.2026L202.758 86.0976C203.168 87.4101 203.62 88.7139 204.063 89.9941L206.898 89.0124ZM209.15 96.3237C208.562 93.8139 207.714 91.367 206.898 89.0124L204.063 89.9941C204.888 92.3744 205.683 94.6742 206.228 97.0069L209.15 96.3237ZM210.164 101.331C209.848 99.6474 209.529 97.9464 209.15 96.3237L206.228 97.0069C206.59 98.5536 206.897 100.188 207.216 101.884L210.164 101.331ZM212.872 111.823C211.559 108.722 210.867 105.075 210.164 101.331L207.216 101.884C207.905 105.556 208.646 109.538 210.109 112.992L212.872 111.823ZM215.104 125.113C214.85 120.878 214.564 115.82 212.872 111.823L210.109 112.992C211.56 116.42 211.847 120.913 212.11 125.292L215.104 125.113ZM215.318 128.29C215.235 127.288 215.171 126.227 215.104 125.113L212.11 125.292C212.176 126.399 212.242 127.496 212.328 128.537L215.318 128.29ZM214.535 145.915C215.216 140.162 215.812 134.269 215.318 128.29L212.328 128.537C212.795 134.186 212.237 139.811 211.556 145.563L214.535 145.915ZM212.605 154.21C213.367 151.626 214.198 148.759 214.535 145.915L211.556 145.563C211.254 148.116 210.498 150.746 209.728 153.362L212.605 154.21ZM211.965 157.124C212.162 156.067 212.341 155.105 212.605 154.21L209.728 153.362C209.412 154.432 209.206 155.549 209.016 156.577L211.965 157.124ZM210.608 162.105C211.35 160.483 211.676 158.686 211.965 157.124L209.016 156.577C208.712 158.213 208.441 159.631 207.88 160.857L210.608 162.105ZM207.414 169.936C208.435 167.274 209.438 164.663 210.608 162.105L207.88 160.857C206.664 163.515 205.629 166.213 204.613 168.861L207.414 169.936ZM204.393 177.397C205.503 174.917 206.467 172.404 207.414 169.936L204.613 168.861C203.661 171.342 202.726 173.778 201.655 176.171L204.393 177.397ZM190.801 199.985C197.043 193.486 200.87 185.266 204.393 177.397L201.655 176.171C198.113 184.082 194.47 191.835 188.637 197.907L190.801 199.985ZM148.617 204.095C155.412 204.387 164.553 204.704 172.599 204.329C176.618 204.141 180.415 203.779 183.531 203.138C185.09 202.818 186.515 202.421 187.728 201.924C188.928 201.433 190.01 200.808 190.801 199.985L188.637 197.907C188.249 198.311 187.589 198.739 186.591 199.148C185.606 199.551 184.375 199.902 182.927 200.2C180.031 200.795 176.411 201.148 172.459 201.332C164.562 201.701 155.541 201.389 148.746 201.097L148.617 204.095ZM146.981 203.692C147.499 203.824 147.908 203.929 148.245 204.031L149.118 201.161C148.701 201.034 148.218 200.912 147.721 200.785L146.981 203.692ZM149.3 152.914C150.797 155.253 152.462 157.74 154.27 159.947L156.59 158.045C154.897 155.979 153.31 153.613 151.827 151.297L149.3 152.914ZM144.099 140.798C145.447 144.849 146.847 149.081 149.3 152.914L151.827 151.297C149.609 147.831 148.313 143.96 146.945 139.85L144.099 140.798ZM141.254 133.123C142.365 135.593 143.221 138.159 144.099 140.798L146.945 139.85C146.075 137.235 145.174 134.524 143.99 131.892L141.254 133.123ZM140.699 105.075C138.919 110.391 137.956 114.999 138.002 119.507C138.049 124.03 139.11 128.36 141.254 133.123L143.99 131.892C141.982 127.431 141.044 123.51 141.002 119.476C140.961 115.425 141.823 111.168 143.543 106.027L140.699 105.075ZM158.68 92.7491C150.837 93.2105 144.503 97.9169 140.798 104.844L143.444 106.259C146.739 100.097 152.219 96.1344 158.856 95.744L158.68 92.7491ZM178.141 104.679C173.909 98.7559 167.316 92.2411 158.68 92.7491L158.856 95.744C165.811 95.3349 171.55 100.614 175.699 106.423L178.141 104.679ZM169.79 160.048C177.584 155.711 182.157 150.144 184.534 144.159C186.9 138.203 187.045 131.951 186.197 126.28C184.51 114.987 178.837 105.654 178.141 104.679L175.699 106.423C176.205 107.131 181.632 116.026 183.23 126.723C184.026 132.047 183.859 137.73 181.746 143.052C179.643 148.346 175.568 153.4 168.331 157.427L169.79 160.048ZM154.048 159.579C154.731 161.197 156.224 161.995 157.683 162.355C159.151 162.718 160.845 162.713 162.434 162.531C164.039 162.347 165.64 161.97 166.964 161.514C167.627 161.286 168.243 161.03 168.767 160.756C169.266 160.495 169.786 160.165 170.164 159.753L167.957 157.722C167.957 157.722 167.956 157.722 167.956 157.723C167.956 157.723 167.955 157.724 167.954 157.725C167.952 157.727 167.95 157.729 167.946 157.732C167.94 157.739 167.93 157.748 167.916 157.759C167.889 157.782 167.851 157.812 167.8 157.847C167.696 157.919 167.557 158.003 167.378 158.097C167.018 158.285 166.547 158.484 165.987 158.677C164.866 159.064 163.479 159.392 162.093 159.551C160.691 159.711 159.391 159.687 158.402 159.443C157.404 159.196 156.976 158.8 156.812 158.413L154.048 159.579Z" fill="black"/>
<g filter="url(#filter5_ii_0_1)">
<path fill-rule="evenodd" clip-rule="evenodd" d="M549.974 201.962C539.677 200.502 511.123 196.453 517 115.865C517.052 115.567 517.105 115.266 517.158 114.963C517.622 112.299 518.118 109.46 519.153 106.994C519.922 105.161 520.605 103.317 521.285 101.482C522.878 97.1806 524.452 92.9292 527.077 88.9923C527.903 87.7535 528.723 86.5059 529.544 85.2566C532.19 81.2299 534.848 77.1852 537.757 73.3594C538.456 72.441 539.158 71.4526 539.875 70.4432C541.953 67.5178 544.156 64.4164 546.758 62.3345C549.621 59 558.53 52.9406 561.099 52.3432C563.218 51.8504 565.055 51.9895 567.061 52.1416C567.613 52.1834 568.178 52.2262 568.765 52.2571C577.121 51.5 596.782 68.8908 599.686 73.1871C600.428 74.2847 601.186 75.3356 601.939 76.3795C603.38 78.3777 604.802 80.3503 606.06 82.5755C606.714 83.733 607.11 85.128 607.491 86.4679C607.629 86.9553 607.766 87.4354 607.912 87.8941C608.313 89.1547 608.755 90.4104 609.199 91.6679C610.016 93.9864 610.835 96.3109 611.4 98.6821C611.77 100.234 612.082 101.867 612.398 103.522C613.092 107.154 613.806 110.89 615.19 114.1C616.757 117.735 617.043 122.413 617.3 126.631C617.367 127.718 617.431 128.775 617.515 129.776C617.994 135.47 617.419 141.11 616.74 146.744C616.422 149.386 615.631 152.078 614.867 154.625C614.578 155.587 614.386 156.605 614.193 157.626C613.897 159.192 613.6 160.767 612.95 162.161C611.761 164.715 610.745 167.315 609.73 169.915C608.783 172.339 607.836 174.762 606.749 177.148C603.228 184.876 599.504 192.697 593.485 198.853C588.785 203.66 566.121 203 552.572 202.428C551.953 202.243 551.067 202.117 549.974 201.962ZM558.515 161.775C540.084 159.779 541.706 118.786 545.206 108.33C548.706 101.786 554.613 97.451 561.852 97.0251C569.648 96.5666 575.814 102.463 580.005 108.33C581.206 110.012 602.206 144.786 572.145 161.516C570.502 163.302 564.5 164 558.515 161.775Z" fill="#D90B17"/>
</g>
<path d="M517 115.865L515.523 115.603L515.509 115.679L515.504 115.756L517 115.865ZM549.974 201.962L549.764 203.448L549.764 203.448L549.974 201.962ZM517.158 114.963L518.636 115.221L518.636 115.221L517.158 114.963ZM519.153 106.994L520.536 107.574L519.153 106.994ZM521.285 101.482L519.878 100.961L519.878 100.961L521.285 101.482ZM527.077 88.9923L525.829 88.1602L525.829 88.1602L527.077 88.9923ZM529.544 85.2566L528.29 84.4328L528.29 84.4328L529.544 85.2566ZM537.757 73.3594L536.563 72.4513L536.563 72.4513L537.757 73.3594ZM539.875 70.4432L541.098 71.3118L541.098 71.3118L539.875 70.4432ZM546.758 62.3345L547.695 63.5058L547.805 63.4181L547.896 63.3116L546.758 62.3345ZM561.099 52.3432L560.759 50.8822L560.759 50.8822L561.099 52.3432ZM567.061 52.1416L566.948 53.6373L566.948 53.6373L567.061 52.1416ZM568.765 52.2571L568.686 53.755L568.793 53.7607L568.9 53.751L568.765 52.2571ZM599.686 73.1871L600.929 72.347L600.929 72.347L599.686 73.1871ZM601.939 76.3795L603.155 75.5021L603.155 75.5021L601.939 76.3795ZM606.06 82.5755L607.366 81.8374L607.366 81.8374L606.06 82.5755ZM607.491 86.4679L606.048 86.8777L606.048 86.8777L607.491 86.4679ZM607.912 87.8941L609.341 87.4393L609.341 87.4393L607.912 87.8941ZM609.199 91.6679L607.784 92.1665L607.784 92.1665L609.199 91.6679ZM611.4 98.6821L609.941 99.0296L609.941 99.0296L611.4 98.6821ZM612.398 103.522L610.925 103.804L610.925 103.804L612.398 103.522ZM615.19 114.1L616.567 113.506L616.567 113.506L615.19 114.1ZM617.3 126.631L618.798 126.539L618.798 126.539L617.3 126.631ZM617.515 129.776L616.021 129.901L616.021 129.901L617.515 129.776ZM616.74 146.744L615.251 146.564L615.251 146.564L616.74 146.744ZM614.867 154.625L616.304 155.056L616.304 155.056L614.867 154.625ZM614.193 157.626L615.667 157.904L615.667 157.904L614.193 157.626ZM612.95 162.161L614.31 162.795L614.31 162.795L612.95 162.161ZM609.73 169.915L611.127 170.461L611.127 170.461L609.73 169.915ZM606.749 177.148L608.114 177.77L608.114 177.77L606.749 177.148ZM593.485 198.853L592.412 197.805L592.412 197.805L593.485 198.853ZM552.572 202.428L552.143 203.865L552.322 203.919L552.509 203.927L552.572 202.428ZM545.206 108.33L543.883 107.623L543.823 107.734L543.783 107.854L545.206 108.33ZM558.515 161.775L559.037 160.369L558.862 160.304L558.676 160.283L558.515 161.775ZM561.852 97.0251L561.764 95.5277L561.764 95.5277L561.852 97.0251ZM580.005 108.33L578.784 109.202L578.784 109.202L580.005 108.33ZM572.145 161.516L571.416 160.206L571.205 160.323L571.041 160.501L572.145 161.516ZM515.504 115.756C512.557 156.165 518.204 177.743 526.183 189.432C534.246 201.245 544.513 202.703 549.764 203.448L550.185 200.477C545.138 199.762 535.98 198.465 528.661 187.741C521.257 176.894 515.566 156.153 518.496 115.975L515.504 115.756ZM515.68 114.705C515.627 115.009 515.575 115.308 515.523 115.603L518.477 116.127C518.53 115.827 518.583 115.524 518.636 115.221L515.68 114.705ZM517.77 106.413C516.657 109.064 516.139 112.077 515.68 114.705L518.636 115.221C519.106 112.522 519.578 109.856 520.536 107.574L517.77 106.413ZM519.878 100.961C519.197 102.801 518.525 104.615 517.77 106.413L520.536 107.574C521.32 105.707 522.013 103.833 522.691 102.003L519.878 100.961ZM525.829 88.1602C523.092 92.2664 521.462 96.6833 519.878 100.961L522.691 102.003C524.293 97.6779 525.813 93.592 528.325 89.8243L525.829 88.1602ZM528.29 84.4328C527.469 85.6829 526.652 86.9263 525.829 88.1602L528.325 89.8243C529.154 88.5807 529.977 87.329 530.797 86.0803L528.29 84.4328ZM536.563 72.4513C533.617 76.3252 530.931 80.4136 528.29 84.4328L530.797 86.0803C533.448 82.0463 536.078 78.0453 538.951 74.2674L536.563 72.4513ZM538.652 69.5746C537.932 70.5881 537.244 71.556 536.563 72.4513L538.951 74.2674C539.667 73.3261 540.384 72.3171 541.098 71.3118L538.652 69.5746ZM545.821 61.1632C543.023 63.4018 540.698 66.6937 538.652 69.5746L541.098 71.3118C543.207 68.342 545.289 65.431 547.695 63.5058L545.821 61.1632ZM560.759 50.8822C559.881 51.0864 558.672 51.682 557.437 52.3828C556.149 53.1137 554.667 54.0563 553.187 55.078C550.266 57.0943 547.185 59.5339 545.62 61.3575L547.896 63.3116C549.193 61.8006 551.999 59.5433 554.891 57.5469C556.317 56.5623 557.723 55.6696 558.917 54.9921C560.165 54.2846 561.032 53.8988 561.439 53.8042L560.759 50.8822ZM567.175 50.6459C565.185 50.4951 563.132 50.3305 560.759 50.8822L561.439 53.8042C563.305 53.3703 564.925 53.484 566.948 53.6373L567.175 50.6459ZM568.844 50.7592C568.277 50.7293 567.729 50.6879 567.175 50.6459L566.948 53.6373C567.498 53.6789 568.079 53.7231 568.686 53.755L568.844 50.7592ZM600.929 72.347C600.097 71.1172 598.209 69.1227 595.828 66.9011C593.41 64.6451 590.38 62.0589 587.176 59.6315C583.977 57.2082 580.571 54.9171 577.404 53.2727C574.31 51.6656 571.18 50.5321 568.629 50.7632L568.9 53.751C570.528 53.6035 572.989 54.36 576.022 55.935C578.983 57.4727 582.24 59.6558 585.364 62.0227C588.483 64.3853 591.435 66.9051 593.781 69.0946C596.164 71.3184 597.823 73.1089 598.443 74.0272L600.929 72.347ZM603.155 75.5021C602.401 74.4555 601.656 73.4227 600.929 72.347L598.443 74.0272C599.2 75.1466 599.971 76.2157 600.722 77.2568L603.155 75.5021ZM607.366 81.8374C606.061 79.5289 604.59 77.4914 603.155 75.5021L600.722 77.2568C602.17 79.2641 603.543 81.1716 604.754 83.3136L607.366 81.8374ZM608.934 86.0581C608.564 84.7574 608.124 83.1797 607.366 81.8374L604.754 83.3136C605.304 84.2864 605.656 85.4985 606.048 86.8777L608.934 86.0581ZM609.341 87.4393C609.204 87.0069 609.074 86.5499 608.934 86.058L606.048 86.8777C606.185 87.3607 606.328 87.8639 606.482 88.3489L609.341 87.4393ZM610.613 91.1692C610.169 89.908 609.734 88.6741 609.341 87.4393L606.482 88.3489C606.892 89.6352 607.342 90.9129 607.784 92.1665L610.613 91.1692ZM612.859 98.3347C612.273 95.8736 611.426 93.4747 610.613 91.1692L607.784 92.1665C608.606 94.4982 609.398 96.7481 609.941 99.0296L612.859 98.3347ZM613.871 103.241C613.556 101.592 613.238 99.9253 612.859 98.3347L609.941 99.0296C610.301 100.543 610.607 102.142 610.925 103.804L613.871 103.241ZM616.567 113.506C615.261 110.475 614.573 106.909 613.871 103.241L610.925 103.804C611.612 107.399 612.352 111.305 613.812 114.693L616.567 113.506ZM618.798 126.539C618.544 122.395 618.259 117.43 616.567 113.506L613.812 114.693C615.255 118.041 615.541 122.431 615.803 126.722L618.798 126.539ZM619.01 129.65C618.928 128.67 618.864 127.63 618.798 126.539L615.803 126.722C615.869 127.806 615.935 128.881 616.021 129.901L619.01 129.65ZM618.229 146.923C618.908 141.288 619.503 135.512 619.01 129.65L616.021 129.901C616.486 135.427 615.93 140.932 615.251 146.564L618.229 146.923ZM616.304 155.056C617.063 152.525 617.893 149.713 618.229 146.923L615.251 146.564C614.95 149.059 614.199 151.631 613.43 154.194L616.304 155.056ZM615.667 157.904C615.863 156.868 616.041 155.93 616.304 155.056L613.43 154.194C613.115 155.245 612.909 156.341 612.719 157.347L615.667 157.904ZM614.31 162.795C615.053 161.199 615.378 159.433 615.667 157.904L612.719 157.347C612.416 158.951 612.147 160.334 611.591 161.528L614.31 162.795ZM611.127 170.461C612.145 167.854 613.144 165.298 614.31 162.795L611.591 161.528C610.378 164.132 609.345 166.777 608.332 169.37L611.127 170.461ZM608.114 177.77C609.221 175.34 610.183 172.878 611.127 170.461L608.332 169.37C607.383 171.799 606.451 174.184 605.384 176.526L608.114 177.77ZM594.557 199.902C600.785 193.533 604.602 185.478 608.114 177.77L605.384 176.526C601.854 184.274 598.224 191.861 592.412 197.805L594.557 199.902ZM552.509 203.927C559.283 204.213 568.396 204.524 576.416 204.156C580.422 203.972 584.206 203.617 587.312 202.99C588.865 202.677 590.284 202.288 591.493 201.802C592.688 201.321 593.767 200.71 594.557 199.902L592.412 197.805C592.027 198.199 591.37 198.618 590.373 199.019C589.39 199.414 588.162 199.758 586.718 200.05C583.829 200.633 580.219 200.978 576.278 201.159C568.404 201.52 559.41 201.215 552.635 200.929L552.509 203.927ZM549.764 203.448C550.906 203.61 551.658 203.72 552.143 203.865L553.002 200.991C552.249 200.766 551.227 200.625 550.185 200.477L549.764 203.448ZM543.783 107.854C542.848 110.647 542.08 115.318 541.72 120.711C541.359 126.133 541.403 132.396 542.147 138.409C542.889 144.401 544.338 150.255 546.857 154.781C549.39 159.334 553.105 162.698 558.353 163.266L558.676 160.283C554.709 159.854 551.715 157.344 549.478 153.323C547.226 149.275 545.844 143.853 545.125 138.04C544.408 132.249 544.362 126.179 544.713 120.911C545.066 115.615 545.813 111.241 546.628 108.806L543.783 107.854ZM561.764 95.5277C553.921 95.989 547.588 100.695 543.883 107.623L546.528 109.037C549.824 102.876 555.304 98.9129 561.94 98.5225L561.764 95.5277ZM581.225 107.458C576.994 101.534 570.4 95.0197 561.764 95.5277L561.94 98.5225C568.895 98.1134 574.634 103.392 578.784 109.202L581.225 107.458ZM572.874 162.827C580.668 158.489 585.241 152.923 587.618 146.938C589.984 140.982 590.129 134.73 589.282 129.058C587.595 117.766 581.921 108.432 581.225 107.458L578.784 109.202C579.29 109.91 584.717 118.805 586.315 129.502C587.11 134.825 586.944 140.509 584.83 145.831C582.727 151.124 578.652 156.178 571.416 160.206L572.874 162.827ZM557.992 163.181C561.177 164.365 564.377 164.777 567.031 164.648C568.358 164.583 569.582 164.382 570.618 164.053C571.625 163.733 572.588 163.25 573.249 162.532L571.041 160.501C570.88 160.675 570.477 160.95 569.71 161.193C568.971 161.428 568.012 161.597 566.885 161.652C564.631 161.761 561.837 161.41 559.037 160.369L557.992 163.181Z" fill="black"/>
<path d="M594.971 70.3238C599.132 68.6593 604.242 65.4406 606.997 61.8004C608.517 59.7922 608.275 56.6629 605.216 56.6629C602.863 56.6629 603.445 59.3576 604.691 60.6036C608.062 63.9747 614.707 61.7344 618.148 59.5527C620.654 57.9632 623.148 55.8385 625.153 53.6272C626.928 51.6701 629.324 49.22 630.121 46.68C630.43 45.6948 630.264 43.0659 628.539 43.0021C627.007 42.9453 625.765 44.0674 625.621 45.5088C625.271 49.0104 629.723 49.434 632.553 49.2925C634.73 49.1836 637.101 48.7509 639.223 48.2417C640.121 46.68 641.121 45.5088 641.121 45.0088" stroke="black" stroke-width="3" stroke-linecap="round"/>
<path d="M594.302 79.1918C594.302 77.8733 594.232 76.5108 594.232 75.2161" stroke="black" stroke-width="2" stroke-linecap="round"/>
<path d="M587.676 74.7278C588.477 74.327 589.221 73.8222 590.016 73.4026C590.452 73.1726 590.846 72.8574 591.303 72.7051" stroke="black" stroke-width="2" stroke-linecap="round"/>
<path d="M591.79 69.357C590.929 69.2852 590.08 68.7951 589.252 68.5549C588.696 68.3934 588.149 68.2129 587.605 68.0317" stroke="black" stroke-width="2" stroke-linecap="round"/>
<path d="M266.846 135.415C266.846 133.299 266.918 131.192 266.918 129.077C266.918 128.723 267.204 128.906 267.278 128.573C267.32 128.382 267.453 128.273 267.534 128.101C267.623 127.913 267.614 127.748 267.746 127.565C267.892 127.362 268.001 127.149 268.126 126.933C268.193 126.817 268.236 126.569 268.33 126.485C268.805 126.063 269.172 125.949 269.799 125.796C270.546 125.615 271.249 125.506 272.015 125.46C275.33 125.264 278.606 124.9 281.93 124.9C285.021 124.9 288.324 124.662 291.336 125.516C291.865 125.666 292.402 125.768 292.933 125.909C293.092 125.951 293.313 125.937 293.457 126.017C293.904 126.265 293.866 126.484 293.929 126.985C293.974 127.346 294.136 127.707 294.197 128.069C294.301 128.681 294.347 129.305 294.357 129.926C294.368 130.63 294.521 131.36 294.557 132.07C294.59 132.71 294.598 133.356 294.517 133.991C294.432 134.664 294.562 135.356 294.493 136.031C294.427 136.674 294.369 137.369 294.245 138.008C294.063 138.943 293.809 139.933 293.453 140.816C292.911 142.161 292.261 143.672 291.2 144.689C289.792 146.039 287.533 146.218 285.675 146.218C284.932 146.218 284.232 146.214 283.498 146.106C282.344 145.935 281.201 145.711 280.033 145.626C277.12 145.413 274.047 144.939 271.335 143.837C270.131 143.348 268.956 142.612 268.11 141.621C267.758 141.208 267.389 140.79 267.278 140.236C267.147 139.583 266.929 138.959 266.862 138.288C266.768 137.346 266.846 136.36 266.846 135.415Z" fill="#AA0000" stroke="black" stroke-width="2" stroke-linecap="round"/>
<g filter="url(#filter6_ii_0_1)">
<path d="M222.409 83.838C223.129 78.6723 224.14 68.8453 224.573 63.6714C227.571 60.0381 248.661 59 251.324 59C256.676 59 264.518 61.4573 268.425 66.1254C273.995 72.7808 280.127 84.9504 284.037 93.2573C284.537 94.3188 289.607 80.6069 291.152 77.6537C293.451 73.2575 296.819 71.1844 299.703 67.7387C304.072 62.517 309.339 61.4199 315.341 61.4199C320.346 61.4199 326.314 61.0759 330.811 63.8399C335.73 66.8625 338.061 73.197 339.699 79.3006C341.221 84.967 342.29 91.8283 342.85 97.719C343.51 104.666 344.843 111.684 344.987 118.692C345.32 134.783 346 150.842 346 166.956C346 173.34 345.348 184.377 344.369 190.67C343.84 194.067 343.489 200.105 341.003 201.739C335.843 205.13 317.775 206.347 312.866 201.739C311.671 196.842 310.785 164.886 310.785 156.604C309.397 148.788 306.403 122.927 305.722 114.995C304.819 119.602 298.528 120.248 281.039 128.034C247.735 125.438 254.849 114.158 251.858 111.701C251.313 116.257 251.714 120.898 251.07 125.515C250.418 130.193 249.805 135.468 249.805 140.202C249.805 146.857 248.729 153.182 247.273 159.562C245.909 165.539 251.858 204.334 225.572 204.334C218.077 204.334 216.406 207.144 214.364 201.22C211.295 192.312 214.364 167.087 214.364 157.646C214.364 144.955 215.734 132.987 217.121 120.439C217.935 113.078 218.663 105.681 219.484 98.324C220.03 93.4313 221.736 88.6604 222.409 83.838Z" fill="#D90B17"/>
</g>
<path d="M222.409 83.838C223.129 78.6723 224.14 68.8453 224.573 63.6714C227.571 60.0381 248.661 59 251.324 59C256.676 59 264.518 61.4573 268.425 66.1254C273.995 72.7808 280.127 84.9504 284.037 93.2573C284.537 94.3188 289.607 80.6069 291.152 77.6537C293.451 73.2575 296.819 71.1844 299.703 67.7387C304.072 62.517 309.339 61.4199 315.341 61.4199C320.346 61.4199 326.314 61.0759 330.811 63.8399C335.73 66.8625 338.061 73.197 339.699 79.3006C341.221 84.967 342.29 91.8283 342.85 97.719C343.51 104.666 344.843 111.684 344.987 118.692C345.32 134.783 346 150.842 346 166.956C346 173.34 345.348 184.377 344.369 190.67C343.84 194.067 343.489 200.105 341.003 201.739C335.843 205.13 317.775 206.347 312.866 201.739C311.671 196.842 310.785 164.886 310.785 156.604C309.397 148.788 306.403 122.927 305.722 114.995C304.819 119.602 298.528 120.248 281.039 128.034C247.735 125.438 254.849 114.158 251.858 111.701C251.313 116.257 251.714 120.898 251.07 125.515C250.418 130.193 249.805 135.468 249.805 140.202C249.805 146.857 248.729 153.182 247.273 159.562C245.909 165.539 251.858 204.334 225.572 204.334C218.077 204.334 216.406 207.144 214.364 201.22C211.295 192.312 214.364 167.087 214.364 157.646C214.364 144.955 215.734 132.987 217.121 120.439C217.935 113.078 218.663 105.681 219.484 98.324C220.03 93.4313 221.736 88.6604 222.409 83.838Z" stroke="black" stroke-width="3" stroke-linecap="round"/>
<g filter="url(#filter7_ii_0_1)">
<path d="M411.556 100.828V70.3364C413.538 68.7502 429.252 66.5343 431.111 67.3707C438.962 70.9037 445.188 74.9997 451.222 80.7165C455.255 84.5371 472.5 124.5 475.782 130.578C478.259 131.889 478.641 130.693 479.304 128.539C482.609 117.796 478.609 104.764 479.999 93.6452C480.803 87.2158 481.237 81.7122 484.494 76.1289C487.017 71.803 492.798 67 498.118 67C508.317 67 514.985 79.9584 514.985 89.1039C514.985 119.009 513.317 148.438 513.317 178.354C513.317 189.1 510.459 203 498.5 203C487.575 203 481.28 186.68 474.577 179.605C471.019 175.849 453.281 141.836 449.925 138.085C449.689 136.377 446.693 131.628 445.383 133.312C445.383 139.337 443.315 196.125 440.5 201.5C435.667 210.726 406 209 410.907 175.249C409.354 166.904 410.041 155.465 411.139 147.121C413.115 132.099 411.556 115.976 411.556 100.828Z" fill="#D90B17"/>
</g>
<path d="M411.556 100.828V70.3364C413.538 68.7502 429.252 66.5343 431.111 67.3707C438.962 70.9037 445.188 74.9997 451.222 80.7165C455.255 84.5371 472.5 124.5 475.782 130.578C478.259 131.889 478.641 130.693 479.304 128.539C482.609 117.796 478.609 104.764 479.999 93.6452C480.803 87.2158 481.237 81.7122 484.494 76.1289C487.017 71.803 492.798 67 498.118 67C508.317 67 514.985 79.9584 514.985 89.1039C514.985 119.009 513.317 148.438 513.317 178.354C513.317 189.1 510.459 203 498.5 203C487.575 203 481.28 186.68 474.577 179.605C471.019 175.849 453.281 141.836 449.925 138.085C449.689 136.377 446.693 131.628 445.383 133.312C445.383 139.337 443.315 196.125 440.5 201.5C435.667 210.726 406 209 410.907 175.249C409.354 166.904 410.041 155.465 411.139 147.121C413.115 132.099 411.556 115.976 411.556 100.828Z" stroke="black" stroke-width="3" stroke-linecap="round"/>
<path d="M273 129C273 138.448 273.151 146.664 273.151 156.112C273.151 157.913 273.338 159.287 273.556 161.024C273.748 162.553 273.925 164.949 274.623 166.184C276.006 168.629 279.173 168.404 280.854 166.702C281.808 165.736 283.02 165.455 283.728 164.021C284.47 162.519 284.78 161.407 285.099 159.605C285.488 157.412 285.629 155.393 285.629 153.115C285.629 151.564 285.629 150.013 285.629 148.463C285.629 147.058 285.792 145.857 285.894 144.497C286.123 141.426 285.909 138.16 285.909 135.067C285.909 133.31 285.909 131.552 285.909 129.795" stroke="black" stroke-width="3" stroke-linecap="round"/>
<path d="M273.153 155.783C273.153 146.073 273.002 137.71 273.002 128C273.734 135.277 285.468 131.235 285.97 127.491C285.97 127.313 285.97 127.148 285.97 127C285.993 127.163 285.993 127.327 285.97 127.491C285.98 131.143 286.081 140.837 285.862 143.846C285.761 145.243 285.598 146.478 285.598 147.922V152.703C285.598 155.044 286.25 157.247 285.862 159.5C285.544 161.352 285.24 163.456 284.5 165C283.794 166.474 283 167 281 167.5C279.323 169.249 274.934 168.646 273.555 166.134C272.858 164.865 272.682 162.403 272.491 160.831C272.273 159.046 273.153 157.633 273.153 155.783Z" fill="#AA0000"/>
<path d="M273.002 128C273.002 137.71 273.153 146.073 273.153 155.783C273.153 157.633 272.273 159.046 272.491 160.831C272.682 162.403 272.858 164.865 273.555 166.134C274.934 168.646 279.323 169.249 281 167.5C283 167 283.794 166.474 284.5 165C285.24 163.456 285.544 161.352 285.862 159.5C286.25 157.247 285.598 155.044 285.598 152.703C285.598 151.109 285.598 149.516 285.598 147.922C285.598 146.478 285.761 145.243 285.862 143.846C286.091 140.69 285.97 130.178 285.97 127C286.521 130.857 273.766 135.598 273.002 128Z" stroke="black" stroke-width="3" stroke-linecap="round"/>
<path d="M276.5 140.5C276.5 138.569 275.83 133.624 275.83 131.701C275.83 130.238 276 127.464 276 126C276 125.527 276.499 128.063 276.499 127.59C276.499 127.087 276.499 128.107 276.999 127.59C277.402 128.048 277.799 126.743 278.257 126.743C278.973 126.743 279.522 125.983 280.237 126C281.014 126.019 281.811 126.219 282.577 126.219C282.665 126.219 282.991 123.306 282.998 123.5C283.011 123.868 283.563 122.651 283.5 123C283.255 124.35 282.998 129.593 282.998 131C282.998 132.277 282.677 134.256 282.677 135.533C282.677 136.239 282.809 140.65 282.096 139.918C280.665 138.453 278.77 139.542 277.219 138.67C276.816 138.443 276.384 137.193 276.805 136.647C277.306 135.999 278.003 135.618 278.596 135.326C279.608 134.826 280.647 134.572 281.664 134.138C281.794 134.083 281.933 134.003 281.903 133.724C281.85 133.23 281.31 133.351 281.122 133.395C280.191 133.613 278.882 135.461 277.965 134.315C277.724 134.014 277.46 133.486 277.519 132.932C277.613 132.038 278.364 131.927 278.774 131.921C279.032 131.917 281.949 131.935 281.054 130.355C280.402 129.205 279.067 129.9 278.257 129.661C277.312 129.382 277.629 127.445 278.411 127.145C279.284 126.81 280.392 127.29 281.25 127.59C281.86 127.803 282.008 128.286 281.778 129.289C281.21 131.77 281.072 134.265 281.072 136.928C281.072 137.345 281.05 137.747 281.122 138.146C281.165 138.388 281.157 138.464 281.043 138.28C280.354 137.17 279.413 136.964 278.503 136.964" stroke="#AA0000" stroke-width="3" stroke-linecap="round"/>
<path d="M289.84 143.48C290.227 145.688 290.61 148.373 292.763 149.606C294.439 150.566 297.981 149.952 298.22 147.616C298.308 146.758 297.702 146.475 296.899 146.621C295.937 146.796 295.344 147.544 295.344 148.518C295.344 149.902 296.664 151.293 297.396 152.374C297.779 152.939 298.277 153.975 299.075 153.975" stroke="black" stroke-width="2" stroke-linecap="round"/>
<path d="M268.151 136.484C268.005 137.163 267.455 137.711 267.047 138.241C266.203 139.335 265.589 140.566 264.528 141.482C263.027 142.779 261.123 142.064 260.548 140.285C260.443 139.962 260.382 139.554 260.843 139.586C261.807 139.652 262.609 140.342 262.849 141.273C263.329 143.137 261.858 145.381 260.835 146.8C260.303 147.539 259.658 148.266 258.775 148.518" stroke="black" stroke-width="2" stroke-linecap="round"/>
<defs>
<filter id="filter0_ii_0_1" x="20.7012" y="41.4985" width="93.6006" height="165.018" filterUnits="userSpaceOnUse" color-interpolation-filters="sRGB">
<feFlood flood-opacity="0" result="BackgroundImageFix"/>
<feBlend mode="normal" in="SourceGraphic" in2="BackgroundImageFix" result="shape"/>
<feColorMatrix in="SourceAlpha" type="matrix" values="0 0 0 0 0 0 0 0 0 0 0 0 0 0 0 0 0 0 127 0" result="hardAlpha"/>
<feOffset dx="8" dy="4"/>
<feComposite in2="hardAlpha" operator="arithmetic" k2="-1" k3="1"/>
<feColorMatrix type="matrix" values="0 0 0 0 0.6125 0 0 0 0 1 0 0 0 0 0.721 0 0 0 0.26 0"/>
<feBlend mode="normal" in2="shape" result="effect1_innerShadow_0_1"/>
<feColorMatrix in="SourceAlpha" type="matrix" values="0 0 0 0 0 0 0 0 0 0 0 0 0 0 0 0 0 0 127 0" result="hardAlpha"/>
<feOffset dx="-10" dy="-4"/>
<feComposite in2="hardAlpha" operator="arithmetic" k2="-1" k3="1"/>
<feColorMatrix type="matrix" values="0 0 0 0 0 0 0 0 0 0 0 0 0 0 0 0 0 0 0.25 0"/>
<feBlend mode="normal" in2="effect1_innerShadow_0_1" result="effect2_innerShadow_0_1"/>
</filter>
<filter id="filter1_ii_0_1" x="340.5" y="52.501" width="74" height="153.989" filterUnits="userSpaceOnUse" color-interpolation-filters="sRGB">
<feFlood flood-opacity="0" result="BackgroundImageFix"/>
<feBlend mode="normal" in="SourceGraphic" in2="BackgroundImageFix" result="shape"/>
<feColorMatrix in="SourceAlpha" type="matrix" values="0 0 0 0 0 0 0 0 0 0 0 0 0 0 0 0 0 0 127 0" result="hardAlpha"/>
<feOffset dx="8" dy="4"/>
<feComposite in2="hardAlpha" operator="arithmetic" k2="-1" k3="1"/>
<feColorMatrix type="matrix" values="0 0 0 0 0.6125 0 0 0 0 1 0 0 0 0 0.721 0 0 0 0.26 0"/>
<feBlend mode="normal" in2="shape" result="effect1_innerShadow_0_1"/>
<feColorMatrix in="SourceAlpha" type="matrix" values="0 0 0 0 0 0 0 0 0 0 0 0 0 0 0 0 0 0 127 0" result="hardAlpha"/>
<feOffset dx="-10" dy="-4"/>
<feComposite in2="hardAlpha" operator="arithmetic" k2="-1" k3="1"/>
<feColorMatrix type="matrix" values="0 0 0 0 0 0 0 0 0 0 0 0 0 0 0 0 0 0 0.25 0"/>
<feBlend mode="normal" in2="effect1_innerShadow_0_1" result="effect2_innerShadow_0_1"/>
</filter>
<filter id="filter2_i_0_1" x="321.759" y="25.1321" width="40.2139" height="47.4001" filterUnits="userSpaceOnUse" color-interpolation-filters="sRGB">
<feFlood flood-opacity="0" result="BackgroundImageFix"/>
<feBlend mode="normal" in="SourceGraphic" in2="BackgroundImageFix" result="shape"/>
<feColorMatrix in="SourceAlpha" type="matrix" values="0 0 0 0 0 0 0 0 0 0 0 0 0 0 0 0 0 0 127 0" result="hardAlpha"/>
<feOffset dx="-5" dy="-9"/>
<feComposite in2="hardAlpha" operator="arithmetic" k2="-1" k3="1"/>
<feColorMatrix type="matrix" values="0 0 0 0 0 0 0 0 0 0 0 0 0 0 0 0 0 0 0.25 0"/>
<feBlend mode="normal" in2="shape" result="effect1_innerShadow_0_1"/>
</filter>
<filter id="filter3_i_0_1" x="384.065" y="22.1282" width="40.8047" height="45.395" filterUnits="userSpaceOnUse" color-interpolation-filters="sRGB">
<feFlood flood-opacity="0" result="BackgroundImageFix"/>
<feBlend mode="normal" in="SourceGraphic" in2="BackgroundImageFix" result="shape"/>
<feColorMatrix in="SourceAlpha" type="matrix" values="0 0 0 0 0 0 0 0 0 0 0 0 0 0 0 0 0 0 127 0" result="hardAlpha"/>
<feOffset dx="-1" dy="-7"/>
<feComposite in2="hardAlpha" operator="arithmetic" k2="-1" k3="1"/>
<feColorMatrix type="matrix" values="0 0 0 0 0 0 0 0 0 0 0 0 0 0 0 0 0 0 0.25 0"/>
<feBlend mode="normal" in2="shape" result="effect1_innerShadow_0_1"/>
</filter>
<filter id="filter4_ii_0_1" x="111.497" y="47.5" width="104.003" height="157" filterUnits="userSpaceOnUse" color-interpolation-filters="sRGB">
<feFlood flood-opacity="0" result="BackgroundImageFix"/>
<feBlend mode="normal" in="SourceGraphic" in2="BackgroundImageFix" result="shape"/>
<feColorMatrix in="SourceAlpha" type="matrix" values="0 0 0 0 0 0 0 0 0 0 0 0 0 0 0 0 0 0 127 0" result="hardAlpha"/>
<feOffset dx="8" dy="4"/>
<feComposite in2="hardAlpha" operator="arithmetic" k2="-1" k3="1"/>
<feColorMatrix type="matrix" values="0 0 0 0 0.6125 0 0 0 0 1 0 0 0 0 0.721 0 0 0 0.26 0"/>
<feBlend mode="normal" in2="shape" result="effect1_innerShadow_0_1"/>
<feColorMatrix in="SourceAlpha" type="matrix" values="0 0 0 0 0 0 0 0 0 0 0 0 0 0 0 0 0 0 127 0" result="hardAlpha"/>
<feOffset dx="-10" dy="-4"/>
<feComposite in2="hardAlpha" operator="arithmetic" k2="-1" k3="1"/>
<feColorMatrix type="matrix" values="0 0 0 0 0 0 0 0 0 0 0 0 0 0 0 0 0 0 0.25 0"/>
<feBlend mode="normal" in2="effect1_innerShadow_0_1" result="effect2_innerShadow_0_1"/>
</filter>
<filter id="filter5_ii_0_1" x="514.711" y="50.5" width="104.48" height="153.823" filterUnits="userSpaceOnUse" color-interpolation-filters="sRGB">
<feFlood flood-opacity="0" result="BackgroundImageFix"/>
<feBlend mode="normal" in="SourceGraphic" in2="BackgroundImageFix" result="shape"/>
<feColorMatrix in="SourceAlpha" type="matrix" values="0 0 0 0 0 0 0 0 0 0 0 0 0 0 0 0 0 0 127 0" result="hardAlpha"/>
<feOffset dx="8" dy="4"/>
<feComposite in2="hardAlpha" operator="arithmetic" k2="-1" k3="1"/>
<feColorMatrix type="matrix" values="0 0 0 0 0.6125 0 0 0 0 1 0 0 0 0 0.721 0 0 0 0.26 0"/>
<feBlend mode="normal" in2="shape" result="effect1_innerShadow_0_1"/>
<feColorMatrix in="SourceAlpha" type="matrix" values="0 0 0 0 0 0 0 0 0 0 0 0 0 0 0 0 0 0 127 0" result="hardAlpha"/>
<feOffset dx="-10" dy="-4"/>
<feComposite in2="hardAlpha" operator="arithmetic" k2="-1" k3="1"/>
<feColorMatrix type="matrix" values="0 0 0 0 0 0 0 0 0 0 0 0 0 0 0 0 0 0 0.25 0"/>
<feBlend mode="normal" in2="effect1_innerShadow_0_1" result="effect2_innerShadow_0_1"/>
</filter>
<filter id="filter6_ii_0_1" x="211.5" y="57.5" width="136" height="149" filterUnits="userSpaceOnUse" color-interpolation-filters="sRGB">
<feFlood flood-opacity="0" result="BackgroundImageFix"/>
<feBlend mode="normal" in="SourceGraphic" in2="BackgroundImageFix" result="shape"/>
<feColorMatrix in="SourceAlpha" type="matrix" values="0 0 0 0 0 0 0 0 0 0 0 0 0 0 0 0 0 0 127 0" result="hardAlpha"/>
<feOffset dx="-10" dy="-4"/>
<feComposite in2="hardAlpha" operator="arithmetic" k2="-1" k3="1"/>
<feColorMatrix type="matrix" values="0 0 0 0 0 0 0 0 0 0 0 0 0 0 0 0 0 0 0.25 0"/>
<feBlend mode="normal" in2="shape" result="effect1_innerShadow_0_1"/>
<feColorMatrix in="SourceAlpha" type="matrix" values="0 0 0 0 0 0 0 0 0 0 0 0 0 0 0 0 0 0 127 0" result="hardAlpha"/>
<feOffset dx="8" dy="4"/>
<feComposite in2="hardAlpha" operator="arithmetic" k2="-1" k3="1"/>
<feColorMatrix type="matrix" values="0 0 0 0 0.818667 0 0 0 0 1 0 0 0 0 0.733333 0 0 0 0.25 0"/>
<feBlend mode="normal" in2="effect1_innerShadow_0_1" result="effect2_innerShadow_0_1"/>
</filter>
<filter id="filter7_ii_0_1" x="408.5" y="65.5" width="111.985" height="146.302" filterUnits="userSpaceOnUse" color-interpolation-filters="sRGB">
<feFlood flood-opacity="0" result="BackgroundImageFix"/>
<feBlend mode="normal" in="SourceGraphic" in2="BackgroundImageFix" result="shape"/>
<feColorMatrix in="SourceAlpha" type="matrix" values="0 0 0 0 0 0 0 0 0 0 0 0 0 0 0 0 0 0 127 0" result="hardAlpha"/>
<feOffset dx="-10" dy="-4"/>
<feComposite in2="hardAlpha" operator="arithmetic" k2="-1" k3="1"/>
<feColorMatrix type="matrix" values="0 0 0 0 0 0 0 0 0 0 0 0 0 0 0 0 0 0 0.25 0"/>
<feBlend mode="normal" in2="shape" result="effect1_innerShadow_0_1"/>
<feColorMatrix in="SourceAlpha" type="matrix" values="0 0 0 0 0 0 0 0 0 0 0 0 0 0 0 0 0 0 127 0" result="hardAlpha"/>
<feOffset dx="8" dy="4"/>
<feGaussianBlur stdDeviation="2"/>
<feComposite in2="hardAlpha" operator="arithmetic" k2="-1" k3="1"/>
<feColorMatrix type="matrix" values="0 0 0 0 0.734583 0 0 0 0 1 0 0 0 0 0.729167 0 0 0 0.25 0"/>
<feBlend mode="normal" in2="effect1_innerShadow_0_1" result="effect2_innerShadow_0_1"/>
</filter>
</defs>
</svg>
