<svg width="647" height="239" viewBox="0 0 647 239" fill="none" xmlns="http://www.w3.org/2000/svg">
<g filter="url(#filter0_ii_0_1)">
<path fill-rule="evenodd" clip-rule="evenodd" d="M22.0701 52.7733C21.8699 66.3026 21.6694 79.8635 21.6694 93.419V112.705C21.6694 115.042 21.6217 117.398 21.5738 119.762C21.4584 125.465 21.3421 131.211 21.8925 136.824C22.7924 146.004 22.7035 155.276 22.6148 164.525C22.5883 167.292 22.5618 170.058 22.5618 172.818C22.5618 175.402 22.2657 178.572 21.9497 181.955C21.2497 189.45 20.4524 197.988 22.5624 203.5C27.4779 206.684 67.5094 204.202 71.5 202C74.611 200.283 77.474 197.687 80.249 195.17C81.4078 194.119 82.5514 193.082 83.6911 192.128C93.3904 184.016 101.636 173.664 105.332 161.44C105.96 159.363 106.741 157.338 107.521 155.316C109.017 151.44 110.509 147.572 110.909 143.369C111.545 136.696 111.802 130.219 111.802 123.513C111.802 117.27 110.612 110.97 109.397 104.896C109.015 102.986 108.671 101.045 108.326 99.0939C107.239 92.9599 106.134 86.725 103.77 81.0246C103.382 80.0877 103.012 79.1026 102.636 78.1001C101.351 74.6707 99.9882 71.0375 97.5233 68.4318C94.2049 64.9237 90.7027 61.3812 86.8146 58.5163C79.9973 53.493 73.1554 49.2093 65.1986 46.3449C59.2507 44.2037 52.8108 42.9984 46.4582 42.9984C43.9215 42.9984 37.9774 42.9984 32.3782 44.337C29.4774 45.0305 23.8622 47.9448 22.1156 49.6914C22.1005 50.7185 22.0853 51.7458 22.0701 52.7733ZM46.8273 78.9862C46.8273 88.1537 46.4873 105.948 45.8327 115.102C45.7027 116.919 45.5609 118.728 45.4196 120.532C44.5478 131.656 43.6937 142.553 45.7457 153.712C45.8864 154.477 45.9307 155.224 45.9735 155.946C46.0994 158.072 46.2127 159.983 48.7323 161.506C50.778 162.742 54.9264 161.107 56.3004 159.906C57.4511 158.901 58.6783 157.972 59.9041 157.045C61.552 155.799 63.1974 154.554 64.6513 153.126C65.188 152.599 65.7843 152.118 66.4484 151.583C69.7364 148.932 74.689 144.94 82.3268 127.297C92.5425 95.9534 63.5883 92.5393 53.6482 91.3673C52.0341 91.1769 50.9213 91.0457 50.5591 90.8637C49.573 90.368 47.8946 83.3376 47.1726 80.3133C46.9414 79.345 46.8083 78.7874 46.8273 78.9862Z" fill="#232323"/>
</g>
<path d="M22.0701 52.7733L23.5699 52.7955L23.5699 52.7955L22.0701 52.7733ZM21.5738 119.762L23.0735 119.793L23.0735 119.793L21.5738 119.762ZM21.8925 136.824L20.3996 136.971L20.3996 136.971L21.8925 136.824ZM22.6148 164.525L24.1147 164.539L22.6148 164.525ZM21.9497 181.955L20.4562 181.815L20.4562 181.815L21.9497 181.955ZM22.5624 203.5L21.1615 204.036L21.3364 204.493L21.7469 204.759L22.5624 203.5ZM71.5 202L70.7754 200.687L70.7754 200.687L71.5 202ZM80.249 195.17L79.2412 194.059L79.2412 194.059L80.249 195.17ZM83.6911 192.128L84.6535 193.279L84.6535 193.279L83.6911 192.128ZM105.332 161.44L106.768 161.874L106.768 161.874L105.332 161.44ZM107.521 155.316L106.122 154.776L106.122 154.776L107.521 155.316ZM110.909 143.369L109.416 143.226L109.416 143.226L110.909 143.369ZM109.397 104.896L110.868 104.602L110.868 104.602L109.397 104.896ZM108.326 99.0939L109.802 98.8322L109.802 98.8322L108.326 99.0939ZM103.77 81.0246L105.156 80.45L105.156 80.45L103.77 81.0246ZM102.636 78.1001L101.232 78.6268L101.232 78.6268L102.636 78.1001ZM97.5233 68.4318L96.4336 69.4626L96.4336 69.4626L97.5233 68.4318ZM86.8146 58.5163L85.9248 59.7238L85.9248 59.7238L86.8146 58.5163ZM65.1986 46.3449L65.7067 44.9336L65.7067 44.9336L65.1986 46.3449ZM32.3782 44.337L32.0294 42.8781L32.0294 42.8781L32.3782 44.337ZM22.1156 49.6914L21.0549 48.6308L20.6247 49.061L20.6157 49.6694L22.1156 49.6914ZM45.8327 115.102L44.3365 114.995L45.8327 115.102ZM46.8273 78.9862H48.3273V78.9147L48.3205 78.8436L46.8273 78.9862ZM45.4196 120.532L46.915 120.649L46.915 120.649L45.4196 120.532ZM45.7457 153.712L47.221 153.44L47.221 153.44L45.7457 153.712ZM45.9735 155.946L44.4761 156.035L44.4761 156.035L45.9735 155.946ZM48.7323 161.506L49.5081 160.222L49.5081 160.222L48.7323 161.506ZM56.3004 159.906L55.3133 158.777L55.3133 158.777L56.3004 159.906ZM59.9041 157.045L58.9993 155.849L58.9993 155.849L59.9041 157.045ZM64.6513 153.126L63.6 152.056L63.6 152.056L64.6513 153.126ZM66.4484 151.583L67.3898 152.75L67.3898 152.75L66.4484 151.583ZM82.3268 127.297L83.7034 127.893L83.7312 127.829L83.753 127.762L82.3268 127.297ZM53.6482 91.3673L53.8238 89.8776L53.8238 89.8776L53.6482 91.3673ZM50.5591 90.8637L49.8854 92.2039L49.8854 92.2039L50.5591 90.8637ZM47.1726 80.3133L45.7136 80.6616L45.7136 80.6616L47.1726 80.3133ZM23.1694 93.419C23.1694 79.8764 23.3698 66.3267 23.5699 52.7955L20.5702 52.7511C20.3701 66.2786 20.1694 79.8505 20.1694 93.419H23.1694ZM23.1694 112.705V93.419H20.1694V112.705H23.1694ZM23.0735 119.793C23.1213 117.431 23.1694 115.059 23.1694 112.705H20.1694C20.1694 115.024 20.122 117.365 20.0741 119.732L23.0735 119.793ZM23.3853 136.678C22.8451 131.168 22.9578 125.511 23.0735 119.793L20.0741 119.732C19.959 125.419 19.8391 131.254 20.3996 136.971L23.3853 136.678ZM24.1147 164.539C24.2033 155.304 24.2944 145.951 23.3853 136.678L20.3996 136.971C21.2904 146.057 21.2037 155.248 21.1149 164.51L24.1147 164.539ZM24.0618 172.818C24.0618 170.066 24.0882 167.308 24.1147 164.539L21.1149 164.51C21.0884 167.277 21.0618 170.049 21.0618 172.818H24.0618ZM23.4432 182.094C23.757 178.735 24.0618 175.487 24.0618 172.818H21.0618C21.0618 175.317 20.7743 178.409 20.4562 181.815L23.4432 182.094ZM23.9632 202.964C23.0094 200.472 22.6795 197.184 22.7023 193.48C22.7249 189.797 23.092 185.855 23.4432 182.094L20.4562 181.815C20.1075 185.55 19.7259 189.624 19.7023 193.462C19.6789 197.278 20.0054 201.016 21.1615 204.036L23.9632 202.964ZM70.7754 200.687C70.6898 200.734 70.4428 200.835 69.9566 200.966C69.4965 201.09 68.9028 201.22 68.1827 201.352C66.7441 201.615 64.8716 201.876 62.694 202.12C58.3427 202.608 52.8452 203.023 47.311 203.271C41.7742 203.519 36.2305 203.598 31.7815 203.42C29.5543 203.33 27.6308 203.178 26.1322 202.956C24.5501 202.722 23.6889 202.442 23.3778 202.241L21.7469 204.759C22.6648 205.353 24.1298 205.693 25.6934 205.924C27.3405 206.167 29.382 206.326 31.6614 206.417C36.2255 206.6 41.8608 206.518 47.4451 206.268C53.0321 206.018 58.5979 205.599 63.0284 205.101C65.2418 204.853 67.1899 204.584 68.7235 204.302C69.4895 204.162 70.1698 204.016 70.7369 203.863C71.278 203.717 71.8114 203.541 72.2246 203.313L70.7754 200.687ZM79.2412 194.059C76.4367 196.602 73.7046 199.07 70.7754 200.687L72.2246 203.313C75.5173 201.497 78.5113 198.771 81.2567 196.281L79.2412 194.059ZM82.7288 190.978C81.5618 191.954 80.3957 193.012 79.2412 194.059L81.2567 196.281C82.42 195.226 83.5409 194.209 84.6535 193.279L82.7288 190.978ZM103.896 161.006C100.31 172.866 92.2821 182.988 82.7288 190.978L84.6535 193.279C94.4987 185.045 102.962 174.462 106.768 161.874L103.896 161.006ZM106.122 154.776C105.345 156.79 104.543 158.867 103.896 161.006L106.768 161.874C107.376 159.86 108.137 157.887 108.921 155.856L106.122 154.776ZM109.416 143.226C109.038 147.191 107.629 150.868 106.122 154.776L108.921 155.856C110.404 152.011 111.979 147.953 112.403 143.511L109.416 143.226ZM110.302 123.513C110.302 130.179 110.046 136.608 109.416 143.226L112.403 143.511C113.043 136.783 113.302 130.258 113.302 123.513H110.302ZM107.926 105.19C109.143 111.275 110.302 117.438 110.302 123.513H113.302C113.302 117.102 112.081 110.665 110.868 104.602L107.926 105.19ZM106.849 99.3557C107.194 101.304 107.54 103.261 107.926 105.19L110.868 104.602C110.49 102.711 110.149 100.786 109.802 98.8322L106.849 99.3557ZM102.385 81.5991C104.675 87.1221 105.756 93.1914 106.849 99.3557L109.802 98.8322C108.721 92.7284 107.593 86.328 105.156 80.45L102.385 81.5991ZM101.232 78.6268C101.606 79.6245 101.984 80.6342 102.385 81.5991L105.156 80.45C104.779 79.5411 104.419 78.5808 104.041 77.5735L101.232 78.6268ZM96.4336 69.4626C98.6521 71.8078 99.9215 75.132 101.232 78.6268L104.041 77.5735C102.78 74.2094 101.324 70.2671 98.613 67.401L96.4336 69.4626ZM85.9248 59.7238C89.6966 62.5031 93.1204 65.96 96.4336 69.4626L98.613 67.401C95.2893 63.8874 91.7088 60.2593 87.7044 57.3087L85.9248 59.7238ZM64.6905 47.7562C72.4538 50.551 79.1625 54.7411 85.9248 59.7238L87.7044 57.3087C80.8321 52.2449 73.8569 47.8677 65.7067 44.9336L64.6905 47.7562ZM46.4582 44.4984C52.6255 44.4984 58.8938 45.6694 64.6905 47.7562L65.7067 44.9336C59.6076 42.7379 52.9961 41.4984 46.4582 41.4984V44.4984ZM32.7269 45.7959C38.1341 44.5032 43.9153 44.4984 46.4582 44.4984V41.4984C43.9277 41.4984 37.8206 41.4936 32.0294 42.8781L32.7269 45.7959ZM23.1762 50.7521C23.8743 50.054 25.5347 48.9767 27.5069 47.9497C29.4541 46.9356 31.455 46.1 32.7269 45.7959L32.0294 42.8781C30.4006 43.2675 28.1434 44.2358 26.1212 45.2889C24.124 46.329 22.1035 47.5822 21.0549 48.6308L23.1762 50.7521ZM23.5699 52.7955C23.5851 51.768 23.6003 50.7406 23.6154 49.7135L20.6157 49.6694C20.6006 50.6964 20.5854 51.7236 20.5702 52.7511L23.5699 52.7955ZM47.3289 115.209C47.9873 106.001 48.3273 88.1641 48.3273 78.9862H45.3273C45.3273 88.1432 44.9872 105.895 44.3365 114.995L47.3289 115.209ZM46.915 120.649C47.0563 118.846 47.1985 117.032 47.3289 115.209L44.3365 114.995C44.207 116.806 44.0656 118.61 43.9242 120.415L46.915 120.649ZM47.221 153.44C45.2101 142.505 46.0408 131.803 46.915 120.649L43.9242 120.415C43.0547 131.509 42.1773 142.601 44.2704 153.983L47.221 153.44ZM47.4708 155.858C47.4287 155.147 47.3809 154.31 47.221 153.44L44.2704 153.983C44.3919 154.643 44.4326 155.301 44.4761 156.035L47.4708 155.858ZM49.5081 160.222C48.5088 159.618 48.0849 159.011 47.8553 158.414C47.5944 157.735 47.5365 156.967 47.4708 155.858L44.4761 156.035C44.5363 157.052 44.5981 158.302 45.0552 159.49C45.5436 160.761 46.4361 161.871 47.9566 162.79L49.5081 160.222ZM55.3133 158.777C54.8468 159.185 53.6924 159.809 52.3691 160.174C51.7276 160.351 51.114 160.448 50.5885 160.446C50.0533 160.445 49.708 160.343 49.5081 160.222L47.9566 162.79C48.7794 163.287 49.7199 163.444 50.5807 163.446C51.4514 163.448 52.3443 163.293 53.1673 163.066C54.7731 162.623 56.3799 161.829 57.2875 161.036L55.3133 158.777ZM58.9993 155.849C57.7807 156.771 56.5107 157.73 55.3133 158.777L57.2875 161.036C58.3915 160.071 59.5759 159.174 60.809 158.242L58.9993 155.849ZM63.6 152.056C62.227 153.405 60.6609 154.592 58.9993 155.849L60.809 158.242C62.4431 157.006 64.1678 155.704 65.7026 154.196L63.6 152.056ZM65.507 150.415C64.8548 150.941 64.1988 151.468 63.6 152.056L65.7026 154.196C66.1773 153.73 66.7137 153.295 67.3898 152.75L65.507 150.415ZM80.9503 126.701C77.1592 135.458 74.0639 140.758 71.5488 144.172C69.0558 147.556 67.1092 149.123 65.507 150.415L67.3898 152.75C69.0756 151.391 71.2493 149.637 73.9641 145.952C76.6568 142.296 79.8567 136.779 83.7034 127.893L80.9503 126.701ZM53.4725 92.857C58.4962 93.4493 67.8466 94.578 74.7002 99.2567C78.0784 101.563 80.8021 104.703 82.1174 109.058C83.4378 113.431 83.3893 119.197 80.9007 126.832L83.753 127.762C86.3722 119.726 86.5353 113.311 84.9893 108.191C83.4382 103.055 80.2176 99.3909 76.3916 96.779C68.837 91.6217 58.7402 90.4573 53.8238 89.8776L53.4725 92.857ZM49.8854 92.2039C50.1456 92.3347 50.4301 92.4087 50.6362 92.4553C50.8678 92.5078 51.1319 92.5535 51.4101 92.5955C51.9651 92.6794 52.675 92.7629 53.4725 92.857L53.8238 89.8776C53.0072 89.7813 52.3537 89.7041 51.8583 89.6292C51.6113 89.5919 51.4283 89.5588 51.299 89.5295C51.1441 89.4944 51.1537 89.4837 51.2328 89.5235L49.8854 92.2039ZM45.7136 80.6616C46.0734 82.1687 46.6812 84.7157 47.3255 86.952C47.6463 88.0657 47.9868 89.1401 48.3208 89.9836C48.4864 90.4018 48.6667 90.8052 48.8608 91.1416C48.958 91.31 49.0758 91.492 49.2172 91.6606C49.3473 91.8157 49.5661 92.0433 49.8854 92.2039L51.2328 89.5235C51.3387 89.5767 51.4104 89.6329 51.449 89.6665C51.4887 89.701 51.5105 89.7265 51.5158 89.7329C51.5239 89.7425 51.5039 89.7197 51.4594 89.6425C51.3701 89.4878 51.2518 89.237 51.1101 88.8791C50.8296 88.1705 50.5204 87.2053 50.2082 86.1215C49.5862 83.9625 48.9938 81.4822 48.6316 79.9649L45.7136 80.6616ZM48.3205 78.8436C48.3206 78.845 48.3254 78.8908 48.3255 78.9551C48.3255 78.9815 48.3254 79.066 48.3091 79.1741C48.3011 79.2268 48.2824 79.3333 48.2357 79.4614C48.1996 79.5604 48.0844 79.8531 47.7835 80.102C47.3863 80.4307 46.8561 80.5273 46.3786 80.3773C46.0166 80.2636 45.8029 80.0457 45.7328 79.9706C45.5773 79.8041 45.4996 79.6406 45.4891 79.6196C45.4443 79.5295 45.4208 79.4572 45.4207 79.4566C45.4113 79.429 45.4188 79.4494 45.4522 79.5812C45.5087 79.8036 45.5966 80.1717 45.7136 80.6616L48.6316 79.9649C48.5174 79.4866 48.4232 79.0917 48.36 78.843C48.3337 78.7392 48.297 78.5969 48.2608 78.4904C48.2539 78.4701 48.2248 78.3833 48.1755 78.2841C48.1627 78.2585 48.083 78.0919 47.9258 77.9235C47.8549 77.8475 47.6404 77.6291 47.2777 77.5152C46.7995 77.365 46.2686 77.4617 45.8709 77.7908C45.5694 78.0402 45.4537 78.3337 45.4172 78.4339C45.37 78.5632 45.351 78.6712 45.3428 78.7258C45.3259 78.8376 45.3254 78.9272 45.3255 78.9602C45.3256 79.0377 45.3316 79.1024 45.3341 79.1288L48.3205 78.8436Z" fill="black"/>
<g filter="url(#filter1_ii_0_1)">
<path d="M362.373 156.595C362.373 131.078 363.124 105.272 361.502 79.8994C359.504 82.3552 355.013 82.7833 353.685 82.7833C350.196 82.7833 346.438 82.9497 344.278 79.8994C341.795 76.3941 339.63 68.9864 342.068 64.9613C344.753 60.5313 350.602 57.878 356.018 57.0304C369.448 54.9287 384.634 52.4857 398.116 55.2054C400.687 55.7239 405.712 56.9052 405.712 59.8918C405.712 63.807 404.002 65.7053 401.244 68.5663C399.734 70.1321 397.625 71.5539 395.436 72.2163C394.229 72.5814 391.467 72.9293 390.521 73.6808C388.694 75.1317 387.84 80.1756 387.84 82.3552C387.84 92.0489 389.062 101.536 389.652 111.172C389.652 119.471 391.861 152.96 391.861 161.259V169.956C391.861 171.388 392.294 170.215 393.648 169.776C396.481 168.857 399.976 167.96 402.979 167.96C410.279 168.867 412.292 180.426 411.967 186.334C411.893 187.686 410.7 189.457 410.279 190.795C409.893 192.022 408.793 193.708 407.598 194.445C403.54 196.95 399.258 198.87 394.691 200.529C384.528 204.219 373.647 204.99 362.82 204.99C356.252 204.99 340.309 200.68 343.955 190.752C346.368 184.181 353.649 180.558 360.238 178.405C362.888 177.539 362.373 172.407 362.373 170.384V156.595Z" fill="#232323"/>
</g>
<path d="M361.479 79.5389C363.131 105.027 362.373 130.957 362.373 156.595C362.373 161.191 362.373 165.788 362.373 170.384C362.373 172.407 362.888 177.539 360.238 178.405C353.649 180.558 346.368 184.181 343.955 190.752C340.309 200.68 356.252 204.99 362.82 204.99C373.647 204.99 384.528 204.219 394.691 200.529C399.258 198.87 403.54 196.95 407.598 194.445C408.793 193.708 409.893 192.022 410.279 190.795C410.7 189.457 411.892 187.686 411.967 186.334C412.292 180.426 410.279 168.867 402.979 167.96C399.976 167.96 396.481 168.857 393.648 169.776C392.294 170.215 391.861 171.388 391.861 169.956C391.861 167.057 391.861 164.158 391.861 161.259C391.861 152.96 389.652 119.471 389.652 111.172C389.062 101.536 387.84 92.0489 387.84 82.3552C387.84 80.1756 388.694 75.1317 390.521 73.6808C391.467 72.9293 394.229 72.5814 395.436 72.2163C397.625 71.5539 399.734 70.1321 401.244 68.5663C404.002 65.7053 405.712 63.807 405.712 59.8918C405.712 56.9052 400.687 55.7239 398.116 55.2054C384.634 52.4857 369.448 54.9287 356.018 57.0304C350.602 57.878 344.753 60.5313 342.068 64.9613C339.63 68.9864 341.795 76.3941 344.278 79.8994C346.438 82.9497 350.196 82.7833 353.685 82.7833C355.013 82.7833 359.504 82.3552 361.502 79.8994" stroke="black" stroke-width="3" stroke-linecap="round"/>
<g filter="url(#filter2_i_0_1)">
<path d="M354.355 60.7825C355.992 61.3085 358.521 62.4188 359.301 63.8968C360.08 65.3749 357.46 69.4444 356.337 70.0937C355.041 70.8429 353.455 71.3602 351.921 70.8672L343.021 68.0072C336.873 66.0314 331.931 62.4816 326.464 59.3502C325.752 58.9424 325.112 58.4524 324.391 58.0592C323.986 57.8384 323.452 57.8103 323.106 57.5087C321.955 56.504 322.275 56.1211 322.542 54.8489C323.297 51.2446 325.287 47.8625 326.631 44.4276C328.084 40.7145 330.408 37.0695 332.572 33.6795C333.961 31.5021 335.273 29.3511 336.206 26.9672C336.938 25.0954 335.703 30.9475 334.971 32.8193C334.095 35.0572 333.57 37.5971 333.235 39.9509C333.097 40.9179 332.711 41.7864 332.651 42.7607C332.583 43.8446 332.242 45.0929 331.874 46.1229C331.038 48.4602 330.531 53.2262 333.803 54.3688C336.865 55.4376 340.008 56.4527 343.19 57.1523C347.052 58.0012 350.65 59.5919 354.355 60.7825Z" fill="#C9CB8D"/>
</g>
<path d="M354.355 60.7825C355.992 61.3085 358.521 62.4188 359.301 63.8968C360.08 65.3749 357.46 69.4444 356.337 70.0937C355.041 70.8429 353.455 71.3602 351.921 70.8672L343.021 68.0072C336.873 66.0314 331.931 62.4816 326.464 59.3502C325.752 58.9424 325.112 58.4524 324.391 58.0592C323.986 57.8384 323.452 57.8103 323.106 57.5087C321.955 56.504 322.275 56.1211 322.542 54.8489C323.297 51.2446 325.287 47.8625 326.631 44.4276C328.084 40.7145 330.408 37.0695 332.572 33.6795C333.961 31.5021 335.273 29.3511 336.206 26.9672C336.938 25.0954 335.703 30.9475 334.971 32.8193C334.095 35.0572 333.57 37.5971 333.235 39.9509C333.097 40.9179 332.711 41.7864 332.651 42.7607C332.583 43.8446 332.242 45.0929 331.874 46.1229C331.038 48.4602 330.531 53.2262 333.803 54.3688C336.865 55.4376 340.008 56.4527 343.19 57.1523C347.052 58.0012 350.65 59.5919 354.355 60.7825Z" stroke="black" stroke-width="3" stroke-linecap="round"/>
<g filter="url(#filter3_i_0_1)">
<path d="M390.072 55.7329C388.391 56.0976 385.759 56.9557 384.816 58.3444C383.873 59.733 385.994 64.0103 387.031 64.7599C388.227 65.6248 389.736 66.2878 391.312 65.9459L400.452 63.9627C406.767 62.5927 412.07 59.5499 417.843 56.9711C418.595 56.6353 419.286 56.2113 420.045 55.8907C420.471 55.7107 421.003 55.7337 421.38 55.4682C422.636 54.5834 422.363 54.174 422.247 52.8894C421.917 49.2501 420.34 45.7132 419.408 42.1856C418.4 38.3722 416.523 34.5433 414.775 30.9821C413.652 28.6947 412.603 26.4408 411.956 23.9926C411.448 22.0703 411.992 27.98 412.5 29.9023C413.107 32.2006 413.333 34.7645 413.391 37.1261C413.415 38.0962 413.696 38.9925 413.643 39.9626C413.584 41.0418 413.777 42.3098 414.022 43.3643C414.578 45.7572 414.528 50.5227 411.157 51.3419C408.003 52.1082 404.774 52.8137 401.543 53.203C397.622 53.6755 393.877 54.9073 390.072 55.7329Z" fill="#C9CB8D"/>
</g>
<path d="M390.072 55.7329C388.391 56.0976 385.759 56.9557 384.816 58.3444C383.873 59.733 385.994 64.0103 387.031 64.7599C388.227 65.6248 389.736 66.2878 391.312 65.9459L400.452 63.9627C406.767 62.5927 412.07 59.5499 417.843 56.9711C418.595 56.6353 419.286 56.2113 420.045 55.8907C420.471 55.7107 421.003 55.7337 421.38 55.4682C422.636 54.5834 422.363 54.174 422.247 52.8894C421.917 49.2501 420.34 45.7132 419.408 42.1856C418.4 38.3722 416.523 34.5433 414.775 30.9821C413.652 28.6947 412.603 26.4408 411.956 23.9926C411.448 22.0703 411.992 27.98 412.5 29.9023C413.107 32.2006 413.333 34.7645 413.391 37.1261C413.415 38.0962 413.696 38.9925 413.643 39.9626C413.584 41.0418 413.777 42.3098 414.022 43.3643C414.578 45.7572 414.528 50.5227 411.157 51.3419C408.003 52.1082 404.774 52.8137 401.543 53.203C397.622 53.6755 393.877 54.9073 390.072 55.7329Z" stroke="black" stroke-width="3" stroke-linecap="round"/>
<g filter="url(#filter4_ii_0_1)">
<path fill-rule="evenodd" clip-rule="evenodd" d="M146.351 202.239C138.145 200.15 114.034 194.014 112 114.21C112.053 113.906 112.106 113.599 112.159 113.289C112.625 110.569 113.122 107.67 114.16 105.152C114.931 103.281 115.617 101.398 116.298 99.5245C117.896 95.1321 119.476 90.7912 122.108 86.7714C122.937 85.5065 123.759 84.2327 124.582 82.957C127.236 78.8456 129.902 74.7157 132.821 70.8092C133.522 69.8715 134.226 68.8623 134.945 67.8316C137.029 64.8446 139.239 61.6779 141.849 59.5522C144.721 56.1474 153.658 49.9604 156.234 49.3504C158.36 48.8472 160.202 48.9893 162.215 49.1446C162.768 49.1873 163.335 49.231 163.923 49.2625C172.305 48.4895 192.026 66.2466 194.939 70.6333C195.683 71.754 196.444 72.8271 197.199 73.8929C198.644 75.9333 200.071 77.9474 201.332 80.2194C201.989 81.4014 202.386 82.8257 202.768 84.1938C202.907 84.6915 203.044 85.1817 203.19 85.6501C203.592 86.9372 204.036 88.2193 204.481 89.5032C205.301 91.8707 206.123 94.2441 206.689 96.6653C207.06 98.25 207.373 99.9177 207.69 101.608C208.386 105.316 209.102 109.13 210.49 112.408C212.062 116.12 212.349 120.895 212.607 125.202C212.674 126.313 212.739 127.392 212.823 128.414C213.303 134.228 212.726 139.987 212.045 145.739C211.726 148.437 210.933 151.186 210.166 153.786C209.877 154.769 209.684 155.808 209.491 156.85C209.194 158.45 208.896 160.057 208.244 161.481C207.051 164.089 206.032 166.744 205.013 169.399C204.064 171.873 203.114 174.347 202.024 176.784C198.491 184.674 194.757 192.66 188.719 198.946C184.005 203.854 161.272 203.18 147.681 202.596C147.304 202.481 146.858 202.368 146.351 202.239ZM154.43 158.996C152.679 156.86 151.054 154.433 149.564 152.106C147.228 148.456 145.88 144.404 144.522 140.324C143.648 137.697 142.77 135.059 141.622 132.507C137.471 123.284 137.621 116.007 141.121 105.551C144.621 99.0071 150.528 94.6724 157.768 94.2466C165.563 93.788 171.73 99.6849 175.92 105.551C177.122 107.234 198.122 142.007 168.061 158.738C166.417 160.524 156.122 163.007 154.43 158.996Z" fill="#232323"/>
</g>
<path d="M112 114.21L110.522 113.953L110.497 114.1L110.5 114.249L112 114.21ZM146.351 202.239L146.721 200.785L146.721 200.785L146.351 202.239ZM112.159 113.289L110.68 113.036L110.68 113.036L112.159 113.289ZM114.16 105.152L112.773 104.58L112.773 104.58L114.16 105.152ZM116.298 99.5245L117.708 100.037L116.298 99.5245ZM122.108 86.7714L120.853 85.9496L120.853 85.9496L122.108 86.7714ZM124.582 82.957L125.843 83.7705L125.843 83.7705L124.582 82.957ZM132.821 70.8092L134.023 71.707L134.023 71.707L132.821 70.8092ZM134.945 67.8316L133.715 66.9733L133.715 66.9733L134.945 67.8316ZM141.849 59.5522L142.797 60.7153L142.906 60.6266L142.996 60.5192L141.849 59.5522ZM156.234 49.3504L155.889 47.8908L155.889 47.8908L156.234 49.3504ZM162.215 49.1446L162.099 50.6401L162.099 50.6401L162.215 49.1446ZM163.923 49.2625L163.843 50.7604L163.952 50.7662L164.061 50.7562L163.923 49.2625ZM194.939 70.6333L193.69 71.4632L193.69 71.4632L194.939 70.6333ZM197.199 73.8929L195.975 74.76L195.975 74.76L197.199 73.8929ZM201.332 80.2194L200.021 80.9476L200.021 80.9476L201.332 80.2194ZM202.768 84.1938L204.213 83.7907L204.213 83.7907L202.768 84.1938ZM203.19 85.6501L201.758 86.0976L201.758 86.0976L203.19 85.6501ZM204.481 89.5032L203.063 89.9941L203.063 89.9941L204.481 89.5032ZM206.689 96.6653L205.228 97.0069L205.228 97.0069L206.689 96.6653ZM207.69 101.608L206.216 101.884L206.216 101.884L207.69 101.608ZM210.49 112.408L209.109 112.992L209.109 112.992L210.49 112.408ZM212.607 125.202L214.104 125.113L214.104 125.113L212.607 125.202ZM212.823 128.414L211.328 128.537L211.328 128.537L212.823 128.414ZM212.045 145.739L213.535 145.915L213.535 145.915L212.045 145.739ZM210.166 153.786L208.728 153.362L208.728 153.362L210.166 153.786ZM209.491 156.85L208.016 156.577L208.016 156.577L209.491 156.85ZM208.244 161.481L206.88 160.857L206.88 160.857L208.244 161.481ZM205.013 169.399L203.613 168.861L203.613 168.861L205.013 169.399ZM202.024 176.784L203.393 177.397L203.393 177.397L202.024 176.784ZM188.719 198.946L189.801 199.985L189.801 199.985L188.719 198.946ZM147.681 202.596L147.245 204.031L147.427 204.086L147.617 204.095L147.681 202.596ZM149.564 152.106L148.3 152.914L148.3 152.914L149.564 152.106ZM154.43 158.996L155.812 158.413L155.728 158.213L155.59 158.045L154.43 158.996ZM144.522 140.324L143.099 140.798L143.099 140.798L144.522 140.324ZM141.622 132.507L140.254 133.123L140.254 133.123L141.622 132.507ZM141.121 105.551L139.798 104.844L139.739 104.955L139.699 105.075L141.121 105.551ZM157.768 94.2466L157.856 95.744L157.768 94.2466ZM175.92 105.551L174.699 106.423L174.699 106.423L175.92 105.551ZM168.061 158.738L167.331 157.427L167.12 157.544L166.957 157.722L168.061 158.738ZM110.5 114.249C111.52 154.258 118.073 176.057 125.587 188.159C129.357 194.231 133.367 197.859 137.023 200.104C140.673 202.345 143.906 203.164 145.981 203.692L146.721 200.785C144.694 200.269 141.835 199.538 138.593 197.547C135.357 195.561 131.674 192.275 128.136 186.577C121.034 175.137 114.514 153.966 113.5 114.172L110.5 114.249ZM110.68 113.036C110.627 113.346 110.575 113.651 110.522 113.953L113.478 114.468C113.531 114.161 113.584 113.852 113.637 113.543L110.68 113.036ZM112.773 104.58C111.66 107.28 111.14 110.351 110.68 113.036L113.637 113.543C114.109 110.788 114.583 108.06 115.547 105.724L112.773 104.58ZM114.889 99.0117C114.205 100.89 113.531 102.743 112.773 104.58L115.547 105.724C116.332 103.819 117.028 101.906 117.708 100.037L114.889 99.0117ZM120.853 85.9496C118.11 90.1379 116.478 94.6432 114.889 99.0117L117.708 100.037C119.315 95.6211 120.841 91.4445 123.363 87.5932L120.853 85.9496ZM123.322 82.1435C122.498 83.4198 121.679 84.6895 120.853 85.9496L123.363 87.5932C124.195 86.3235 125.02 85.0455 125.843 83.7705L123.322 82.1435ZM131.62 69.9114C128.665 73.8659 125.971 78.0395 123.322 82.1435L125.843 83.7705C128.502 79.6517 131.14 75.5654 134.023 71.707L131.62 69.9114ZM133.715 66.9733C132.993 68.0081 132.303 68.9967 131.62 69.9114L134.023 71.707C134.741 70.7463 135.459 69.7165 136.175 68.69L133.715 66.9733ZM140.902 58.389C138.097 60.6732 135.768 64.0316 133.715 66.9733L136.175 68.69C138.291 65.6577 140.381 62.6826 142.797 60.7153L140.902 58.389ZM155.889 47.8908C155.006 48.0998 153.792 48.7089 152.553 49.4241C151.261 50.1704 149.774 51.1328 148.29 52.176C145.36 54.2351 142.271 56.7253 140.703 58.5851L142.996 60.5192C144.299 58.9743 147.115 56.6687 150.015 54.6305C151.445 53.6252 152.856 52.7136 154.054 52.022C155.305 51.2991 156.174 50.9061 156.58 50.8101L155.889 47.8908ZM162.33 47.649C160.334 47.4951 158.272 47.3267 155.889 47.8908L156.58 50.8101C158.448 50.3678 160.069 50.4836 162.099 50.6401L162.33 47.649ZM164.004 47.7646C163.435 47.7342 162.886 47.6919 162.33 47.649L162.099 50.6401C162.651 50.6826 163.234 50.7277 163.843 50.7604L164.004 47.7646ZM196.189 69.8035C195.357 68.5508 193.464 66.516 191.076 64.2472C188.651 61.944 185.612 59.3036 182.398 56.8252C179.19 54.3511 175.773 52.0117 172.597 50.3326C169.494 48.6924 166.351 47.5323 163.786 47.7688L164.061 50.7562C165.687 50.6062 168.151 51.3758 171.195 52.9848C174.165 54.5547 177.432 56.7839 180.566 59.2008C183.694 61.6134 186.655 64.1864 189.01 66.4224C191.4 68.6926 193.065 70.5224 193.69 71.4632L196.189 69.8035ZM198.423 73.0259C197.666 71.9573 196.919 70.9023 196.189 69.8035L193.69 71.4632C194.448 72.6057 195.222 73.6969 195.975 74.76L198.423 73.0259ZM202.644 79.4913C201.336 77.1362 199.862 75.0573 198.423 73.0259L195.975 74.76C197.426 76.8092 198.806 78.7585 200.021 80.9476L202.644 79.4913ZM204.213 83.7907C203.842 82.4617 203.402 80.8565 202.644 79.4913L200.021 80.9476C200.576 81.9462 200.93 83.1896 201.323 84.597L204.213 83.7907ZM204.622 85.2026C204.483 84.7602 204.353 84.2927 204.213 83.7907L201.323 84.597C201.461 85.0902 201.604 85.6032 201.758 86.0976L204.622 85.2026ZM205.898 89.0124C205.452 87.7248 205.016 86.4642 204.622 85.2026L201.758 86.0976C202.168 87.4101 202.62 88.7139 203.063 89.9941L205.898 89.0124ZM208.15 96.3237C207.562 93.8139 206.714 91.367 205.898 89.0124L203.063 89.9941C203.888 92.3744 204.683 94.6742 205.228 97.0069L208.15 96.3237ZM209.164 101.331C208.848 99.6474 208.529 97.9464 208.15 96.3237L205.228 97.0069C205.59 98.5536 205.897 100.188 206.216 101.884L209.164 101.331ZM211.872 111.823C210.559 108.722 209.867 105.075 209.164 101.331L206.216 101.884C206.905 105.556 207.646 109.538 209.109 112.992L211.872 111.823ZM214.104 125.113C213.85 120.878 213.564 115.82 211.872 111.823L209.109 112.992C210.56 116.42 210.847 120.913 211.11 125.292L214.104 125.113ZM214.318 128.29C214.235 127.288 214.171 126.227 214.104 125.113L211.11 125.292C211.176 126.399 211.242 127.496 211.328 128.537L214.318 128.29ZM213.535 145.915C214.216 140.162 214.812 134.269 214.318 128.29L211.328 128.537C211.795 134.186 211.237 139.811 210.556 145.563L213.535 145.915ZM211.605 154.21C212.367 151.626 213.198 148.759 213.535 145.915L210.556 145.563C210.254 148.116 209.498 150.746 208.728 153.362L211.605 154.21ZM210.965 157.124C211.162 156.067 211.341 155.105 211.605 154.21L208.728 153.362C208.412 154.432 208.206 155.549 208.016 156.577L210.965 157.124ZM209.608 162.105C210.35 160.483 210.676 158.686 210.965 157.124L208.016 156.577C207.712 158.213 207.441 159.631 206.88 160.857L209.608 162.105ZM206.414 169.936C207.435 167.274 208.438 164.663 209.608 162.105L206.88 160.857C205.664 163.515 204.629 166.213 203.613 168.861L206.414 169.936ZM203.393 177.397C204.503 174.917 205.467 172.404 206.414 169.936L203.613 168.861C202.661 171.342 201.726 173.778 200.655 176.171L203.393 177.397ZM189.801 199.985C196.043 193.486 199.87 185.266 203.393 177.397L200.655 176.171C197.113 184.082 193.47 191.835 187.637 197.907L189.801 199.985ZM147.617 204.095C154.412 204.387 163.553 204.704 171.599 204.329C175.618 204.141 179.415 203.779 182.531 203.138C184.09 202.818 185.515 202.421 186.728 201.924C187.928 201.433 189.01 200.808 189.801 199.985L187.637 197.907C187.249 198.311 186.589 198.739 185.591 199.148C184.606 199.551 183.375 199.902 181.927 200.2C179.031 200.795 175.411 201.148 171.459 201.332C163.562 201.701 154.541 201.389 147.746 201.097L147.617 204.095ZM145.981 203.692C146.499 203.824 146.908 203.929 147.245 204.031L148.118 201.161C147.701 201.034 147.218 200.912 146.721 200.785L145.981 203.692ZM148.3 152.914C149.797 155.253 151.462 157.74 153.27 159.947L155.59 158.045C153.897 155.979 152.31 153.613 150.827 151.297L148.3 152.914ZM143.099 140.798C144.447 144.849 145.847 149.081 148.3 152.914L150.827 151.297C148.609 147.831 147.313 143.96 145.945 139.85L143.099 140.798ZM140.254 133.123C141.365 135.593 142.221 138.159 143.099 140.798L145.945 139.85C145.075 137.235 144.174 134.524 142.99 131.892L140.254 133.123ZM139.699 105.075C137.919 110.391 136.956 114.999 137.002 119.507C137.049 124.03 138.11 128.36 140.254 133.123L142.99 131.892C140.982 127.431 140.044 123.51 140.002 119.476C139.961 115.425 140.823 111.168 142.543 106.027L139.699 105.075ZM157.68 92.7491C149.837 93.2105 143.503 97.9169 139.798 104.844L142.444 106.259C145.739 100.097 151.219 96.1344 157.856 95.744L157.68 92.7491ZM177.141 104.679C172.909 98.7559 166.316 92.2411 157.68 92.7491L157.856 95.744C164.811 95.3349 170.55 100.614 174.699 106.423L177.141 104.679ZM168.79 160.048C176.584 155.711 181.157 150.144 183.534 144.159C185.9 138.203 186.045 131.951 185.197 126.28C183.51 114.987 177.837 105.654 177.141 104.679L174.699 106.423C175.205 107.131 180.632 116.026 182.23 126.723C183.026 132.047 182.859 137.73 180.746 143.052C178.643 148.346 174.568 153.4 167.331 157.427L168.79 160.048ZM153.048 159.579C153.731 161.197 155.224 161.995 156.683 162.355C158.151 162.718 159.845 162.713 161.434 162.531C163.039 162.347 164.64 161.97 165.964 161.514C166.627 161.286 167.243 161.03 167.767 160.756C168.266 160.495 168.786 160.165 169.164 159.753L166.957 157.722C166.957 157.722 166.956 157.722 166.956 157.723C166.956 157.723 166.955 157.724 166.954 157.725C166.952 157.727 166.95 157.729 166.946 157.732C166.94 157.739 166.93 157.748 166.916 157.759C166.889 157.782 166.851 157.812 166.8 157.847C166.696 157.919 166.557 158.003 166.378 158.097C166.018 158.285 165.547 158.484 164.987 158.677C163.866 159.064 162.479 159.392 161.093 159.551C159.691 159.711 158.391 159.687 157.402 159.443C156.404 159.196 155.976 158.8 155.812 158.413L153.048 159.579Z" fill="black"/>
<g filter="url(#filter5_ii_0_1)">
<path fill-rule="evenodd" clip-rule="evenodd" d="M548.974 201.962C538.677 200.502 510.123 196.453 516 115.865C516.052 115.567 516.105 115.266 516.158 114.963C516.622 112.299 517.118 109.46 518.153 106.994C518.922 105.161 519.605 103.317 520.285 101.482C521.878 97.1806 523.452 92.9292 526.077 88.9923C526.903 87.7535 527.723 86.5059 528.544 85.2566C531.19 81.2299 533.848 77.1852 536.757 73.3594C537.456 72.441 538.158 71.4526 538.875 70.4432C540.953 67.5178 543.156 64.4164 545.758 62.3345C548.621 59 557.53 52.9406 560.099 52.3432C562.218 51.8504 564.055 51.9895 566.061 52.1416C566.613 52.1834 567.178 52.2262 567.765 52.2571C576.121 51.5 595.782 68.8908 598.686 73.1871C599.428 74.2847 600.186 75.3356 600.939 76.3795C602.38 78.3777 603.802 80.3503 605.06 82.5755C605.714 83.733 606.11 85.128 606.491 86.4679C606.629 86.9553 606.766 87.4354 606.912 87.8941C607.313 89.1547 607.755 90.4104 608.199 91.6679C609.016 93.9864 609.835 96.3109 610.4 98.6821C610.77 100.234 611.082 101.867 611.398 103.522C612.092 107.154 612.806 110.89 614.19 114.1C615.757 117.735 616.043 122.413 616.3 126.631C616.367 127.718 616.431 128.775 616.515 129.776C616.994 135.47 616.419 141.11 615.74 146.744C615.422 149.386 614.631 152.078 613.867 154.625C613.578 155.587 613.386 156.605 613.193 157.626C612.897 159.192 612.6 160.767 611.95 162.161C610.761 164.715 609.745 167.315 608.73 169.915C607.783 172.339 606.836 174.762 605.749 177.148C602.228 184.876 598.504 192.697 592.485 198.853C587.785 203.66 565.121 203 551.572 202.428C550.953 202.243 550.067 202.117 548.974 201.962ZM557.515 161.775C539.084 159.779 540.706 118.786 544.206 108.33C547.706 101.786 553.613 97.451 560.852 97.0251C568.648 96.5666 574.814 102.463 579.005 108.33C580.206 110.012 601.206 144.786 571.145 161.516C569.502 163.302 563.5 164 557.515 161.775Z" fill="#232323"/>
</g>
<path d="M516 115.865L514.523 115.603L514.509 115.679L514.504 115.756L516 115.865ZM548.974 201.962L548.764 203.448L548.764 203.448L548.974 201.962ZM516.158 114.963L517.636 115.221L517.636 115.221L516.158 114.963ZM518.153 106.994L519.536 107.574L518.153 106.994ZM520.285 101.482L518.878 100.961L518.878 100.961L520.285 101.482ZM526.077 88.9923L524.829 88.1602L524.829 88.1602L526.077 88.9923ZM528.544 85.2566L527.29 84.4328L527.29 84.4328L528.544 85.2566ZM536.757 73.3594L535.563 72.4513L535.563 72.4513L536.757 73.3594ZM538.875 70.4432L540.098 71.3118L540.098 71.3118L538.875 70.4432ZM545.758 62.3345L546.695 63.5058L546.805 63.4181L546.896 63.3116L545.758 62.3345ZM560.099 52.3432L559.759 50.8822L559.759 50.8822L560.099 52.3432ZM566.061 52.1416L565.948 53.6373L565.948 53.6373L566.061 52.1416ZM567.765 52.2571L567.686 53.755L567.793 53.7607L567.9 53.751L567.765 52.2571ZM598.686 73.1871L599.929 72.347L599.929 72.347L598.686 73.1871ZM600.939 76.3795L602.155 75.5021L602.155 75.5021L600.939 76.3795ZM605.06 82.5755L606.366 81.8374L606.366 81.8374L605.06 82.5755ZM606.491 86.4679L605.048 86.8777L605.048 86.8777L606.491 86.4679ZM606.912 87.8941L608.341 87.4393L608.341 87.4393L606.912 87.8941ZM608.199 91.6679L606.784 92.1665L606.784 92.1665L608.199 91.6679ZM610.4 98.6821L608.941 99.0296L608.941 99.0296L610.4 98.6821ZM611.398 103.522L609.925 103.804L609.925 103.804L611.398 103.522ZM614.19 114.1L615.567 113.506L615.567 113.506L614.19 114.1ZM616.3 126.631L617.798 126.539L617.798 126.539L616.3 126.631ZM616.515 129.776L615.021 129.901L615.021 129.901L616.515 129.776ZM615.74 146.744L614.251 146.564L614.251 146.564L615.74 146.744ZM613.867 154.625L615.304 155.056L615.304 155.056L613.867 154.625ZM613.193 157.626L614.667 157.904L614.667 157.904L613.193 157.626ZM611.95 162.161L613.31 162.795L613.31 162.795L611.95 162.161ZM608.73 169.915L610.127 170.461L610.127 170.461L608.73 169.915ZM605.749 177.148L607.114 177.77L607.114 177.77L605.749 177.148ZM592.485 198.853L591.412 197.805L591.412 197.805L592.485 198.853ZM551.572 202.428L551.143 203.865L551.322 203.919L551.509 203.927L551.572 202.428ZM544.206 108.33L542.883 107.623L542.823 107.734L542.783 107.854L544.206 108.33ZM557.515 161.775L558.037 160.369L557.862 160.304L557.676 160.283L557.515 161.775ZM560.852 97.0251L560.764 95.5277L560.764 95.5277L560.852 97.0251ZM579.005 108.33L577.784 109.202L577.784 109.202L579.005 108.33ZM571.145 161.516L570.416 160.206L570.205 160.323L570.041 160.501L571.145 161.516ZM514.504 115.756C511.557 156.165 517.204 177.743 525.183 189.432C533.246 201.245 543.513 202.703 548.764 203.448L549.185 200.477C544.138 199.762 534.98 198.465 527.661 187.741C520.257 176.894 514.566 156.153 517.496 115.975L514.504 115.756ZM514.68 114.705C514.627 115.009 514.575 115.308 514.523 115.603L517.477 116.127C517.53 115.827 517.583 115.524 517.636 115.221L514.68 114.705ZM516.77 106.413C515.657 109.064 515.139 112.077 514.68 114.705L517.636 115.221C518.106 112.522 518.578 109.856 519.536 107.574L516.77 106.413ZM518.878 100.961C518.197 102.801 517.525 104.615 516.77 106.413L519.536 107.574C520.32 105.707 521.013 103.833 521.691 102.003L518.878 100.961ZM524.829 88.1602C522.092 92.2664 520.462 96.6833 518.878 100.961L521.691 102.003C523.293 97.6779 524.813 93.592 527.325 89.8243L524.829 88.1602ZM527.29 84.4328C526.469 85.6829 525.652 86.9263 524.829 88.1602L527.325 89.8243C528.154 88.5807 528.977 87.329 529.797 86.0803L527.29 84.4328ZM535.563 72.4513C532.617 76.3252 529.931 80.4136 527.29 84.4328L529.797 86.0803C532.448 82.0463 535.078 78.0453 537.951 74.2674L535.563 72.4513ZM537.652 69.5746C536.932 70.5881 536.244 71.556 535.563 72.4513L537.951 74.2674C538.667 73.3261 539.384 72.3171 540.098 71.3118L537.652 69.5746ZM544.821 61.1632C542.023 63.4018 539.698 66.6937 537.652 69.5746L540.098 71.3118C542.207 68.342 544.289 65.431 546.695 63.5058L544.821 61.1632ZM559.759 50.8822C558.881 51.0864 557.672 51.682 556.437 52.3828C555.149 53.1137 553.667 54.0563 552.187 55.078C549.266 57.0943 546.185 59.5339 544.62 61.3575L546.896 63.3116C548.193 61.8006 550.999 59.5433 553.891 57.5469C555.317 56.5623 556.723 55.6696 557.917 54.9921C559.165 54.2846 560.032 53.8988 560.439 53.8042L559.759 50.8822ZM566.175 50.6459C564.185 50.4951 562.132 50.3305 559.759 50.8822L560.439 53.8042C562.305 53.3703 563.925 53.484 565.948 53.6373L566.175 50.6459ZM567.844 50.7592C567.277 50.7293 566.729 50.6879 566.175 50.6459L565.948 53.6373C566.498 53.6789 567.079 53.7231 567.686 53.755L567.844 50.7592ZM599.929 72.347C599.097 71.1172 597.209 69.1227 594.828 66.9011C592.41 64.6451 589.38 62.0589 586.176 59.6315C582.977 57.2082 579.571 54.9171 576.404 53.2727C573.31 51.6656 570.18 50.5321 567.629 50.7632L567.9 53.751C569.528 53.6035 571.989 54.36 575.022 55.935C577.983 57.4727 581.24 59.6558 584.364 62.0227C587.483 64.3853 590.435 66.9051 592.781 69.0946C595.164 71.3184 596.823 73.1089 597.443 74.0272L599.929 72.347ZM602.155 75.5021C601.401 74.4555 600.656 73.4227 599.929 72.347L597.443 74.0272C598.2 75.1466 598.971 76.2157 599.722 77.2568L602.155 75.5021ZM606.366 81.8374C605.061 79.5289 603.59 77.4914 602.155 75.5021L599.722 77.2568C601.17 79.2641 602.543 81.1716 603.754 83.3136L606.366 81.8374ZM607.934 86.0581C607.564 84.7574 607.124 83.1797 606.366 81.8374L603.754 83.3136C604.304 84.2864 604.656 85.4985 605.048 86.8777L607.934 86.0581ZM608.341 87.4393C608.204 87.0069 608.074 86.5499 607.934 86.058L605.048 86.8777C605.185 87.3607 605.328 87.8639 605.482 88.3489L608.341 87.4393ZM609.613 91.1692C609.169 89.908 608.734 88.6741 608.341 87.4393L605.482 88.3489C605.892 89.6352 606.342 90.9129 606.784 92.1665L609.613 91.1692ZM611.859 98.3347C611.273 95.8736 610.426 93.4747 609.613 91.1692L606.784 92.1665C607.606 94.4982 608.398 96.7481 608.941 99.0296L611.859 98.3347ZM612.871 103.241C612.556 101.592 612.238 99.9253 611.859 98.3347L608.941 99.0296C609.301 100.543 609.607 102.142 609.925 103.804L612.871 103.241ZM615.567 113.506C614.261 110.475 613.573 106.909 612.871 103.241L609.925 103.804C610.612 107.399 611.352 111.305 612.812 114.693L615.567 113.506ZM617.798 126.539C617.544 122.395 617.259 117.43 615.567 113.506L612.812 114.693C614.255 118.041 614.541 122.431 614.803 126.722L617.798 126.539ZM618.01 129.65C617.928 128.67 617.864 127.63 617.798 126.539L614.803 126.722C614.869 127.806 614.935 128.881 615.021 129.901L618.01 129.65ZM617.229 146.923C617.908 141.288 618.503 135.512 618.01 129.65L615.021 129.901C615.486 135.427 614.93 140.932 614.251 146.564L617.229 146.923ZM615.304 155.056C616.063 152.525 616.893 149.713 617.229 146.923L614.251 146.564C613.95 149.059 613.199 151.631 612.43 154.194L615.304 155.056ZM614.667 157.904C614.863 156.868 615.041 155.93 615.304 155.056L612.43 154.194C612.115 155.245 611.909 156.341 611.719 157.347L614.667 157.904ZM613.31 162.795C614.053 161.199 614.378 159.433 614.667 157.904L611.719 157.347C611.416 158.951 611.147 160.334 610.591 161.528L613.31 162.795ZM610.127 170.461C611.145 167.854 612.144 165.298 613.31 162.795L610.591 161.528C609.378 164.132 608.345 166.777 607.332 169.37L610.127 170.461ZM607.114 177.77C608.221 175.34 609.183 172.878 610.127 170.461L607.332 169.37C606.383 171.799 605.451 174.184 604.384 176.526L607.114 177.77ZM593.557 199.902C599.785 193.533 603.602 185.478 607.114 177.77L604.384 176.526C600.854 184.274 597.224 191.861 591.412 197.805L593.557 199.902ZM551.509 203.927C558.283 204.213 567.396 204.524 575.416 204.156C579.422 203.972 583.206 203.617 586.312 202.99C587.865 202.677 589.284 202.288 590.493 201.802C591.688 201.321 592.767 200.71 593.557 199.902L591.412 197.805C591.027 198.199 590.37 198.618 589.373 199.019C588.39 199.414 587.162 199.758 585.718 200.05C582.829 200.633 579.219 200.978 575.278 201.159C567.404 201.52 558.41 201.215 551.635 200.929L551.509 203.927ZM548.764 203.448C549.906 203.61 550.658 203.72 551.143 203.865L552.002 200.991C551.249 200.766 550.227 200.625 549.185 200.477L548.764 203.448ZM542.783 107.854C541.848 110.647 541.08 115.318 540.72 120.711C540.359 126.133 540.403 132.396 541.147 138.409C541.889 144.401 543.338 150.255 545.857 154.781C548.39 159.334 552.105 162.698 557.353 163.266L557.676 160.283C553.709 159.854 550.715 157.344 548.478 153.323C546.226 149.275 544.844 143.853 544.125 138.04C543.408 132.249 543.362 126.179 543.713 120.911C544.066 115.615 544.813 111.241 545.628 108.806L542.783 107.854ZM560.764 95.5277C552.921 95.989 546.588 100.695 542.883 107.623L545.528 109.037C548.824 102.876 554.304 98.9129 560.94 98.5225L560.764 95.5277ZM580.225 107.458C575.994 101.534 569.4 95.0197 560.764 95.5277L560.94 98.5225C567.895 98.1134 573.634 103.392 577.784 109.202L580.225 107.458ZM571.874 162.827C579.668 158.489 584.241 152.923 586.618 146.938C588.984 140.982 589.129 134.73 588.282 129.058C586.595 117.766 580.921 108.432 580.225 107.458L577.784 109.202C578.29 109.91 583.717 118.805 585.315 129.502C586.11 134.825 585.944 140.509 583.83 145.831C581.727 151.124 577.652 156.178 570.416 160.206L571.874 162.827ZM556.992 163.181C560.177 164.365 563.377 164.777 566.031 164.648C567.358 164.583 568.582 164.382 569.618 164.053C570.625 163.733 571.588 163.25 572.249 162.532L570.041 160.501C569.88 160.675 569.477 160.95 568.71 161.193C567.971 161.428 567.012 161.597 565.885 161.652C563.631 161.761 560.837 161.41 558.037 160.369L556.992 163.181Z" fill="black"/>
<path d="M593.971 70.3238C598.132 68.6593 603.242 65.4406 605.997 61.8004C607.517 59.7922 607.275 56.6629 604.216 56.6629C601.863 56.6629 602.445 59.3576 603.691 60.6036C607.062 63.9747 613.707 61.7344 617.148 59.5527C619.654 57.9632 622.148 55.8385 624.153 53.6272C625.928 51.6701 628.324 49.22 629.121 46.68C629.43 45.6948 629.264 43.0659 627.539 43.0021C626.007 42.9453 624.765 44.0674 624.621 45.5088C624.271 49.0104 628.723 49.434 631.553 49.2925C633.73 49.1836 636.101 48.7509 638.223 48.2417C639.121 46.68 640.121 45.5088 640.121 45.0088" stroke="black" stroke-width="3" stroke-linecap="round"/>
<path d="M593.302 79.1918C593.302 77.8733 593.232 76.5108 593.232 75.2161" stroke="black" stroke-width="2" stroke-linecap="round"/>
<path d="M586.676 74.7278C587.477 74.327 588.221 73.8222 589.016 73.4026C589.452 73.1726 589.846 72.8574 590.303 72.7051" stroke="black" stroke-width="2" stroke-linecap="round"/>
<path d="M590.79 69.357C589.929 69.2852 589.08 68.7951 588.252 68.5549C587.696 68.3934 587.149 68.2129 586.605 68.0317" stroke="black" stroke-width="2" stroke-linecap="round"/>
<path d="M265.846 135.415C265.846 133.299 265.918 131.192 265.918 129.077C265.918 128.723 266.204 128.906 266.278 128.573C266.32 128.382 266.453 128.273 266.534 128.101C266.623 127.913 266.614 127.748 266.746 127.565C266.892 127.362 267.001 127.149 267.126 126.933C267.193 126.817 267.236 126.569 267.33 126.485C267.805 126.063 268.172 125.949 268.799 125.796C269.546 125.615 270.249 125.506 271.015 125.46C274.33 125.264 277.606 124.9 280.93 124.9C284.021 124.9 287.324 124.662 290.336 125.516C290.865 125.666 291.402 125.768 291.933 125.909C292.092 125.951 292.313 125.937 292.457 126.017C292.904 126.265 292.866 126.484 292.929 126.985C292.974 127.346 293.136 127.707 293.197 128.069C293.301 128.681 293.347 129.305 293.357 129.926C293.368 130.63 293.521 131.36 293.557 132.07C293.59 132.71 293.598 133.356 293.517 133.991C293.432 134.664 293.562 135.356 293.493 136.031C293.427 136.674 293.369 137.369 293.245 138.008C293.063 138.943 292.809 139.933 292.453 140.816C291.911 142.161 291.261 143.672 290.2 144.689C288.792 146.039 286.533 146.218 284.675 146.218C283.932 146.218 283.232 146.214 282.498 146.106C281.344 145.935 280.201 145.711 279.033 145.626C276.12 145.413 273.047 144.939 270.335 143.837C269.131 143.348 267.956 142.612 267.11 141.621C266.758 141.208 266.389 140.79 266.278 140.236C266.147 139.583 265.929 138.959 265.862 138.288C265.768 137.346 265.846 136.36 265.846 135.415Z" fill="#292929" stroke="black" stroke-width="2" stroke-linecap="round"/>
<g filter="url(#filter6_ii_0_1)">
<path d="M221.409 83.838C222.129 78.6723 223.14 68.8453 223.573 63.6714C226.571 60.0381 247.661 59 250.324 59C255.676 59 263.518 61.4573 267.425 66.1254C272.995 72.7808 279.127 84.9504 283.037 93.2573C283.537 94.3188 288.607 80.6069 290.152 77.6537C292.451 73.2575 295.819 71.1844 298.703 67.7387C303.072 62.517 308.339 61.4199 314.341 61.4199C319.346 61.4199 325.314 61.0759 329.811 63.8399C334.73 66.8625 337.061 73.197 338.699 79.3006C340.221 84.967 341.29 91.8283 341.85 97.719C342.51 104.666 343.843 111.684 343.987 118.692C344.32 134.783 345 150.842 345 166.956C345 173.34 344.348 184.377 343.369 190.67C342.84 194.067 342.489 200.105 340.003 201.739C334.843 205.13 316.775 206.347 311.866 201.739C310.671 196.842 309.785 164.886 309.785 156.604C308.397 148.788 305.403 122.927 304.722 114.995C303.819 119.602 297.528 120.248 280.039 128.034C246.735 125.438 253.849 114.158 250.858 111.701C250.313 116.257 250.714 120.898 250.07 125.515C249.418 130.193 248.805 135.468 248.805 140.202C248.805 146.857 247.729 153.182 246.273 159.562C244.909 165.539 250.858 204.334 224.572 204.334C217.077 204.334 215.406 207.144 213.364 201.22C210.295 192.312 213.364 167.087 213.364 157.646C213.364 144.955 214.734 132.987 216.121 120.439C216.935 113.078 217.663 105.681 218.484 98.324C219.03 93.4313 220.736 88.6604 221.409 83.838Z" fill="#232323"/>
</g>
<path d="M221.409 83.838C222.129 78.6723 223.14 68.8453 223.573 63.6714C226.571 60.0381 247.661 59 250.324 59C255.676 59 263.518 61.4573 267.425 66.1254C272.995 72.7808 279.127 84.9504 283.037 93.2573C283.537 94.3188 288.607 80.6069 290.152 77.6537C292.451 73.2575 295.819 71.1844 298.703 67.7387C303.072 62.517 308.339 61.4199 314.341 61.4199C319.346 61.4199 325.314 61.0759 329.811 63.8399C334.73 66.8625 337.061 73.197 338.699 79.3006C340.221 84.967 341.29 91.8283 341.85 97.719C342.51 104.666 343.843 111.684 343.987 118.692C344.32 134.783 345 150.842 345 166.956C345 173.34 344.348 184.377 343.369 190.67C342.84 194.067 342.489 200.105 340.003 201.739C334.843 205.13 316.775 206.347 311.866 201.739C310.671 196.842 309.785 164.886 309.785 156.604C308.397 148.788 305.403 122.927 304.722 114.995C303.819 119.602 297.528 120.248 280.039 128.034C246.735 125.438 253.849 114.158 250.858 111.701C250.313 116.257 250.714 120.898 250.07 125.515C249.418 130.193 248.805 135.468 248.805 140.202C248.805 146.857 247.729 153.182 246.273 159.562C244.909 165.539 250.858 204.334 224.572 204.334C217.077 204.334 215.406 207.144 213.364 201.22C210.295 192.312 213.364 167.087 213.364 157.646C213.364 144.955 214.734 132.987 216.121 120.439C216.935 113.078 217.663 105.681 218.484 98.324C219.03 93.4313 220.736 88.6604 221.409 83.838Z" stroke="black" stroke-width="3" stroke-linecap="round"/>
<g filter="url(#filter7_ii_0_1)">
<path d="M410.556 100.828V70.3364C412.538 68.7502 428.252 66.5343 430.111 67.3707C437.962 70.9037 444.188 74.9997 450.222 80.7165C454.255 84.5371 471.5 124.5 474.782 130.578C477.259 131.889 477.641 130.693 478.304 128.539C481.609 117.796 477.609 104.764 478.999 93.6452C479.803 87.2158 480.237 81.7122 483.494 76.1289C486.017 71.803 491.798 67 497.118 67C507.317 67 513.985 79.9584 513.985 89.1039C513.985 119.009 512.317 148.438 512.317 178.354C512.317 189.1 509.459 203 497.5 203C486.575 203 480.28 186.68 473.577 179.605C470.019 175.849 452.281 141.836 448.925 138.085C448.689 136.377 445.693 131.628 444.383 133.312C444.383 139.337 442.315 196.125 439.5 201.5C434.667 210.726 405 209 409.907 175.249C408.354 166.904 409.041 155.465 410.139 147.121C412.115 132.099 410.556 115.976 410.556 100.828Z" fill="#232323"/>
</g>
<path d="M410.556 100.828V70.3364C412.538 68.7502 428.252 66.5343 430.111 67.3707C437.962 70.9037 444.188 74.9997 450.222 80.7165C454.255 84.5371 471.5 124.5 474.782 130.578C477.259 131.889 477.641 130.693 478.304 128.539C481.609 117.796 477.609 104.764 478.999 93.6452C479.803 87.2158 480.237 81.7122 483.494 76.1289C486.017 71.803 491.798 67 497.118 67C507.317 67 513.985 79.9584 513.985 89.1039C513.985 119.009 512.317 148.438 512.317 178.354C512.317 189.1 509.459 203 497.5 203C486.575 203 480.28 186.68 473.577 179.605C470.019 175.849 452.281 141.836 448.925 138.085C448.689 136.377 445.693 131.628 444.383 133.312C444.383 139.337 442.315 196.125 439.5 201.5C434.667 210.726 405 209 409.907 175.249C408.354 166.904 409.041 155.465 410.139 147.121C412.115 132.099 410.556 115.976 410.556 100.828Z" stroke="black" stroke-width="3" stroke-linecap="round"/>
<path d="M272 129C272 138.448 272.151 146.664 272.151 156.112C272.151 157.913 272.338 159.287 272.556 161.024C272.748 162.553 272.925 164.949 273.623 166.184C275.006 168.629 278.173 168.404 279.854 166.702C280.808 165.736 282.02 165.455 282.728 164.021C283.47 162.519 283.78 161.407 284.099 159.605C284.488 157.412 284.629 155.393 284.629 153.115C284.629 151.564 284.629 150.013 284.629 148.463C284.629 147.058 284.792 145.857 284.894 144.497C285.123 141.426 284.909 138.16 284.909 135.067C284.909 133.31 284.909 131.552 284.909 129.795" stroke="black" stroke-width="3" stroke-linecap="round"/>
<path d="M272.153 155.783C272.153 146.073 272.002 137.71 272.002 128C272.734 135.277 284.468 131.235 284.97 127.491C284.97 127.313 284.97 127.148 284.97 127C284.993 127.163 284.993 127.327 284.97 127.491C284.98 131.143 285.081 140.837 284.862 143.846C284.761 145.243 284.598 146.478 284.598 147.922V152.703C284.598 155.044 285.25 157.247 284.862 159.5C284.544 161.352 284.24 163.456 283.5 165C282.794 166.474 282 167 280 167.5C278.323 169.249 273.934 168.646 272.555 166.134C271.858 164.865 271.682 162.403 271.491 160.831C271.273 159.046 272.153 157.633 272.153 155.783Z" fill="#292929"/>
<path d="M272.002 128C272.002 137.71 272.153 146.073 272.153 155.783C272.153 157.633 271.273 159.046 271.491 160.831C271.682 162.403 271.858 164.865 272.555 166.134C273.934 168.646 278.323 169.249 280 167.5C282 167 282.794 166.474 283.5 165C284.24 163.456 284.544 161.352 284.862 159.5C285.25 157.247 284.598 155.044 284.598 152.703C284.598 151.109 284.598 149.516 284.598 147.922C284.598 146.478 284.761 145.243 284.862 143.846C285.091 140.69 284.97 130.178 284.97 127C285.521 130.857 272.766 135.598 272.002 128Z" stroke="black" stroke-width="3" stroke-linecap="round"/>
<path d="M275.5 140.5C275.5 138.569 274.83 133.624 274.83 131.701C274.83 130.238 275 127.464 275 126C275 125.527 275.499 128.063 275.499 127.59C275.499 127.087 275.499 128.107 275.999 127.59C276.402 128.048 276.799 126.743 277.257 126.743C277.973 126.743 278.522 125.983 279.237 126C280.014 126.019 280.811 126.219 281.577 126.219C281.665 126.219 281.991 123.306 281.998 123.5C282.011 123.868 282.563 122.651 282.5 123C282.255 124.35 281.998 129.593 281.998 131C281.998 132.277 281.677 134.256 281.677 135.533C281.677 136.239 281.809 140.65 281.096 139.918C279.665 138.453 277.77 139.542 276.219 138.67C275.816 138.443 275.384 137.193 275.805 136.647C276.306 135.999 277.003 135.618 277.596 135.326C278.608 134.826 279.647 134.572 280.664 134.138C280.794 134.083 280.933 134.003 280.903 133.724C280.85 133.23 280.31 133.351 280.122 133.395C279.191 133.613 277.882 135.461 276.965 134.315C276.724 134.014 276.46 133.486 276.519 132.932C276.613 132.038 277.364 131.927 277.774 131.921C278.032 131.917 280.949 131.935 280.054 130.355C279.402 129.205 278.067 129.9 277.257 129.661C276.312 129.382 276.629 127.445 277.411 127.145C278.284 126.81 279.392 127.29 280.25 127.59C280.86 127.803 281.008 128.286 280.778 129.289C280.21 131.77 280.072 134.265 280.072 136.928C280.072 137.345 280.05 137.747 280.122 138.146C280.165 138.388 280.157 138.464 280.043 138.28C279.354 137.17 278.413 136.964 277.503 136.964" stroke="#292929" stroke-width="3" stroke-linecap="round"/>
<path d="M288.84 143.48C289.227 145.688 289.61 148.373 291.763 149.606C293.439 150.566 296.981 149.952 297.22 147.616C297.308 146.758 296.702 146.475 295.899 146.621C294.937 146.796 294.344 147.544 294.344 148.518C294.344 149.902 295.664 151.293 296.396 152.374C296.779 152.939 297.277 153.975 298.075 153.975" stroke="black" stroke-width="2" stroke-linecap="round"/>
<path d="M267.151 136.484C267.005 137.163 266.455 137.711 266.047 138.241C265.203 139.335 264.589 140.566 263.528 141.482C262.027 142.779 260.123 142.064 259.548 140.285C259.443 139.962 259.382 139.554 259.843 139.586C260.807 139.652 261.609 140.342 261.849 141.273C262.329 143.137 260.858 145.381 259.835 146.8C259.303 147.539 258.658 148.266 257.775 148.518" stroke="black" stroke-width="2" stroke-linecap="round"/>
<defs>
<filter id="filter0_ii_0_1" x="19.7012" y="41.4984" width="93.6006" height="165.018" filterUnits="userSpaceOnUse" color-interpolation-filters="sRGB">
<feFlood flood-opacity="0" result="BackgroundImageFix"/>
<feBlend mode="normal" in="SourceGraphic" in2="BackgroundImageFix" result="shape"/>
<feColorMatrix in="SourceAlpha" type="matrix" values="0 0 0 0 0 0 0 0 0 0 0 0 0 0 0 0 0 0 127 0" result="hardAlpha"/>
<feOffset dx="8" dy="4"/>
<feComposite in2="hardAlpha" operator="arithmetic" k2="-1" k3="1"/>
<feColorMatrix type="matrix" values="0 0 0 0 0.6125 0 0 0 0 1 0 0 0 0 0.721 0 0 0 0.26 0"/>
<feBlend mode="normal" in2="shape" result="effect1_innerShadow_0_1"/>
<feColorMatrix in="SourceAlpha" type="matrix" values="0 0 0 0 0 0 0 0 0 0 0 0 0 0 0 0 0 0 127 0" result="hardAlpha"/>
<feOffset dx="-10" dy="-4"/>
<feComposite in2="hardAlpha" operator="arithmetic" k2="-1" k3="1"/>
<feColorMatrix type="matrix" values="0 0 0 0 0 0 0 0 0 0 0 0 0 0 0 0 0 0 0.25 0"/>
<feBlend mode="normal" in2="effect1_innerShadow_0_1" result="effect2_innerShadow_0_1"/>
</filter>
<filter id="filter1_ii_0_1" x="339.5" y="52.501" width="74" height="153.989" filterUnits="userSpaceOnUse" color-interpolation-filters="sRGB">
<feFlood flood-opacity="0" result="BackgroundImageFix"/>
<feBlend mode="normal" in="SourceGraphic" in2="BackgroundImageFix" result="shape"/>
<feColorMatrix in="SourceAlpha" type="matrix" values="0 0 0 0 0 0 0 0 0 0 0 0 0 0 0 0 0 0 127 0" result="hardAlpha"/>
<feOffset dx="8" dy="4"/>
<feComposite in2="hardAlpha" operator="arithmetic" k2="-1" k3="1"/>
<feColorMatrix type="matrix" values="0 0 0 0 0.6125 0 0 0 0 1 0 0 0 0 0.721 0 0 0 0.26 0"/>
<feBlend mode="normal" in2="shape" result="effect1_innerShadow_0_1"/>
<feColorMatrix in="SourceAlpha" type="matrix" values="0 0 0 0 0 0 0 0 0 0 0 0 0 0 0 0 0 0 127 0" result="hardAlpha"/>
<feOffset dx="-10" dy="-4"/>
<feComposite in2="hardAlpha" operator="arithmetic" k2="-1" k3="1"/>
<feColorMatrix type="matrix" values="0 0 0 0 0 0 0 0 0 0 0 0 0 0 0 0 0 0 0.25 0"/>
<feBlend mode="normal" in2="effect1_innerShadow_0_1" result="effect2_innerShadow_0_1"/>
</filter>
<filter id="filter2_i_0_1" x="320.759" y="25.1321" width="40.2139" height="47.4003" filterUnits="userSpaceOnUse" color-interpolation-filters="sRGB">
<feFlood flood-opacity="0" result="BackgroundImageFix"/>
<feBlend mode="normal" in="SourceGraphic" in2="BackgroundImageFix" result="shape"/>
<feColorMatrix in="SourceAlpha" type="matrix" values="0 0 0 0 0 0 0 0 0 0 0 0 0 0 0 0 0 0 127 0" result="hardAlpha"/>
<feOffset dx="-5" dy="-9"/>
<feComposite in2="hardAlpha" operator="arithmetic" k2="-1" k3="1"/>
<feColorMatrix type="matrix" values="0 0 0 0 0 0 0 0 0 0 0 0 0 0 0 0 0 0 0.25 0"/>
<feBlend mode="normal" in2="shape" result="effect1_innerShadow_0_1"/>
</filter>
<filter id="filter3_i_0_1" x="383.065" y="22.1281" width="40.8047" height="45.3951" filterUnits="userSpaceOnUse" color-interpolation-filters="sRGB">
<feFlood flood-opacity="0" result="BackgroundImageFix"/>
<feBlend mode="normal" in="SourceGraphic" in2="BackgroundImageFix" result="shape"/>
<feColorMatrix in="SourceAlpha" type="matrix" values="0 0 0 0 0 0 0 0 0 0 0 0 0 0 0 0 0 0 127 0" result="hardAlpha"/>
<feOffset dx="-1" dy="-7"/>
<feComposite in2="hardAlpha" operator="arithmetic" k2="-1" k3="1"/>
<feColorMatrix type="matrix" values="0 0 0 0 0 0 0 0 0 0 0 0 0 0 0 0 0 0 0.25 0"/>
<feBlend mode="normal" in2="shape" result="effect1_innerShadow_0_1"/>
</filter>
<filter id="filter4_ii_0_1" x="110.497" y="47.4999" width="104.003" height="157" filterUnits="userSpaceOnUse" color-interpolation-filters="sRGB">
<feFlood flood-opacity="0" result="BackgroundImageFix"/>
<feBlend mode="normal" in="SourceGraphic" in2="BackgroundImageFix" result="shape"/>
<feColorMatrix in="SourceAlpha" type="matrix" values="0 0 0 0 0 0 0 0 0 0 0 0 0 0 0 0 0 0 127 0" result="hardAlpha"/>
<feOffset dx="8" dy="4"/>
<feComposite in2="hardAlpha" operator="arithmetic" k2="-1" k3="1"/>
<feColorMatrix type="matrix" values="0 0 0 0 0.6125 0 0 0 0 1 0 0 0 0 0.721 0 0 0 0.26 0"/>
<feBlend mode="normal" in2="shape" result="effect1_innerShadow_0_1"/>
<feColorMatrix in="SourceAlpha" type="matrix" values="0 0 0 0 0 0 0 0 0 0 0 0 0 0 0 0 0 0 127 0" result="hardAlpha"/>
<feOffset dx="-10" dy="-4"/>
<feComposite in2="hardAlpha" operator="arithmetic" k2="-1" k3="1"/>
<feColorMatrix type="matrix" values="0 0 0 0 0 0 0 0 0 0 0 0 0 0 0 0 0 0 0.25 0"/>
<feBlend mode="normal" in2="effect1_innerShadow_0_1" result="effect2_innerShadow_0_1"/>
</filter>
<filter id="filter5_ii_0_1" x="513.711" y="50.4999" width="104.48" height="153.824" filterUnits="userSpaceOnUse" color-interpolation-filters="sRGB">
<feFlood flood-opacity="0" result="BackgroundImageFix"/>
<feBlend mode="normal" in="SourceGraphic" in2="BackgroundImageFix" result="shape"/>
<feColorMatrix in="SourceAlpha" type="matrix" values="0 0 0 0 0 0 0 0 0 0 0 0 0 0 0 0 0 0 127 0" result="hardAlpha"/>
<feOffset dx="8" dy="4"/>
<feComposite in2="hardAlpha" operator="arithmetic" k2="-1" k3="1"/>
<feColorMatrix type="matrix" values="0 0 0 0 0.6125 0 0 0 0 1 0 0 0 0 0.721 0 0 0 0.26 0"/>
<feBlend mode="normal" in2="shape" result="effect1_innerShadow_0_1"/>
<feColorMatrix in="SourceAlpha" type="matrix" values="0 0 0 0 0 0 0 0 0 0 0 0 0 0 0 0 0 0 127 0" result="hardAlpha"/>
<feOffset dx="-10" dy="-4"/>
<feComposite in2="hardAlpha" operator="arithmetic" k2="-1" k3="1"/>
<feColorMatrix type="matrix" values="0 0 0 0 0 0 0 0 0 0 0 0 0 0 0 0 0 0 0.25 0"/>
<feBlend mode="normal" in2="effect1_innerShadow_0_1" result="effect2_innerShadow_0_1"/>
</filter>
<filter id="filter6_ii_0_1" x="210.5" y="57.5" width="136" height="149" filterUnits="userSpaceOnUse" color-interpolation-filters="sRGB">
<feFlood flood-opacity="0" result="BackgroundImageFix"/>
<feBlend mode="normal" in="SourceGraphic" in2="BackgroundImageFix" result="shape"/>
<feColorMatrix in="SourceAlpha" type="matrix" values="0 0 0 0 0 0 0 0 0 0 0 0 0 0 0 0 0 0 127 0" result="hardAlpha"/>
<feOffset dx="-10" dy="-4"/>
<feComposite in2="hardAlpha" operator="arithmetic" k2="-1" k3="1"/>
<feColorMatrix type="matrix" values="0 0 0 0 0 0 0 0 0 0 0 0 0 0 0 0 0 0 0.25 0"/>
<feBlend mode="normal" in2="shape" result="effect1_innerShadow_0_1"/>
<feColorMatrix in="SourceAlpha" type="matrix" values="0 0 0 0 0 0 0 0 0 0 0 0 0 0 0 0 0 0 127 0" result="hardAlpha"/>
<feOffset dx="8" dy="4"/>
<feComposite in2="hardAlpha" operator="arithmetic" k2="-1" k3="1"/>
<feColorMatrix type="matrix" values="0 0 0 0 0.818667 0 0 0 0 1 0 0 0 0 0.733333 0 0 0 0.25 0"/>
<feBlend mode="normal" in2="effect1_innerShadow_0_1" result="effect2_innerShadow_0_1"/>
</filter>
<filter id="filter7_ii_0_1" x="407.5" y="65.5" width="111.985" height="146.302" filterUnits="userSpaceOnUse" color-interpolation-filters="sRGB">
<feFlood flood-opacity="0" result="BackgroundImageFix"/>
<feBlend mode="normal" in="SourceGraphic" in2="BackgroundImageFix" result="shape"/>
<feColorMatrix in="SourceAlpha" type="matrix" values="0 0 0 0 0 0 0 0 0 0 0 0 0 0 0 0 0 0 127 0" result="hardAlpha"/>
<feOffset dx="-10" dy="-4"/>
<feComposite in2="hardAlpha" operator="arithmetic" k2="-1" k3="1"/>
<feColorMatrix type="matrix" values="0 0 0 0 0 0 0 0 0 0 0 0 0 0 0 0 0 0 0.25 0"/>
<feBlend mode="normal" in2="shape" result="effect1_innerShadow_0_1"/>
<feColorMatrix in="SourceAlpha" type="matrix" values="0 0 0 0 0 0 0 0 0 0 0 0 0 0 0 0 0 0 127 0" result="hardAlpha"/>
<feOffset dx="8" dy="4"/>
<feGaussianBlur stdDeviation="2"/>
<feComposite in2="hardAlpha" operator="arithmetic" k2="-1" k3="1"/>
<feColorMatrix type="matrix" values="0 0 0 0 0.734583 0 0 0 0 1 0 0 0 0 0.729167 0 0 0 0.25 0"/>
<feBlend mode="normal" in2="effect1_innerShadow_0_1" result="effect2_innerShadow_0_1"/>
</filter>
</defs>
</svg>
