<svg width="784" height="239" viewBox="0 0 784 239" fill="none" xmlns="http://www.w3.org/2000/svg">
<g filter="url(#filter0_ii_0_1)">
<path fill-rule="evenodd" clip-rule="evenodd" d="M160.07 52.7733C159.87 66.3026 159.669 79.8635 159.669 93.419V112.705C159.669 115.042 159.622 117.398 159.574 119.762C159.458 125.465 159.342 131.211 159.892 136.824C160.792 146.004 160.704 155.276 160.615 164.525C160.588 167.292 160.562 170.058 160.562 172.818C160.562 175.402 160.266 178.572 159.95 181.955C159.25 189.45 158.452 197.988 160.562 203.5C165.478 206.684 205.509 204.202 209.5 202C212.611 200.283 215.474 197.687 218.249 195.17C219.408 194.119 220.551 193.082 221.691 192.128C231.39 184.016 239.636 173.664 243.332 161.44C243.96 159.363 244.741 157.338 245.521 155.316C247.017 151.44 248.509 147.572 248.909 143.369C249.545 136.696 249.802 130.219 249.802 123.513C249.802 117.27 248.612 110.97 247.397 104.896C247.015 102.986 246.671 101.045 246.326 99.0939C245.239 92.9599 244.134 86.725 241.77 81.0246C241.382 80.0877 241.012 79.1026 240.636 78.1001C239.351 74.6707 237.988 71.0375 235.523 68.4318C232.205 64.9237 228.703 61.3812 224.815 58.5163C217.997 53.493 211.155 49.2093 203.199 46.3449C197.251 44.2037 190.811 42.9984 184.458 42.9984C181.922 42.9984 175.977 42.9984 170.378 44.337C167.477 45.0305 161.862 47.9448 160.116 49.6914C160.1 50.7185 160.085 51.7458 160.07 52.7733ZM184.827 78.9862C184.827 88.1537 184.487 105.948 183.833 115.102C183.703 116.919 183.561 118.728 183.42 120.532C182.548 131.656 181.694 142.553 183.746 153.712C183.886 154.477 183.931 155.224 183.973 155.946C184.099 158.072 184.213 159.983 186.732 161.506C188.778 162.742 192.926 161.107 194.3 159.906C195.451 158.901 196.678 157.972 197.904 157.045C199.552 155.799 201.197 154.554 202.651 153.126C203.188 152.599 203.784 152.118 204.448 151.583C207.736 148.932 212.689 144.94 220.327 127.297C230.542 95.9534 201.588 92.5393 191.648 91.3673C190.034 91.1769 188.921 91.0457 188.559 90.8637C187.573 90.368 185.895 83.3376 185.173 80.3133C184.941 79.345 184.808 78.7874 184.827 78.9862Z" fill="#232323"/>
</g>
<path d="M160.07 52.7733L161.57 52.7955L161.57 52.7955L160.07 52.7733ZM159.574 119.762L161.074 119.793L161.074 119.793L159.574 119.762ZM159.892 136.824L158.4 136.971L158.4 136.971L159.892 136.824ZM160.615 164.525L162.115 164.539L160.615 164.525ZM159.95 181.955L158.456 181.815L158.456 181.815L159.95 181.955ZM160.562 203.5L159.161 204.036L159.336 204.493L159.747 204.759L160.562 203.5ZM209.5 202L208.775 200.687L208.775 200.687L209.5 202ZM218.249 195.17L217.241 194.059L217.241 194.059L218.249 195.17ZM221.691 192.128L222.653 193.279L222.653 193.279L221.691 192.128ZM243.332 161.44L244.768 161.874L244.768 161.874L243.332 161.44ZM245.521 155.316L244.122 154.776L244.122 154.776L245.521 155.316ZM248.909 143.369L247.416 143.226L247.416 143.226L248.909 143.369ZM247.397 104.896L248.868 104.602L248.868 104.602L247.397 104.896ZM246.326 99.0939L247.802 98.8322L247.802 98.8322L246.326 99.0939ZM241.77 81.0246L243.156 80.45L243.156 80.45L241.77 81.0246ZM240.636 78.1001L239.232 78.6268L239.232 78.6268L240.636 78.1001ZM235.523 68.4318L234.434 69.4626L234.434 69.4626L235.523 68.4318ZM224.815 58.5163L223.925 59.7238L223.925 59.7238L224.815 58.5163ZM203.199 46.3449L203.707 44.9336L203.707 44.9336L203.199 46.3449ZM170.378 44.337L170.029 42.8781L170.029 42.8781L170.378 44.337ZM160.116 49.6914L159.055 48.6308L158.625 49.061L158.616 49.6694L160.116 49.6914ZM183.833 115.102L182.337 114.995L183.833 115.102ZM184.827 78.9862H186.327V78.9147L186.32 78.8436L184.827 78.9862ZM183.42 120.532L184.915 120.649L184.915 120.649L183.42 120.532ZM183.746 153.712L185.221 153.44L185.221 153.44L183.746 153.712ZM183.973 155.946L182.476 156.035L182.476 156.035L183.973 155.946ZM186.732 161.506L187.508 160.222L187.508 160.222L186.732 161.506ZM194.3 159.906L193.313 158.777L193.313 158.777L194.3 159.906ZM197.904 157.045L196.999 155.849L196.999 155.849L197.904 157.045ZM202.651 153.126L201.6 152.056L201.6 152.056L202.651 153.126ZM204.448 151.583L205.39 152.75L205.39 152.75L204.448 151.583ZM220.327 127.297L221.703 127.893L221.731 127.829L221.753 127.762L220.327 127.297ZM191.648 91.3673L191.824 89.8776L191.824 89.8776L191.648 91.3673ZM188.559 90.8637L187.885 92.2039L187.885 92.2039L188.559 90.8637ZM185.173 80.3133L183.714 80.6616L183.714 80.6616L185.173 80.3133ZM161.169 93.419C161.169 79.8764 161.37 66.3267 161.57 52.7955L158.57 52.7511C158.37 66.2786 158.169 79.8505 158.169 93.419H161.169ZM161.169 112.705V93.419H158.169V112.705H161.169ZM161.074 119.793C161.121 117.431 161.169 115.059 161.169 112.705H158.169C158.169 115.024 158.122 117.365 158.074 119.732L161.074 119.793ZM161.385 136.678C160.845 131.168 160.958 125.511 161.074 119.793L158.074 119.732C157.959 125.419 157.839 131.254 158.4 136.971L161.385 136.678ZM162.115 164.539C162.203 155.304 162.294 145.951 161.385 136.678L158.4 136.971C159.29 146.057 159.204 155.248 159.115 164.51L162.115 164.539ZM162.062 172.818C162.062 170.066 162.088 167.308 162.115 164.539L159.115 164.51C159.088 167.277 159.062 170.049 159.062 172.818H162.062ZM161.443 182.094C161.757 178.735 162.062 175.487 162.062 172.818H159.062C159.062 175.317 158.774 178.409 158.456 181.815L161.443 182.094ZM161.963 202.964C161.009 200.472 160.68 197.184 160.702 193.48C160.725 189.797 161.092 185.855 161.443 182.094L158.456 181.815C158.107 185.55 157.726 189.624 157.702 193.462C157.679 197.278 158.005 201.016 159.161 204.036L161.963 202.964ZM208.775 200.687C208.69 200.734 208.443 200.835 207.957 200.966C207.497 201.09 206.903 201.22 206.183 201.352C204.744 201.615 202.872 201.876 200.694 202.12C196.343 202.608 190.845 203.023 185.311 203.271C179.774 203.519 174.23 203.598 169.782 203.42C167.554 203.33 165.631 203.178 164.132 202.956C162.55 202.722 161.689 202.442 161.378 202.241L159.747 204.759C160.665 205.353 162.13 205.693 163.693 205.924C165.34 206.167 167.382 206.326 169.661 206.417C174.226 206.6 179.861 206.518 185.445 206.268C191.032 206.018 196.598 205.599 201.028 205.101C203.242 204.853 205.19 204.584 206.723 204.302C207.49 204.162 208.17 204.016 208.737 203.863C209.278 203.717 209.811 203.541 210.225 203.313L208.775 200.687ZM217.241 194.059C214.437 196.602 211.705 199.07 208.775 200.687L210.225 203.313C213.517 201.497 216.511 198.771 219.257 196.281L217.241 194.059ZM220.729 190.978C219.562 191.954 218.396 193.012 217.241 194.059L219.257 196.281C220.42 195.226 221.541 194.209 222.653 193.279L220.729 190.978ZM241.896 161.006C238.31 172.866 230.282 182.988 220.729 190.978L222.653 193.279C232.499 185.045 240.962 174.462 244.768 161.874L241.896 161.006ZM244.122 154.776C243.345 156.79 242.543 158.867 241.896 161.006L244.768 161.874C245.376 159.86 246.137 157.887 246.921 155.856L244.122 154.776ZM247.416 143.226C247.038 147.191 245.629 150.868 244.122 154.776L246.921 155.856C248.404 152.011 249.979 147.953 250.403 143.511L247.416 143.226ZM248.302 123.513C248.302 130.179 248.046 136.608 247.416 143.226L250.403 143.511C251.043 136.783 251.302 130.258 251.302 123.513H248.302ZM245.926 105.19C247.143 111.275 248.302 117.438 248.302 123.513H251.302C251.302 117.102 250.081 110.665 248.868 104.602L245.926 105.19ZM244.849 99.3557C245.194 101.304 245.54 103.261 245.926 105.19L248.868 104.602C248.49 102.711 248.149 100.786 247.802 98.8322L244.849 99.3557ZM240.385 81.5991C242.675 87.1221 243.756 93.1914 244.849 99.3557L247.802 98.8322C246.721 92.7284 245.593 86.328 243.156 80.45L240.385 81.5991ZM239.232 78.6268C239.606 79.6245 239.984 80.6342 240.385 81.5991L243.156 80.45C242.779 79.5411 242.419 78.5808 242.041 77.5735L239.232 78.6268ZM234.434 69.4626C236.652 71.8078 237.922 75.132 239.232 78.6268L242.041 77.5735C240.78 74.2094 239.324 70.2671 236.613 67.401L234.434 69.4626ZM223.925 59.7238C227.697 62.5031 231.12 65.96 234.434 69.4626L236.613 67.401C233.289 63.8874 229.709 60.2593 225.704 57.3087L223.925 59.7238ZM202.691 47.7562C210.454 50.551 217.163 54.7411 223.925 59.7238L225.704 57.3087C218.832 52.2449 211.857 47.8677 203.707 44.9336L202.691 47.7562ZM184.458 44.4984C190.625 44.4984 196.894 45.6694 202.691 47.7562L203.707 44.9336C197.608 42.7379 190.996 41.4984 184.458 41.4984V44.4984ZM170.727 45.7959C176.134 44.5032 181.915 44.4984 184.458 44.4984V41.4984C181.928 41.4984 175.821 41.4936 170.029 42.8781L170.727 45.7959ZM161.176 50.7521C161.874 50.054 163.535 48.9767 165.507 47.9497C167.454 46.9356 169.455 46.1 170.727 45.7959L170.029 42.8781C168.401 43.2675 166.143 44.2358 164.121 45.2889C162.124 46.329 160.103 47.5822 159.055 48.6308L161.176 50.7521ZM161.57 52.7955C161.585 51.768 161.6 50.7406 161.615 49.7135L158.616 49.6694C158.601 50.6964 158.585 51.7236 158.57 52.7511L161.57 52.7955ZM185.329 115.209C185.987 106.001 186.327 88.1641 186.327 78.9862H183.327C183.327 88.1432 182.987 105.895 182.337 114.995L185.329 115.209ZM184.915 120.649C185.056 118.846 185.198 117.032 185.329 115.209L182.337 114.995C182.207 116.806 182.066 118.61 181.924 120.415L184.915 120.649ZM185.221 153.44C183.21 142.505 184.041 131.803 184.915 120.649L181.924 120.415C181.055 131.509 180.177 142.601 182.27 153.983L185.221 153.44ZM185.471 155.858C185.429 155.147 185.381 154.31 185.221 153.44L182.27 153.983C182.392 154.643 182.433 155.301 182.476 156.035L185.471 155.858ZM187.508 160.222C186.509 159.618 186.085 159.011 185.855 158.414C185.594 157.735 185.537 156.967 185.471 155.858L182.476 156.035C182.536 157.052 182.598 158.302 183.055 159.49C183.544 160.761 184.436 161.871 185.957 162.79L187.508 160.222ZM193.313 158.777C192.847 159.185 191.692 159.809 190.369 160.174C189.728 160.351 189.114 160.448 188.589 160.446C188.053 160.445 187.708 160.343 187.508 160.222L185.957 162.79C186.779 163.287 187.72 163.444 188.581 163.446C189.451 163.448 190.344 163.293 191.167 163.066C192.773 162.623 194.38 161.829 195.287 161.036L193.313 158.777ZM196.999 155.849C195.781 156.771 194.511 157.73 193.313 158.777L195.287 161.036C196.392 160.071 197.576 159.174 198.809 158.242L196.999 155.849ZM201.6 152.056C200.227 153.405 198.661 154.592 196.999 155.849L198.809 158.242C200.443 157.006 202.168 155.704 203.703 154.196L201.6 152.056ZM203.507 150.415C202.855 150.941 202.199 151.468 201.6 152.056L203.703 154.196C204.177 153.73 204.714 153.295 205.39 152.75L203.507 150.415ZM218.95 126.701C215.159 135.458 212.064 140.758 209.549 144.172C207.056 147.556 205.109 149.123 203.507 150.415L205.39 152.75C207.076 151.391 209.249 149.637 211.964 145.952C214.657 142.296 217.857 136.779 221.703 127.893L218.95 126.701ZM191.473 92.857C196.496 93.4493 205.847 94.578 212.7 99.2567C216.078 101.563 218.802 104.703 220.117 109.058C221.438 113.431 221.389 119.197 218.901 126.832L221.753 127.762C224.372 119.726 224.535 113.311 222.989 108.191C221.438 103.055 218.218 99.3909 214.392 96.779C206.837 91.6217 196.74 90.4573 191.824 89.8776L191.473 92.857ZM187.885 92.2039C188.146 92.3347 188.43 92.4087 188.636 92.4553C188.868 92.5078 189.132 92.5535 189.41 92.5955C189.965 92.6794 190.675 92.7629 191.473 92.857L191.824 89.8776C191.007 89.7813 190.354 89.7041 189.858 89.6292C189.611 89.5919 189.428 89.5588 189.299 89.5295C189.144 89.4944 189.154 89.4837 189.233 89.5235L187.885 92.2039ZM183.714 80.6616C184.073 82.1687 184.681 84.7157 185.325 86.952C185.646 88.0657 185.987 89.1401 186.321 89.9836C186.486 90.4018 186.667 90.8052 186.861 91.1416C186.958 91.31 187.076 91.492 187.217 91.6606C187.347 91.8157 187.566 92.0433 187.885 92.2039L189.233 89.5235C189.339 89.5767 189.41 89.6329 189.449 89.6665C189.489 89.701 189.511 89.7265 189.516 89.7329C189.524 89.7425 189.504 89.7197 189.459 89.6425C189.37 89.4878 189.252 89.237 189.11 88.8791C188.83 88.1705 188.52 87.2053 188.208 86.1215C187.586 83.9625 186.994 81.4822 186.632 79.9649L183.714 80.6616ZM186.32 78.8436C186.321 78.845 186.325 78.8908 186.325 78.9551C186.326 78.9815 186.325 79.066 186.309 79.1741C186.301 79.2268 186.282 79.3333 186.236 79.4614C186.2 79.5604 186.084 79.8531 185.784 80.102C185.386 80.4307 184.856 80.5273 184.379 80.3773C184.017 80.2636 183.803 80.0457 183.733 79.9706C183.577 79.8041 183.5 79.6406 183.489 79.6196C183.444 79.5295 183.421 79.4572 183.421 79.4566C183.411 79.429 183.419 79.4494 183.452 79.5812C183.509 79.8036 183.597 80.1717 183.714 80.6616L186.632 79.9649C186.517 79.4866 186.423 79.0917 186.36 78.843C186.334 78.7392 186.297 78.5969 186.261 78.4904C186.254 78.4701 186.225 78.3833 186.175 78.2841C186.163 78.2585 186.083 78.0919 185.926 77.9235C185.855 77.8475 185.64 77.6291 185.278 77.5152C184.8 77.365 184.269 77.4617 183.871 77.7908C183.569 78.0402 183.454 78.3337 183.417 78.4339C183.37 78.5632 183.351 78.6712 183.343 78.7258C183.326 78.8376 183.325 78.9272 183.325 78.9602C183.326 79.0377 183.332 79.1024 183.334 79.1288L186.32 78.8436Z" fill="black"/>
<g filter="url(#filter1_ii_0_1)">
<path d="M500.373 156.595C500.373 131.078 501.124 105.272 499.502 79.8994C497.504 82.3552 493.013 82.7833 491.685 82.7833C488.196 82.7833 484.438 82.9497 482.278 79.8994C479.795 76.3941 477.63 68.9864 480.068 64.9613C482.753 60.5313 488.602 57.878 494.018 57.0304C507.448 54.9287 522.634 52.4857 536.116 55.2054C538.687 55.7239 543.712 56.9052 543.712 59.8918C543.712 63.807 542.002 65.7053 539.244 68.5663C537.734 70.1321 535.625 71.5539 533.436 72.2163C532.229 72.5814 529.467 72.9293 528.521 73.6808C526.694 75.1317 525.84 80.1756 525.84 82.3552C525.84 92.0489 527.062 101.536 527.652 111.172C527.652 119.471 529.861 152.96 529.861 161.259V169.956C529.861 171.388 530.294 170.215 531.648 169.776C534.481 168.857 537.976 167.96 540.979 167.96C548.279 168.867 550.292 180.426 549.967 186.334C549.893 187.686 548.7 189.457 548.279 190.795C547.893 192.022 546.793 193.708 545.598 194.445C541.54 196.95 537.258 198.87 532.691 200.529C522.528 204.219 511.647 204.99 500.82 204.99C494.252 204.99 478.309 200.68 481.955 190.752C484.368 184.181 491.649 180.558 498.238 178.405C500.888 177.539 500.373 172.407 500.373 170.384V156.595Z" fill="#232323"/>
</g>
<path d="M499.479 79.5389C501.131 105.027 500.373 130.957 500.373 156.595C500.373 161.191 500.373 165.788 500.373 170.384C500.373 172.407 500.888 177.539 498.238 178.405C491.649 180.558 484.368 184.181 481.955 190.752C478.309 200.68 494.252 204.99 500.82 204.99C511.647 204.99 522.528 204.219 532.691 200.529C537.258 198.87 541.54 196.95 545.598 194.445C546.793 193.708 547.893 192.022 548.279 190.795C548.7 189.457 549.892 187.686 549.967 186.334C550.292 180.426 548.279 168.867 540.979 167.96C537.976 167.96 534.481 168.857 531.648 169.776C530.294 170.215 529.861 171.388 529.861 169.956C529.861 167.057 529.861 164.158 529.861 161.259C529.861 152.96 527.652 119.471 527.652 111.172C527.062 101.536 525.84 92.0489 525.84 82.3552C525.84 80.1756 526.694 75.1317 528.521 73.6808C529.467 72.9293 532.229 72.5814 533.436 72.2163C535.625 71.5539 537.734 70.1321 539.244 68.5663C542.002 65.7053 543.712 63.807 543.712 59.8918C543.712 56.9052 538.687 55.7239 536.116 55.2054C522.634 52.4857 507.448 54.9287 494.018 57.0304C488.602 57.878 482.753 60.5313 480.068 64.9613C477.63 68.9864 479.795 76.3941 482.278 79.8994C484.438 82.9497 488.196 82.7833 491.685 82.7833C493.013 82.7833 497.504 82.3552 499.502 79.8994" stroke="black" stroke-width="3" stroke-linecap="round"/>
<g filter="url(#filter2_i_0_1)">
<path d="M492.355 60.7825C493.992 61.3085 496.521 62.4188 497.301 63.8968C498.08 65.3749 495.46 69.4444 494.337 70.0937C493.041 70.8429 491.455 71.3602 489.921 70.8672L481.021 68.0072C474.873 66.0314 469.931 62.4816 464.464 59.3502C463.752 58.9424 463.112 58.4524 462.391 58.0592C461.986 57.8384 461.452 57.8103 461.106 57.5087C459.955 56.504 460.275 56.1211 460.542 54.8489C461.297 51.2446 463.287 47.8625 464.631 44.4276C466.084 40.7145 468.408 37.0695 470.572 33.6795C471.961 31.5021 473.273 29.3511 474.206 26.9672C474.938 25.0954 473.703 30.9475 472.971 32.8193C472.095 35.0572 471.57 37.5971 471.235 39.9509C471.097 40.9179 470.711 41.7864 470.651 42.7607C470.583 43.8446 470.242 45.0929 469.874 46.1229C469.038 48.4602 468.531 53.2262 471.803 54.3688C474.865 55.4376 478.008 56.4527 481.19 57.1523C485.052 58.0012 488.65 59.5919 492.355 60.7825Z" fill="#C9CB8D"/>
</g>
<path d="M492.355 60.7825C493.992 61.3085 496.521 62.4188 497.301 63.8968C498.08 65.3749 495.46 69.4444 494.337 70.0937C493.041 70.8429 491.455 71.3602 489.921 70.8672L481.021 68.0072C474.873 66.0314 469.931 62.4816 464.464 59.3502C463.752 58.9424 463.112 58.4524 462.391 58.0592C461.986 57.8384 461.452 57.8103 461.106 57.5087C459.955 56.504 460.275 56.1211 460.542 54.8489C461.297 51.2446 463.287 47.8625 464.631 44.4276C466.084 40.7145 468.408 37.0695 470.572 33.6795C471.961 31.5021 473.273 29.3511 474.206 26.9672C474.938 25.0954 473.703 30.9475 472.971 32.8193C472.095 35.0572 471.57 37.5971 471.235 39.9509C471.097 40.9179 470.711 41.7864 470.651 42.7607C470.583 43.8446 470.242 45.0929 469.874 46.1229C469.038 48.4602 468.531 53.2262 471.803 54.3688C474.865 55.4376 478.008 56.4527 481.19 57.1523C485.052 58.0012 488.65 59.5919 492.355 60.7825Z" stroke="black" stroke-width="3" stroke-linecap="round"/>
<g filter="url(#filter3_i_0_1)">
<path d="M528.072 55.7329C526.391 56.0976 523.759 56.9557 522.816 58.3444C521.873 59.733 523.994 64.0103 525.031 64.7599C526.227 65.6248 527.736 66.2878 529.312 65.9459L538.452 63.9627C544.767 62.5927 550.07 59.5499 555.843 56.9711C556.595 56.6353 557.286 56.2113 558.045 55.8907C558.471 55.7107 559.003 55.7337 559.38 55.4682C560.636 54.5834 560.363 54.174 560.247 52.8894C559.917 49.2501 558.34 45.7132 557.408 42.1856C556.4 38.3722 554.523 34.5433 552.775 30.9821C551.652 28.6947 550.603 26.4408 549.956 23.9926C549.448 22.0703 549.992 27.98 550.5 29.9023C551.107 32.2006 551.333 34.7645 551.391 37.1261C551.415 38.0962 551.696 38.9925 551.643 39.9626C551.584 41.0418 551.777 42.3098 552.022 43.3643C552.578 45.7572 552.528 50.5227 549.157 51.3419C546.003 52.1082 542.774 52.8137 539.543 53.203C535.622 53.6755 531.877 54.9073 528.072 55.7329Z" fill="#C9CB8D"/>
</g>
<path d="M528.072 55.7329C526.391 56.0976 523.759 56.9557 522.816 58.3444C521.873 59.733 523.994 64.0103 525.031 64.7599C526.227 65.6248 527.736 66.2878 529.312 65.9459L538.452 63.9627C544.767 62.5927 550.07 59.5499 555.843 56.9711C556.595 56.6353 557.286 56.2113 558.045 55.8907C558.471 55.7107 559.003 55.7337 559.38 55.4682C560.636 54.5834 560.363 54.174 560.247 52.8894C559.917 49.2501 558.34 45.7132 557.408 42.1856C556.4 38.3722 554.523 34.5433 552.775 30.9821C551.652 28.6947 550.603 26.4408 549.956 23.9926C549.448 22.0703 549.992 27.98 550.5 29.9023C551.107 32.2006 551.333 34.7645 551.391 37.1261C551.415 38.0962 551.696 38.9925 551.643 39.9626C551.584 41.0418 551.777 42.3098 552.022 43.3643C552.578 45.7572 552.528 50.5227 549.157 51.3419C546.003 52.1082 542.774 52.8137 539.543 53.203C535.622 53.6755 531.877 54.9073 528.072 55.7329Z" stroke="black" stroke-width="3" stroke-linecap="round"/>
<g filter="url(#filter4_ii_0_1)">
<path fill-rule="evenodd" clip-rule="evenodd" d="M284.351 202.239C276.145 200.15 252.034 194.014 250 114.21C250.053 113.906 250.106 113.599 250.159 113.289C250.625 110.569 251.122 107.67 252.16 105.152C252.931 103.281 253.617 101.398 254.298 99.5245C255.896 95.1321 257.476 90.7912 260.108 86.7714C260.937 85.5065 261.759 84.2327 262.582 82.957C265.236 78.8456 267.902 74.7157 270.821 70.8092C271.522 69.8715 272.226 68.8623 272.945 67.8316C275.029 64.8446 277.239 61.6779 279.849 59.5522C282.721 56.1474 291.658 49.9604 294.234 49.3504C296.36 48.8472 298.202 48.9893 300.215 49.1446C300.768 49.1873 301.335 49.231 301.923 49.2625C310.305 48.4895 330.026 66.2466 332.939 70.6333C333.683 71.754 334.444 72.8271 335.199 73.8929C336.644 75.9333 338.071 77.9474 339.332 80.2194C339.989 81.4014 340.386 82.8257 340.768 84.1938C340.907 84.6915 341.044 85.1817 341.19 85.6501C341.592 86.9372 342.036 88.2193 342.481 89.5032C343.301 91.8707 344.123 94.2441 344.689 96.6653C345.06 98.25 345.373 99.9177 345.69 101.608C346.386 105.316 347.102 109.13 348.49 112.408C350.062 116.12 350.349 120.895 350.607 125.202C350.674 126.313 350.739 127.392 350.823 128.414C351.303 134.228 350.726 139.987 350.045 145.739C349.726 148.437 348.933 151.186 348.166 153.786C347.877 154.769 347.684 155.808 347.491 156.85C347.194 158.45 346.896 160.057 346.244 161.481C345.051 164.089 344.032 166.744 343.013 169.399C342.064 171.873 341.114 174.347 340.024 176.784C336.491 184.674 332.757 192.66 326.719 198.946C322.005 203.854 299.272 203.18 285.681 202.596C285.304 202.481 284.858 202.368 284.351 202.239ZM292.43 158.996C290.679 156.86 289.054 154.433 287.564 152.106C285.228 148.456 283.88 144.404 282.522 140.324C281.648 137.697 280.77 135.059 279.622 132.507C275.471 123.284 275.621 116.007 279.121 105.551C282.621 99.0071 288.528 94.6724 295.768 94.2466C303.563 93.788 309.73 99.6849 313.92 105.551C315.122 107.234 336.122 142.007 306.061 158.738C304.417 160.524 294.122 163.007 292.43 158.996Z" fill="#232323"/>
</g>
<path d="M250 114.21L248.522 113.953L248.497 114.1L248.5 114.249L250 114.21ZM284.351 202.239L284.721 200.785L284.721 200.785L284.351 202.239ZM250.159 113.289L248.68 113.036L248.68 113.036L250.159 113.289ZM252.16 105.152L250.773 104.58L250.773 104.58L252.16 105.152ZM254.298 99.5245L255.708 100.037L254.298 99.5245ZM260.108 86.7714L258.853 85.9496L258.853 85.9496L260.108 86.7714ZM262.582 82.957L263.843 83.7705L263.843 83.7705L262.582 82.957ZM270.821 70.8092L272.023 71.707L272.023 71.707L270.821 70.8092ZM272.945 67.8316L271.715 66.9733L271.715 66.9733L272.945 67.8316ZM279.849 59.5522L280.797 60.7153L280.906 60.6266L280.996 60.5192L279.849 59.5522ZM294.234 49.3504L293.889 47.8908L293.889 47.8908L294.234 49.3504ZM300.215 49.1446L300.099 50.6401L300.099 50.6401L300.215 49.1446ZM301.923 49.2625L301.843 50.7604L301.952 50.7662L302.061 50.7562L301.923 49.2625ZM332.939 70.6333L331.69 71.4632L331.69 71.4632L332.939 70.6333ZM335.199 73.8929L333.975 74.76L333.975 74.76L335.199 73.8929ZM339.332 80.2194L338.021 80.9476L338.021 80.9476L339.332 80.2194ZM340.768 84.1938L342.213 83.7907L342.213 83.7907L340.768 84.1938ZM341.19 85.6501L339.758 86.0976L339.758 86.0976L341.19 85.6501ZM342.481 89.5032L341.063 89.9941L341.063 89.9941L342.481 89.5032ZM344.689 96.6653L343.228 97.0069L343.228 97.0069L344.689 96.6653ZM345.69 101.608L344.216 101.884L344.216 101.884L345.69 101.608ZM348.49 112.408L347.109 112.992L347.109 112.992L348.49 112.408ZM350.607 125.202L352.104 125.113L352.104 125.113L350.607 125.202ZM350.823 128.414L349.328 128.537L349.328 128.537L350.823 128.414ZM350.045 145.739L351.535 145.915L351.535 145.915L350.045 145.739ZM348.166 153.786L346.728 153.362L346.728 153.362L348.166 153.786ZM347.491 156.85L346.016 156.577L346.016 156.577L347.491 156.85ZM346.244 161.481L344.88 160.857L344.88 160.857L346.244 161.481ZM343.013 169.399L341.613 168.861L341.613 168.861L343.013 169.399ZM340.024 176.784L341.393 177.397L341.393 177.397L340.024 176.784ZM326.719 198.946L327.801 199.985L327.801 199.985L326.719 198.946ZM285.681 202.596L285.245 204.031L285.427 204.086L285.617 204.095L285.681 202.596ZM287.564 152.106L286.3 152.914L286.3 152.914L287.564 152.106ZM292.43 158.996L293.812 158.413L293.728 158.213L293.59 158.045L292.43 158.996ZM282.522 140.324L281.099 140.798L281.099 140.798L282.522 140.324ZM279.622 132.507L278.254 133.123L278.254 133.123L279.622 132.507ZM279.121 105.551L277.798 104.844L277.739 104.955L277.699 105.075L279.121 105.551ZM295.768 94.2466L295.856 95.744L295.768 94.2466ZM313.92 105.551L312.699 106.423L312.699 106.423L313.92 105.551ZM306.061 158.738L305.331 157.427L305.12 157.544L304.957 157.722L306.061 158.738ZM248.5 114.249C249.52 154.258 256.073 176.057 263.587 188.159C267.357 194.231 271.367 197.859 275.023 200.104C278.673 202.345 281.906 203.164 283.981 203.692L284.721 200.785C282.694 200.269 279.835 199.538 276.593 197.547C273.357 195.561 269.674 192.275 266.136 186.577C259.034 175.137 252.514 153.966 251.5 114.172L248.5 114.249ZM248.68 113.036C248.627 113.346 248.575 113.651 248.522 113.953L251.478 114.468C251.531 114.161 251.584 113.852 251.637 113.543L248.68 113.036ZM250.773 104.58C249.66 107.28 249.14 110.351 248.68 113.036L251.637 113.543C252.109 110.788 252.583 108.06 253.547 105.724L250.773 104.58ZM252.889 99.0117C252.205 100.89 251.531 102.743 250.773 104.58L253.547 105.724C254.332 103.819 255.028 101.906 255.708 100.037L252.889 99.0117ZM258.853 85.9496C256.11 90.1379 254.478 94.6432 252.889 99.0117L255.708 100.037C257.315 95.6211 258.841 91.4445 261.363 87.5932L258.853 85.9496ZM261.322 82.1435C260.498 83.4198 259.679 84.6895 258.853 85.9496L261.363 87.5932C262.195 86.3235 263.02 85.0455 263.843 83.7705L261.322 82.1435ZM269.62 69.9114C266.665 73.8659 263.971 78.0395 261.322 82.1435L263.843 83.7705C266.502 79.6517 269.14 75.5654 272.023 71.707L269.62 69.9114ZM271.715 66.9733C270.993 68.0081 270.303 68.9967 269.62 69.9114L272.023 71.707C272.741 70.7463 273.459 69.7165 274.175 68.69L271.715 66.9733ZM278.902 58.389C276.097 60.6732 273.768 64.0316 271.715 66.9733L274.175 68.69C276.291 65.6577 278.381 62.6826 280.797 60.7153L278.902 58.389ZM293.889 47.8908C293.006 48.0998 291.792 48.7089 290.553 49.4241C289.261 50.1704 287.774 51.1328 286.29 52.176C283.36 54.2351 280.271 56.7253 278.703 58.5851L280.996 60.5192C282.299 58.9743 285.115 56.6687 288.015 54.6305C289.445 53.6252 290.856 52.7136 292.054 52.022C293.305 51.2991 294.174 50.9061 294.58 50.8101L293.889 47.8908ZM300.33 47.649C298.334 47.4951 296.272 47.3267 293.889 47.8908L294.58 50.8101C296.448 50.3678 298.069 50.4836 300.099 50.6401L300.33 47.649ZM302.004 47.7646C301.435 47.7342 300.886 47.6919 300.33 47.649L300.099 50.6401C300.651 50.6826 301.234 50.7277 301.843 50.7604L302.004 47.7646ZM334.189 69.8035C333.357 68.5508 331.464 66.516 329.076 64.2472C326.651 61.944 323.612 59.3036 320.398 56.8252C317.19 54.3511 313.773 52.0117 310.597 50.3326C307.494 48.6924 304.351 47.5323 301.786 47.7688L302.061 50.7562C303.687 50.6062 306.151 51.3758 309.195 52.9848C312.165 54.5547 315.432 56.7839 318.566 59.2008C321.694 61.6134 324.655 64.1864 327.01 66.4224C329.4 68.6926 331.065 70.5224 331.69 71.4632L334.189 69.8035ZM336.423 73.0259C335.666 71.9573 334.919 70.9023 334.189 69.8035L331.69 71.4632C332.448 72.6057 333.222 73.6969 333.975 74.76L336.423 73.0259ZM340.644 79.4913C339.336 77.1362 337.862 75.0573 336.423 73.0259L333.975 74.76C335.426 76.8092 336.806 78.7585 338.021 80.9476L340.644 79.4913ZM342.213 83.7907C341.842 82.4617 341.402 80.8565 340.644 79.4913L338.021 80.9476C338.576 81.9462 338.93 83.1896 339.323 84.597L342.213 83.7907ZM342.622 85.2026C342.483 84.7602 342.353 84.2927 342.213 83.7907L339.323 84.597C339.461 85.0902 339.604 85.6032 339.758 86.0976L342.622 85.2026ZM343.898 89.0124C343.452 87.7248 343.016 86.4642 342.622 85.2026L339.758 86.0976C340.168 87.4101 340.62 88.7139 341.063 89.9941L343.898 89.0124ZM346.15 96.3237C345.562 93.8139 344.714 91.367 343.898 89.0124L341.063 89.9941C341.888 92.3744 342.683 94.6742 343.228 97.0069L346.15 96.3237ZM347.164 101.331C346.848 99.6474 346.529 97.9464 346.15 96.3237L343.228 97.0069C343.59 98.5536 343.897 100.188 344.216 101.884L347.164 101.331ZM349.872 111.823C348.559 108.722 347.867 105.075 347.164 101.331L344.216 101.884C344.905 105.556 345.646 109.538 347.109 112.992L349.872 111.823ZM352.104 125.113C351.85 120.878 351.564 115.82 349.872 111.823L347.109 112.992C348.56 116.42 348.847 120.913 349.11 125.292L352.104 125.113ZM352.318 128.29C352.235 127.288 352.171 126.227 352.104 125.113L349.11 125.292C349.176 126.399 349.242 127.496 349.328 128.537L352.318 128.29ZM351.535 145.915C352.216 140.162 352.812 134.269 352.318 128.29L349.328 128.537C349.795 134.186 349.237 139.811 348.556 145.563L351.535 145.915ZM349.605 154.21C350.367 151.626 351.198 148.759 351.535 145.915L348.556 145.563C348.254 148.116 347.498 150.746 346.728 153.362L349.605 154.21ZM348.965 157.124C349.162 156.067 349.341 155.105 349.605 154.21L346.728 153.362C346.412 154.432 346.206 155.549 346.016 156.577L348.965 157.124ZM347.608 162.105C348.35 160.483 348.676 158.686 348.965 157.124L346.016 156.577C345.712 158.213 345.441 159.631 344.88 160.857L347.608 162.105ZM344.414 169.936C345.435 167.274 346.438 164.663 347.608 162.105L344.88 160.857C343.664 163.515 342.629 166.213 341.613 168.861L344.414 169.936ZM341.393 177.397C342.503 174.917 343.467 172.404 344.414 169.936L341.613 168.861C340.661 171.342 339.726 173.778 338.655 176.171L341.393 177.397ZM327.801 199.985C334.043 193.486 337.87 185.266 341.393 177.397L338.655 176.171C335.113 184.082 331.47 191.835 325.637 197.907L327.801 199.985ZM285.617 204.095C292.412 204.387 301.553 204.704 309.599 204.329C313.618 204.141 317.415 203.779 320.531 203.138C322.09 202.818 323.515 202.421 324.728 201.924C325.928 201.433 327.01 200.808 327.801 199.985L325.637 197.907C325.249 198.311 324.589 198.739 323.591 199.148C322.606 199.551 321.375 199.902 319.927 200.2C317.031 200.795 313.411 201.148 309.459 201.332C301.562 201.701 292.541 201.389 285.746 201.097L285.617 204.095ZM283.981 203.692C284.499 203.824 284.908 203.929 285.245 204.031L286.118 201.161C285.701 201.034 285.218 200.912 284.721 200.785L283.981 203.692ZM286.3 152.914C287.797 155.253 289.462 157.74 291.27 159.947L293.59 158.045C291.897 155.979 290.31 153.613 288.827 151.297L286.3 152.914ZM281.099 140.798C282.447 144.849 283.847 149.081 286.3 152.914L288.827 151.297C286.609 147.831 285.313 143.96 283.945 139.85L281.099 140.798ZM278.254 133.123C279.365 135.593 280.221 138.159 281.099 140.798L283.945 139.85C283.075 137.235 282.174 134.524 280.99 131.892L278.254 133.123ZM277.699 105.075C275.919 110.391 274.956 114.999 275.002 119.507C275.049 124.03 276.11 128.36 278.254 133.123L280.99 131.892C278.982 127.431 278.044 123.51 278.002 119.476C277.961 115.425 278.823 111.168 280.543 106.027L277.699 105.075ZM295.68 92.7491C287.837 93.2105 281.503 97.9169 277.798 104.844L280.444 106.259C283.739 100.097 289.219 96.1344 295.856 95.744L295.68 92.7491ZM315.141 104.679C310.909 98.7559 304.316 92.2411 295.68 92.7491L295.856 95.744C302.811 95.3349 308.55 100.614 312.699 106.423L315.141 104.679ZM306.79 160.048C314.584 155.711 319.157 150.144 321.534 144.159C323.9 138.203 324.045 131.951 323.197 126.28C321.51 114.987 315.837 105.654 315.141 104.679L312.699 106.423C313.205 107.131 318.632 116.026 320.23 126.723C321.026 132.047 320.859 137.73 318.746 143.052C316.643 148.346 312.568 153.4 305.331 157.427L306.79 160.048ZM291.048 159.579C291.731 161.197 293.224 161.995 294.683 162.355C296.151 162.718 297.845 162.713 299.434 162.531C301.039 162.347 302.64 161.97 303.964 161.514C304.627 161.286 305.243 161.03 305.767 160.756C306.266 160.495 306.786 160.165 307.164 159.753L304.957 157.722C304.957 157.722 304.956 157.722 304.956 157.723C304.956 157.723 304.955 157.724 304.954 157.725C304.952 157.727 304.95 157.729 304.946 157.732C304.94 157.739 304.93 157.748 304.916 157.759C304.889 157.782 304.851 157.812 304.8 157.847C304.696 157.919 304.557 158.003 304.378 158.097C304.018 158.285 303.547 158.484 302.987 158.677C301.866 159.064 300.479 159.392 299.093 159.551C297.691 159.711 296.391 159.687 295.402 159.443C294.404 159.196 293.976 158.8 293.812 158.413L291.048 159.579Z" fill="black"/>
<g filter="url(#filter5_ii_0_1)">
<path fill-rule="evenodd" clip-rule="evenodd" d="M686.974 201.962C676.677 200.502 648.123 196.453 654 115.865C654.052 115.567 654.105 115.266 654.158 114.963C654.622 112.299 655.118 109.46 656.153 106.994C656.922 105.161 657.605 103.317 658.285 101.482C659.878 97.1806 661.452 92.9292 664.077 88.9923C664.903 87.7535 665.723 86.5059 666.544 85.2566C669.19 81.2299 671.848 77.1852 674.757 73.3594C675.456 72.441 676.158 71.4526 676.875 70.4432C678.953 67.5178 681.156 64.4164 683.758 62.3345C686.621 59 695.53 52.9406 698.099 52.3432C700.218 51.8504 702.055 51.9895 704.061 52.1416C704.613 52.1834 705.178 52.2262 705.765 52.2571C714.121 51.5 733.782 68.8908 736.686 73.1871C737.428 74.2847 738.186 75.3356 738.939 76.3795C740.38 78.3777 741.802 80.3503 743.06 82.5755C743.714 83.733 744.11 85.128 744.491 86.4679C744.629 86.9553 744.766 87.4354 744.912 87.8941C745.313 89.1547 745.755 90.4104 746.199 91.6679C747.016 93.9864 747.835 96.3109 748.4 98.6821C748.77 100.234 749.082 101.867 749.398 103.522C750.092 107.154 750.806 110.89 752.19 114.1C753.757 117.735 754.043 122.413 754.3 126.631C754.367 127.718 754.431 128.775 754.515 129.776C754.994 135.47 754.419 141.11 753.74 146.744C753.422 149.386 752.631 152.078 751.867 154.625C751.578 155.587 751.386 156.605 751.193 157.626C750.897 159.192 750.6 160.767 749.95 162.161C748.761 164.715 747.745 167.315 746.73 169.915C745.783 172.339 744.836 174.762 743.749 177.148C740.228 184.876 736.504 192.697 730.485 198.853C725.785 203.66 703.121 203 689.572 202.428C688.953 202.243 688.067 202.117 686.974 201.962ZM695.515 161.775C677.084 159.779 678.706 118.786 682.206 108.33C685.706 101.786 691.613 97.451 698.852 97.0251C706.648 96.5666 712.814 102.463 717.005 108.33C718.206 110.012 739.206 144.786 709.145 161.516C707.502 163.302 701.5 164 695.515 161.775Z" fill="#232323"/>
</g>
<path d="M654 115.865L652.523 115.603L652.509 115.679L652.504 115.756L654 115.865ZM686.974 201.962L686.764 203.448L686.764 203.448L686.974 201.962ZM654.158 114.963L655.636 115.221L655.636 115.221L654.158 114.963ZM656.153 106.994L657.536 107.574L656.153 106.994ZM658.285 101.482L656.878 100.961L656.878 100.961L658.285 101.482ZM664.077 88.9923L662.829 88.1602L662.829 88.1602L664.077 88.9923ZM666.544 85.2566L665.29 84.4328L665.29 84.4328L666.544 85.2566ZM674.757 73.3594L673.563 72.4513L673.563 72.4513L674.757 73.3594ZM676.875 70.4432L678.098 71.3118L678.098 71.3118L676.875 70.4432ZM683.758 62.3345L684.695 63.5058L684.805 63.4181L684.896 63.3116L683.758 62.3345ZM698.099 52.3432L697.759 50.8822L697.759 50.8822L698.099 52.3432ZM704.061 52.1416L703.948 53.6373L703.948 53.6373L704.061 52.1416ZM705.765 52.2571L705.686 53.755L705.793 53.7607L705.9 53.751L705.765 52.2571ZM736.686 73.1871L737.929 72.347L737.929 72.347L736.686 73.1871ZM738.939 76.3795L740.155 75.5021L740.155 75.5021L738.939 76.3795ZM743.06 82.5755L744.366 81.8374L744.366 81.8374L743.06 82.5755ZM744.491 86.4679L743.048 86.8777L743.048 86.8777L744.491 86.4679ZM744.912 87.8941L746.341 87.4393L746.341 87.4393L744.912 87.8941ZM746.199 91.6679L744.784 92.1665L744.784 92.1665L746.199 91.6679ZM748.4 98.6821L746.941 99.0296L746.941 99.0296L748.4 98.6821ZM749.398 103.522L747.925 103.804L747.925 103.804L749.398 103.522ZM752.19 114.1L753.567 113.506L753.567 113.506L752.19 114.1ZM754.3 126.631L755.798 126.539L755.798 126.539L754.3 126.631ZM754.515 129.776L753.021 129.901L753.021 129.901L754.515 129.776ZM753.74 146.744L752.251 146.564L752.251 146.564L753.74 146.744ZM751.867 154.625L753.304 155.056L753.304 155.056L751.867 154.625ZM751.193 157.626L752.667 157.904L752.667 157.904L751.193 157.626ZM749.95 162.161L751.31 162.795L751.31 162.795L749.95 162.161ZM746.73 169.915L748.127 170.461L748.127 170.461L746.73 169.915ZM743.749 177.148L745.114 177.77L745.114 177.77L743.749 177.148ZM730.485 198.853L729.412 197.805L729.412 197.805L730.485 198.853ZM689.572 202.428L689.143 203.865L689.322 203.919L689.509 203.927L689.572 202.428ZM682.206 108.33L680.883 107.623L680.823 107.734L680.783 107.854L682.206 108.33ZM695.515 161.775L696.037 160.369L695.862 160.304L695.676 160.283L695.515 161.775ZM698.852 97.0251L698.764 95.5277L698.764 95.5277L698.852 97.0251ZM717.005 108.33L715.784 109.202L715.784 109.202L717.005 108.33ZM709.145 161.516L708.416 160.206L708.205 160.323L708.041 160.501L709.145 161.516ZM652.504 115.756C649.557 156.165 655.204 177.743 663.183 189.432C671.246 201.245 681.513 202.703 686.764 203.448L687.185 200.477C682.138 199.762 672.98 198.465 665.661 187.741C658.257 176.894 652.566 156.153 655.496 115.975L652.504 115.756ZM652.68 114.705C652.627 115.009 652.575 115.308 652.523 115.603L655.477 116.127C655.53 115.827 655.583 115.524 655.636 115.221L652.68 114.705ZM654.77 106.413C653.657 109.064 653.139 112.077 652.68 114.705L655.636 115.221C656.106 112.522 656.578 109.856 657.536 107.574L654.77 106.413ZM656.878 100.961C656.197 102.801 655.525 104.615 654.77 106.413L657.536 107.574C658.32 105.707 659.013 103.833 659.691 102.003L656.878 100.961ZM662.829 88.1602C660.092 92.2664 658.462 96.6833 656.878 100.961L659.691 102.003C661.293 97.6779 662.813 93.592 665.325 89.8243L662.829 88.1602ZM665.29 84.4328C664.469 85.6829 663.652 86.9263 662.829 88.1602L665.325 89.8243C666.154 88.5807 666.977 87.329 667.797 86.0803L665.29 84.4328ZM673.563 72.4513C670.617 76.3252 667.931 80.4136 665.29 84.4328L667.797 86.0803C670.448 82.0463 673.078 78.0453 675.951 74.2674L673.563 72.4513ZM675.652 69.5746C674.932 70.5881 674.244 71.556 673.563 72.4513L675.951 74.2674C676.667 73.3261 677.384 72.3171 678.098 71.3118L675.652 69.5746ZM682.821 61.1632C680.023 63.4018 677.698 66.6937 675.652 69.5746L678.098 71.3118C680.207 68.342 682.289 65.431 684.695 63.5058L682.821 61.1632ZM697.759 50.8822C696.881 51.0864 695.672 51.682 694.437 52.3828C693.149 53.1137 691.667 54.0563 690.187 55.078C687.266 57.0943 684.185 59.5339 682.62 61.3575L684.896 63.3116C686.193 61.8006 688.999 59.5433 691.891 57.5469C693.317 56.5623 694.723 55.6696 695.917 54.9921C697.165 54.2846 698.032 53.8988 698.439 53.8042L697.759 50.8822ZM704.175 50.6459C702.185 50.4951 700.132 50.3305 697.759 50.8822L698.439 53.8042C700.305 53.3703 701.925 53.484 703.948 53.6373L704.175 50.6459ZM705.844 50.7592C705.277 50.7293 704.729 50.6879 704.175 50.6459L703.948 53.6373C704.498 53.6789 705.079 53.7231 705.686 53.755L705.844 50.7592ZM737.929 72.347C737.097 71.1172 735.209 69.1227 732.828 66.9011C730.41 64.6451 727.38 62.0589 724.176 59.6315C720.977 57.2082 717.571 54.9171 714.404 53.2727C711.31 51.6656 708.18 50.5321 705.629 50.7632L705.9 53.751C707.528 53.6035 709.989 54.36 713.022 55.935C715.983 57.4727 719.24 59.6558 722.364 62.0227C725.483 64.3853 728.435 66.9051 730.781 69.0946C733.164 71.3184 734.823 73.1089 735.443 74.0272L737.929 72.347ZM740.155 75.5021C739.401 74.4555 738.656 73.4227 737.929 72.347L735.443 74.0272C736.2 75.1466 736.971 76.2157 737.722 77.2568L740.155 75.5021ZM744.366 81.8374C743.061 79.5289 741.59 77.4914 740.155 75.5021L737.722 77.2568C739.17 79.2641 740.543 81.1716 741.754 83.3136L744.366 81.8374ZM745.934 86.0581C745.564 84.7574 745.124 83.1797 744.366 81.8374L741.754 83.3136C742.304 84.2864 742.656 85.4985 743.048 86.8777L745.934 86.0581ZM746.341 87.4393C746.204 87.0069 746.074 86.5499 745.934 86.058L743.048 86.8777C743.185 87.3607 743.328 87.8639 743.482 88.3489L746.341 87.4393ZM747.613 91.1692C747.169 89.908 746.734 88.6741 746.341 87.4393L743.482 88.3489C743.892 89.6352 744.342 90.9129 744.784 92.1665L747.613 91.1692ZM749.859 98.3347C749.273 95.8736 748.426 93.4747 747.613 91.1692L744.784 92.1665C745.606 94.4982 746.398 96.7481 746.941 99.0296L749.859 98.3347ZM750.871 103.241C750.556 101.592 750.238 99.9253 749.859 98.3347L746.941 99.0296C747.301 100.543 747.607 102.142 747.925 103.804L750.871 103.241ZM753.567 113.506C752.261 110.475 751.573 106.909 750.871 103.241L747.925 103.804C748.612 107.399 749.352 111.305 750.812 114.693L753.567 113.506ZM755.798 126.539C755.544 122.395 755.259 117.43 753.567 113.506L750.812 114.693C752.255 118.041 752.541 122.431 752.803 126.722L755.798 126.539ZM756.01 129.65C755.928 128.67 755.864 127.63 755.798 126.539L752.803 126.722C752.869 127.806 752.935 128.881 753.021 129.901L756.01 129.65ZM755.229 146.923C755.908 141.288 756.503 135.512 756.01 129.65L753.021 129.901C753.486 135.427 752.93 140.932 752.251 146.564L755.229 146.923ZM753.304 155.056C754.063 152.525 754.893 149.713 755.229 146.923L752.251 146.564C751.95 149.059 751.199 151.631 750.43 154.194L753.304 155.056ZM752.667 157.904C752.863 156.868 753.041 155.93 753.304 155.056L750.43 154.194C750.115 155.245 749.909 156.341 749.719 157.347L752.667 157.904ZM751.31 162.795C752.053 161.199 752.378 159.433 752.667 157.904L749.719 157.347C749.416 158.951 749.147 160.334 748.591 161.528L751.31 162.795ZM748.127 170.461C749.145 167.854 750.144 165.298 751.31 162.795L748.591 161.528C747.378 164.132 746.345 166.777 745.332 169.37L748.127 170.461ZM745.114 177.77C746.221 175.34 747.183 172.878 748.127 170.461L745.332 169.37C744.383 171.799 743.451 174.184 742.384 176.526L745.114 177.77ZM731.557 199.902C737.785 193.533 741.602 185.478 745.114 177.77L742.384 176.526C738.854 184.274 735.224 191.861 729.412 197.805L731.557 199.902ZM689.509 203.927C696.283 204.213 705.396 204.524 713.416 204.156C717.422 203.972 721.206 203.617 724.312 202.99C725.865 202.677 727.284 202.288 728.493 201.802C729.688 201.321 730.767 200.71 731.557 199.902L729.412 197.805C729.027 198.199 728.37 198.618 727.373 199.019C726.39 199.414 725.162 199.758 723.718 200.05C720.829 200.633 717.219 200.978 713.278 201.159C705.404 201.52 696.41 201.215 689.635 200.929L689.509 203.927ZM686.764 203.448C687.906 203.61 688.658 203.72 689.143 203.865L690.002 200.991C689.249 200.766 688.227 200.625 687.185 200.477L686.764 203.448ZM680.783 107.854C679.848 110.647 679.08 115.318 678.72 120.711C678.359 126.133 678.403 132.396 679.147 138.409C679.889 144.401 681.338 150.255 683.857 154.781C686.39 159.334 690.105 162.698 695.353 163.266L695.676 160.283C691.709 159.854 688.715 157.344 686.478 153.323C684.226 149.275 682.844 143.853 682.125 138.04C681.408 132.249 681.362 126.179 681.713 120.911C682.066 115.615 682.813 111.241 683.628 108.806L680.783 107.854ZM698.764 95.5277C690.921 95.989 684.588 100.695 680.883 107.623L683.528 109.037C686.824 102.876 692.304 98.9129 698.94 98.5225L698.764 95.5277ZM718.225 107.458C713.994 101.534 707.4 95.0197 698.764 95.5277L698.94 98.5225C705.895 98.1134 711.634 103.392 715.784 109.202L718.225 107.458ZM709.874 162.827C717.668 158.489 722.241 152.923 724.618 146.938C726.984 140.982 727.129 134.73 726.282 129.058C724.595 117.766 718.921 108.432 718.225 107.458L715.784 109.202C716.29 109.91 721.717 118.805 723.315 129.502C724.11 134.825 723.944 140.509 721.83 145.831C719.727 151.124 715.652 156.178 708.416 160.206L709.874 162.827ZM694.992 163.181C698.177 164.365 701.377 164.777 704.031 164.648C705.358 164.583 706.582 164.382 707.618 164.053C708.625 163.733 709.588 163.25 710.249 162.532L708.041 160.501C707.88 160.675 707.477 160.95 706.71 161.193C705.971 161.428 705.012 161.597 703.885 161.652C701.631 161.761 698.837 161.41 696.037 160.369L694.992 163.181Z" fill="black"/>
<path d="M731.971 70.3238C736.132 68.6593 741.242 65.4406 743.997 61.8004C745.517 59.7922 745.275 56.6629 742.216 56.6629C739.863 56.6629 740.445 59.3576 741.691 60.6036C745.062 63.9747 751.707 61.7344 755.148 59.5527C757.654 57.9632 760.148 55.8385 762.153 53.6272C763.928 51.6701 766.324 49.22 767.121 46.68C767.43 45.6948 767.264 43.0659 765.539 43.0021C764.007 42.9453 762.765 44.0674 762.621 45.5088C762.271 49.0104 766.723 49.434 769.553 49.2925C771.73 49.1836 774.101 48.7509 776.223 48.2417C777.121 46.68 778.121 45.5088 778.121 45.0088" stroke="black" stroke-width="3" stroke-linecap="round"/>
<path d="M731.302 79.1918C731.302 77.8733 731.232 76.5108 731.232 75.2161" stroke="black" stroke-width="2" stroke-linecap="round"/>
<path d="M724.676 74.7278C725.477 74.327 726.221 73.8222 727.016 73.4026C727.452 73.1726 727.846 72.8574 728.303 72.7051" stroke="black" stroke-width="2" stroke-linecap="round"/>
<path d="M728.79 69.357C727.929 69.2852 727.08 68.7951 726.252 68.5549C725.696 68.3934 725.149 68.2129 724.605 68.0317" stroke="black" stroke-width="2" stroke-linecap="round"/>
<path d="M403.846 135.415C403.846 133.299 403.918 131.192 403.918 129.077C403.918 128.723 404.204 128.906 404.278 128.573C404.32 128.382 404.453 128.273 404.534 128.101C404.623 127.913 404.614 127.748 404.746 127.565C404.892 127.362 405.001 127.149 405.126 126.933C405.193 126.817 405.236 126.569 405.33 126.485C405.805 126.063 406.172 125.949 406.799 125.796C407.546 125.615 408.249 125.506 409.015 125.46C412.33 125.264 415.606 124.9 418.93 124.9C422.021 124.9 425.324 124.662 428.336 125.516C428.865 125.666 429.402 125.768 429.933 125.909C430.092 125.951 430.313 125.937 430.457 126.017C430.904 126.265 430.866 126.484 430.929 126.985C430.974 127.346 431.136 127.707 431.197 128.069C431.301 128.681 431.347 129.305 431.357 129.926C431.368 130.63 431.521 131.36 431.557 132.07C431.59 132.71 431.598 133.356 431.517 133.991C431.432 134.664 431.562 135.356 431.493 136.031C431.427 136.674 431.369 137.369 431.245 138.008C431.063 138.943 430.809 139.933 430.453 140.816C429.911 142.161 429.261 143.672 428.2 144.689C426.792 146.039 424.533 146.218 422.675 146.218C421.932 146.218 421.232 146.214 420.498 146.106C419.344 145.935 418.201 145.711 417.033 145.626C414.12 145.413 411.047 144.939 408.335 143.837C407.131 143.348 405.956 142.612 405.11 141.621C404.758 141.208 404.389 140.79 404.278 140.236C404.147 139.583 403.929 138.959 403.862 138.288C403.768 137.346 403.846 136.36 403.846 135.415Z" fill="#292929" stroke="black" stroke-width="2" stroke-linecap="round"/>
<g filter="url(#filter6_ii_0_1)">
<path d="M359.409 83.838C360.129 78.6723 361.14 68.8453 361.573 63.6714C364.571 60.0381 385.661 59 388.324 59C393.676 59 401.518 61.4573 405.425 66.1254C410.995 72.7808 417.127 84.9504 421.037 93.2573C421.537 94.3188 426.607 80.6069 428.152 77.6537C430.451 73.2575 433.819 71.1844 436.703 67.7387C441.072 62.517 446.339 61.4199 452.341 61.4199C457.346 61.4199 463.314 61.0759 467.811 63.8399C472.73 66.8625 475.061 73.197 476.699 79.3006C478.221 84.967 479.29 91.8283 479.85 97.719C480.51 104.666 481.843 111.684 481.987 118.692C482.32 134.783 483 150.842 483 166.956C483 173.34 482.348 184.377 481.369 190.67C480.84 194.067 480.489 200.105 478.003 201.739C472.843 205.13 454.775 206.347 449.866 201.739C448.671 196.842 447.785 164.886 447.785 156.604C446.397 148.788 443.403 122.927 442.722 114.995C441.819 119.602 435.528 120.248 418.039 128.034C384.735 125.438 391.849 114.158 388.858 111.701C388.313 116.257 388.714 120.898 388.07 125.515C387.418 130.193 386.805 135.468 386.805 140.202C386.805 146.857 385.729 153.182 384.273 159.562C382.909 165.539 388.858 204.334 362.572 204.334C355.077 204.334 353.406 207.144 351.364 201.22C348.295 192.312 351.364 167.087 351.364 157.646C351.364 144.955 352.734 132.987 354.121 120.439C354.935 113.078 355.663 105.681 356.484 98.324C357.03 93.4313 358.736 88.6604 359.409 83.838Z" fill="#232323"/>
</g>
<path d="M359.409 83.838C360.129 78.6723 361.14 68.8453 361.573 63.6714C364.571 60.0381 385.661 59 388.324 59C393.676 59 401.518 61.4573 405.425 66.1254C410.995 72.7808 417.127 84.9504 421.037 93.2573C421.537 94.3188 426.607 80.6069 428.152 77.6537C430.451 73.2575 433.819 71.1844 436.703 67.7387C441.072 62.517 446.339 61.4199 452.341 61.4199C457.346 61.4199 463.314 61.0759 467.811 63.8399C472.73 66.8625 475.061 73.197 476.699 79.3006C478.221 84.967 479.29 91.8283 479.85 97.719C480.51 104.666 481.843 111.684 481.987 118.692C482.32 134.783 483 150.842 483 166.956C483 173.34 482.348 184.377 481.369 190.67C480.84 194.067 480.489 200.105 478.003 201.739C472.843 205.13 454.775 206.347 449.866 201.739C448.671 196.842 447.785 164.886 447.785 156.604C446.397 148.788 443.403 122.927 442.722 114.995C441.819 119.602 435.528 120.248 418.039 128.034C384.735 125.438 391.849 114.158 388.858 111.701C388.313 116.257 388.714 120.898 388.07 125.515C387.418 130.193 386.805 135.468 386.805 140.202C386.805 146.857 385.729 153.182 384.273 159.562C382.909 165.539 388.858 204.334 362.572 204.334C355.077 204.334 353.406 207.144 351.364 201.22C348.295 192.312 351.364 167.087 351.364 157.646C351.364 144.955 352.734 132.987 354.121 120.439C354.935 113.078 355.663 105.681 356.484 98.324C357.03 93.4313 358.736 88.6604 359.409 83.838Z" stroke="black" stroke-width="3" stroke-linecap="round"/>
<g filter="url(#filter7_ii_0_1)">
<path d="M548.556 100.828V70.3364C550.538 68.7502 566.252 66.5343 568.111 67.3707C575.962 70.9037 582.188 74.9997 588.222 80.7165C592.255 84.5371 609.5 124.5 612.782 130.578C615.259 131.889 615.641 130.693 616.304 128.539C619.609 117.796 615.609 104.764 616.999 93.6452C617.803 87.2158 618.237 81.7122 621.494 76.1289C624.017 71.803 629.798 67 635.118 67C645.317 67 651.985 79.9584 651.985 89.1039C651.985 119.009 650.317 148.438 650.317 178.354C650.317 189.1 647.459 203 635.5 203C624.575 203 618.28 186.68 611.577 179.605C608.019 175.849 590.281 141.836 586.925 138.085C586.689 136.377 583.693 131.628 582.383 133.312C582.383 139.337 580.315 196.125 577.5 201.5C572.667 210.726 543 209 547.907 175.249C546.354 166.904 547.041 155.465 548.139 147.121C550.115 132.099 548.556 115.976 548.556 100.828Z" fill="#232323"/>
</g>
<path d="M548.556 100.828V70.3364C550.538 68.7502 566.252 66.5343 568.111 67.3707C575.962 70.9037 582.188 74.9997 588.222 80.7165C592.255 84.5371 609.5 124.5 612.782 130.578C615.259 131.889 615.641 130.693 616.304 128.539C619.609 117.796 615.609 104.764 616.999 93.6452C617.803 87.2158 618.237 81.7122 621.494 76.1289C624.017 71.803 629.798 67 635.118 67C645.317 67 651.985 79.9584 651.985 89.1039C651.985 119.009 650.317 148.438 650.317 178.354C650.317 189.1 647.459 203 635.5 203C624.575 203 618.28 186.68 611.577 179.605C608.019 175.849 590.281 141.836 586.925 138.085C586.689 136.377 583.693 131.628 582.383 133.312C582.383 139.337 580.315 196.125 577.5 201.5C572.667 210.726 543 209 547.907 175.249C546.354 166.904 547.041 155.465 548.139 147.121C550.115 132.099 548.556 115.976 548.556 100.828Z" stroke="black" stroke-width="3" stroke-linecap="round"/>
<path d="M410 129C410 138.448 410.151 146.664 410.151 156.112C410.151 157.913 410.338 159.287 410.556 161.024C410.748 162.553 410.925 164.949 411.623 166.184C413.006 168.629 416.173 168.404 417.854 166.702C418.808 165.736 420.02 165.455 420.728 164.021C421.47 162.519 421.78 161.407 422.099 159.605C422.488 157.412 422.629 155.393 422.629 153.115C422.629 151.564 422.629 150.013 422.629 148.463C422.629 147.058 422.792 145.857 422.894 144.497C423.123 141.426 422.909 138.16 422.909 135.067C422.909 133.31 422.909 131.552 422.909 129.795" stroke="black" stroke-width="3" stroke-linecap="round"/>
<path d="M410.153 155.783C410.153 146.073 410.002 137.71 410.002 128C410.734 135.277 422.468 131.235 422.97 127.491C422.97 127.313 422.97 127.148 422.97 127C422.993 127.163 422.993 127.327 422.97 127.491C422.98 131.143 423.081 140.837 422.862 143.846C422.761 145.243 422.598 146.478 422.598 147.922V152.703C422.598 155.044 423.25 157.247 422.862 159.5C422.544 161.352 422.24 163.456 421.5 165C420.794 166.474 420 167 418 167.5C416.323 169.249 411.934 168.646 410.555 166.134C409.858 164.865 409.682 162.403 409.491 160.831C409.273 159.046 410.153 157.633 410.153 155.783Z" fill="#292929"/>
<path d="M410.002 128C410.002 137.71 410.153 146.073 410.153 155.783C410.153 157.633 409.273 159.046 409.491 160.831C409.682 162.403 409.858 164.865 410.555 166.134C411.934 168.646 416.323 169.249 418 167.5C420 167 420.794 166.474 421.5 165C422.24 163.456 422.544 161.352 422.862 159.5C423.25 157.247 422.598 155.044 422.598 152.703C422.598 151.109 422.598 149.516 422.598 147.922C422.598 146.478 422.761 145.243 422.862 143.846C423.091 140.69 422.97 130.178 422.97 127C423.521 130.857 410.766 135.598 410.002 128Z" stroke="black" stroke-width="3" stroke-linecap="round"/>
<path d="M413.5 140.5C413.5 138.569 412.83 133.624 412.83 131.701C412.83 130.238 413 127.464 413 126C413 125.527 413.499 128.063 413.499 127.59C413.499 127.087 413.499 128.107 413.999 127.59C414.402 128.048 414.799 126.743 415.257 126.743C415.973 126.743 416.522 125.983 417.237 126C418.014 126.019 418.811 126.219 419.577 126.219C419.665 126.219 419.991 123.306 419.998 123.5C420.011 123.868 420.563 122.651 420.5 123C420.255 124.35 419.998 129.593 419.998 131C419.998 132.277 419.677 134.256 419.677 135.533C419.677 136.239 419.809 140.65 419.096 139.918C417.665 138.453 415.77 139.542 414.219 138.67C413.816 138.443 413.384 137.193 413.805 136.647C414.306 135.999 415.003 135.618 415.596 135.326C416.608 134.826 417.647 134.572 418.664 134.138C418.794 134.083 418.933 134.003 418.903 133.724C418.85 133.23 418.31 133.351 418.122 133.395C417.191 133.613 415.882 135.461 414.965 134.315C414.724 134.014 414.46 133.486 414.519 132.932C414.613 132.038 415.364 131.927 415.774 131.921C416.032 131.917 418.949 131.935 418.054 130.355C417.402 129.205 416.067 129.9 415.257 129.661C414.312 129.382 414.629 127.445 415.411 127.145C416.284 126.81 417.392 127.29 418.25 127.59C418.86 127.803 419.008 128.286 418.778 129.289C418.21 131.77 418.072 134.265 418.072 136.928C418.072 137.345 418.05 137.747 418.122 138.146C418.165 138.388 418.157 138.464 418.043 138.28C417.354 137.17 416.413 136.964 415.503 136.964" stroke="#292929" stroke-width="3" stroke-linecap="round"/>
<path d="M426.84 143.48C427.227 145.688 427.61 148.373 429.763 149.606C431.439 150.566 434.981 149.952 435.22 147.616C435.308 146.758 434.702 146.475 433.899 146.621C432.937 146.796 432.344 147.544 432.344 148.518C432.344 149.902 433.664 151.293 434.396 152.374C434.779 152.939 435.277 153.975 436.075 153.975" stroke="black" stroke-width="2" stroke-linecap="round"/>
<path d="M405.151 136.484C405.005 137.163 404.455 137.711 404.047 138.241C403.203 139.335 402.589 140.566 401.528 141.482C400.027 142.779 398.123 142.064 397.548 140.285C397.443 139.962 397.382 139.554 397.843 139.586C398.807 139.652 399.609 140.342 399.849 141.273C400.329 143.137 398.858 145.381 397.835 146.8C397.303 147.539 396.658 148.266 395.775 148.518" stroke="black" stroke-width="2" stroke-linecap="round"/>
<g filter="url(#filter8_ii_0_1)">
<path d="M92.8235 36.9393C90.8841 46.1203 89.8272 54.9651 89.8272 64.5083C89.8272 72.2478 92.8657 164.692 92.8657 172.431C92.8657 177.161 93.6253 181.982 93.6253 186.815C93.6253 189.384 94.0084 191.501 94.3428 193.963C94.6044 195.889 95.8374 197.482 95.9042 199.379C96.0707 204.109 96.0252 207.925 98.0143 212.342C99.5552 215.764 99.1271 219.101 97.8455 222.375C95.8722 227.417 85.5557 235.913 80.3741 229.967C75.0671 223.876 72.3559 218.607 72.3559 209.945C72.3559 198.28 72.843 186.117 75.732 174.829C77.5631 167.674 76.154 158.565 76.154 151.166C76.154 144.211 77.0093 136.548 75.9852 129.68C74.8612 122.142 75.078 114.475 74.0439 106.861C73.0231 99.3437 73.2726 91.1143 73.1155 83.5092C73.0358 79.6554 71.5962 76.1353 71.5962 72.233C71.5962 68.3266 70.9642 65.2682 70.2458 61.4895C69.2145 56.0652 67.6499 49.9203 67.0807 44.5308C66.614 40.1119 64 36.5227 64 32.1891C64 27.2709 65.1314 26.4276 68.3889 23.1326C72.2498 19.2273 86.5579 17.3057 90.9667 20.9129C93.2615 22.7905 93.6253 23.7863 93.6253 27.3501C93.6253 30.6108 93.4902 33.7834 92.8235 36.9393Z" fill="#232323"/>
</g>
<path d="M92.8235 36.9393C90.8841 46.1203 89.8272 54.9651 89.8272 64.5083C89.8272 72.2478 92.8657 164.692 92.8657 172.431C92.8657 177.161 93.6253 181.982 93.6253 186.815C93.6253 189.384 94.0084 191.501 94.3428 193.963C94.6044 195.889 95.8374 197.482 95.9042 199.379C96.0707 204.109 96.0252 207.925 98.0143 212.342C99.5552 215.764 99.1271 219.101 97.8455 222.375C95.8722 227.417 85.5557 235.913 80.3741 229.967C75.0671 223.876 72.3559 218.607 72.3559 209.945C72.3559 198.28 72.843 186.117 75.732 174.829C77.5631 167.674 76.154 158.565 76.154 151.166C76.154 144.211 77.0093 136.548 75.9852 129.68C74.8612 122.142 75.078 114.475 74.0439 106.861C73.0231 99.3437 73.2726 91.1143 73.1155 83.5092C73.0358 79.6554 71.5962 76.1353 71.5962 72.233C71.5962 68.3266 70.9642 65.2682 70.2458 61.4895C69.2145 56.0652 67.6499 49.9203 67.0807 44.5308C66.614 40.1119 64 36.5227 64 32.1891C64 27.2709 65.1314 26.4276 68.3889 23.1326C72.2498 19.2273 86.5579 17.3057 90.9667 20.9129C93.2615 22.7905 93.6253 23.7863 93.6253 27.3501C93.6253 30.6108 93.4902 33.7834 92.8235 36.9393Z" stroke="black" stroke-width="3" stroke-linecap="round"/>
<g filter="url(#filter9_ii_0_1)">
<path d="M49.7637 199.441C42.3558 201.181 33 204.584 25.397 202.54C23.7582 201.55 21.7227 198.794 20.9016 196.962C4.5 168.175 15.7553 147.422 18.1001 145.828C22.5175 142.827 25.7513 144.557 29.7622 147.619C36.8362 153.019 38.9673 162.736 45.9849 168.175C51.1779 172.201 56.735 175.146 63.1197 176.646C69.0012 178.028 74.9091 177.829 80.9712 177.748C86.5283 177.674 91.9414 176.347 97.2265 174.718C101.06 173.536 104.345 173.361 107.879 171.206C113.371 167.856 115.744 159.931 112.961 153.576C108.574 143.561 102.335 137.63 93.1546 132.778C88.7825 130.468 83.7788 130.58 79.2122 128.784C74.2603 126.836 68.8595 128.553 63.869 127.235C55.6168 125.054 46.8797 125.999 38.6553 123.826C30.7509 121.737 23.4336 116.996 18.4258 110.259C15.7888 106.711 13.47 103.86 12.2364 99.3782C10.6286 93.5361 8.79035 83.4737 11.0637 77.6165C12.0224 75.1464 12.0722 72.3897 13.116 69.9379C14.3455 67.0497 16.2105 64.2873 18.1001 61.8462C21.5209 57.4267 25.5752 55.0176 29.9576 51.9294C37.8963 46.3353 47.7457 47.5909 56.8326 47.5909C64.979 47.5909 73.5627 47.451 81.4273 49.7601C85.342 50.9096 90.0347 50.0956 93.8712 51.4474C98.184 52.9669 103.7 53.0665 108.27 52.4115C117.265 51.1223 128.712 49.5211 137.523 52.4115C139.914 53.1959 143.594 53.8808 145.341 55.9581C146.403 57.2206 148.239 58.2781 148.729 59.9868C149.316 62.0343 149.671 64.1083 150.162 66.1847C152.645 76.6844 147.698 88.7744 145.471 98.8961C144.529 103.178 140.555 107.432 136.904 109.26C133.109 111.161 129.214 109.956 125.633 107.952C120.415 105.032 115.763 101.483 111.202 97.5188C106.282 93.2432 102.563 87.4384 97.8129 82.9192C94.9861 80.23 90.9885 78.9529 87.6167 77.2033C84.9601 75.8248 81.66 73.7648 78.6258 73.6223C74.3507 73.4214 69.4007 74.2475 65.5955 76.3769C62.6204 78.0418 58.7324 80.8312 57.1584 84.1588C55.8479 86.9291 56.4775 93.2166 57.5167 96.0726C59.6643 101.975 67.5692 103.629 72.3712 106.471C75.1839 108.136 78.1494 108.271 81.1667 109.26C85.3844 110.644 89.6724 112.158 94.0341 112.945C101.464 114.286 108.746 116.031 116.023 118.11C121.027 119.539 126.753 120.907 131.301 123.55C135.522 126.004 139.828 128.297 143.321 131.883C145.568 134.19 151.008 137.215 151.791 140.526C152.272 142.558 154.372 144.778 155.309 146.758C156.337 148.931 157.727 150.88 158.371 153.232C159.996 159.166 160 165.031 160 171.206C160 180.659 157.11 192.403 149.315 198.201C146.617 200.208 143.707 202.089 140.357 202.505C134.678 203.211 129.47 205.639 123.645 205.639C117.085 205.639 110.518 205.019 104.002 205.019C97.6574 205.019 91.4465 202.156 85.1735 201.3C73.7477 199.742 61.3047 196.73 49.7637 199.441Z" fill="#232323"/>
</g>
<path d="M49.7637 199.441C42.3558 201.181 33 204.584 25.397 202.54C23.7582 201.55 21.7227 198.794 20.9016 196.962C4.5 168.175 15.7553 147.422 18.1001 145.828C22.5175 142.827 25.7513 144.557 29.7622 147.619C36.8362 153.019 38.9673 162.736 45.9849 168.175C51.1779 172.201 56.735 175.146 63.1197 176.646C69.0012 178.028 74.9091 177.829 80.9712 177.748C86.5283 177.674 91.9414 176.347 97.2265 174.718C101.06 173.536 104.345 173.361 107.879 171.206C113.371 167.856 115.744 159.931 112.961 153.576C108.574 143.561 102.335 137.63 93.1546 132.778C88.7825 130.468 83.7788 130.58 79.2122 128.784C74.2603 126.836 68.8595 128.553 63.869 127.235C55.6168 125.054 46.8797 125.999 38.6553 123.826C30.7509 121.737 23.4336 116.996 18.4258 110.259C15.7888 106.711 13.47 103.86 12.2364 99.3782C10.6286 93.5361 8.79035 83.4737 11.0637 77.6165C12.0224 75.1464 12.0722 72.3897 13.116 69.9379C14.3455 67.0497 16.2105 64.2873 18.1001 61.8462C21.5209 57.4267 25.5752 55.0176 29.9576 51.9294C37.8963 46.3353 47.7457 47.5909 56.8326 47.5909C64.979 47.5909 73.5627 47.451 81.4273 49.7601C85.342 50.9096 90.0347 50.0956 93.8712 51.4474C98.184 52.9669 103.7 53.0665 108.27 52.4115C117.265 51.1223 128.712 49.5211 137.523 52.4115C139.914 53.1959 143.594 53.8808 145.341 55.9581C146.403 57.2206 148.239 58.2781 148.729 59.9868C149.316 62.0343 149.671 64.1083 150.162 66.1847C152.645 76.6844 147.698 88.7744 145.471 98.8961C144.529 103.178 140.555 107.432 136.904 109.26C133.109 111.161 129.214 109.956 125.633 107.952C120.415 105.032 115.763 101.483 111.202 97.5188C106.282 93.2432 102.563 87.4384 97.8129 82.9192C94.9861 80.23 90.9885 78.9529 87.6167 77.2033C84.9601 75.8248 81.66 73.7648 78.6258 73.6223C74.3507 73.4214 69.4007 74.2475 65.5955 76.3769C62.6204 78.0418 58.7324 80.8312 57.1584 84.1588C55.8479 86.9291 56.4775 93.2166 57.5167 96.0726C59.6643 101.975 67.5692 103.629 72.3712 106.471C75.1839 108.136 78.1494 108.271 81.1667 109.26C85.3844 110.644 89.6724 112.158 94.0341 112.945C101.464 114.286 108.746 116.031 116.023 118.11C121.027 119.539 126.753 120.907 131.301 123.55C135.522 126.004 139.828 128.297 143.321 131.883C145.568 134.19 151.008 137.215 151.791 140.526C152.272 142.558 154.372 144.778 155.309 146.758C156.337 148.931 157.727 150.88 158.371 153.232C159.996 159.166 160 165.031 160 171.206C160 180.659 157.11 192.403 149.315 198.201C146.617 200.208 143.707 202.089 140.357 202.505C134.678 203.211 129.47 205.639 123.645 205.639C117.085 205.639 110.518 205.019 104.002 205.019C97.6574 205.019 91.4465 202.156 85.1735 201.3C73.7477 199.742 61.3047 196.73 49.7637 199.441Z" stroke="black" stroke-width="3" stroke-linecap="round"/>
<defs>
<filter id="filter0_ii_0_1" x="157.701" y="41.4984" width="93.6006" height="165.018" filterUnits="userSpaceOnUse" color-interpolation-filters="sRGB">
<feFlood flood-opacity="0" result="BackgroundImageFix"/>
<feBlend mode="normal" in="SourceGraphic" in2="BackgroundImageFix" result="shape"/>
<feColorMatrix in="SourceAlpha" type="matrix" values="0 0 0 0 0 0 0 0 0 0 0 0 0 0 0 0 0 0 127 0" result="hardAlpha"/>
<feOffset dx="8" dy="4"/>
<feComposite in2="hardAlpha" operator="arithmetic" k2="-1" k3="1"/>
<feColorMatrix type="matrix" values="0 0 0 0 0.6125 0 0 0 0 1 0 0 0 0 0.721 0 0 0 0.26 0"/>
<feBlend mode="normal" in2="shape" result="effect1_innerShadow_0_1"/>
<feColorMatrix in="SourceAlpha" type="matrix" values="0 0 0 0 0 0 0 0 0 0 0 0 0 0 0 0 0 0 127 0" result="hardAlpha"/>
<feOffset dx="-10" dy="-4"/>
<feComposite in2="hardAlpha" operator="arithmetic" k2="-1" k3="1"/>
<feColorMatrix type="matrix" values="0 0 0 0 0 0 0 0 0 0 0 0 0 0 0 0 0 0 0.25 0"/>
<feBlend mode="normal" in2="effect1_innerShadow_0_1" result="effect2_innerShadow_0_1"/>
</filter>
<filter id="filter1_ii_0_1" x="477.5" y="52.501" width="74" height="153.989" filterUnits="userSpaceOnUse" color-interpolation-filters="sRGB">
<feFlood flood-opacity="0" result="BackgroundImageFix"/>
<feBlend mode="normal" in="SourceGraphic" in2="BackgroundImageFix" result="shape"/>
<feColorMatrix in="SourceAlpha" type="matrix" values="0 0 0 0 0 0 0 0 0 0 0 0 0 0 0 0 0 0 127 0" result="hardAlpha"/>
<feOffset dx="8" dy="4"/>
<feComposite in2="hardAlpha" operator="arithmetic" k2="-1" k3="1"/>
<feColorMatrix type="matrix" values="0 0 0 0 0.6125 0 0 0 0 1 0 0 0 0 0.721 0 0 0 0.26 0"/>
<feBlend mode="normal" in2="shape" result="effect1_innerShadow_0_1"/>
<feColorMatrix in="SourceAlpha" type="matrix" values="0 0 0 0 0 0 0 0 0 0 0 0 0 0 0 0 0 0 127 0" result="hardAlpha"/>
<feOffset dx="-10" dy="-4"/>
<feComposite in2="hardAlpha" operator="arithmetic" k2="-1" k3="1"/>
<feColorMatrix type="matrix" values="0 0 0 0 0 0 0 0 0 0 0 0 0 0 0 0 0 0 0.25 0"/>
<feBlend mode="normal" in2="effect1_innerShadow_0_1" result="effect2_innerShadow_0_1"/>
</filter>
<filter id="filter2_i_0_1" x="458.759" y="25.1321" width="40.2139" height="47.4003" filterUnits="userSpaceOnUse" color-interpolation-filters="sRGB">
<feFlood flood-opacity="0" result="BackgroundImageFix"/>
<feBlend mode="normal" in="SourceGraphic" in2="BackgroundImageFix" result="shape"/>
<feColorMatrix in="SourceAlpha" type="matrix" values="0 0 0 0 0 0 0 0 0 0 0 0 0 0 0 0 0 0 127 0" result="hardAlpha"/>
<feOffset dx="-5" dy="-9"/>
<feComposite in2="hardAlpha" operator="arithmetic" k2="-1" k3="1"/>
<feColorMatrix type="matrix" values="0 0 0 0 0 0 0 0 0 0 0 0 0 0 0 0 0 0 0.25 0"/>
<feBlend mode="normal" in2="shape" result="effect1_innerShadow_0_1"/>
</filter>
<filter id="filter3_i_0_1" x="521.065" y="22.1281" width="40.8047" height="45.3951" filterUnits="userSpaceOnUse" color-interpolation-filters="sRGB">
<feFlood flood-opacity="0" result="BackgroundImageFix"/>
<feBlend mode="normal" in="SourceGraphic" in2="BackgroundImageFix" result="shape"/>
<feColorMatrix in="SourceAlpha" type="matrix" values="0 0 0 0 0 0 0 0 0 0 0 0 0 0 0 0 0 0 127 0" result="hardAlpha"/>
<feOffset dx="-1" dy="-7"/>
<feComposite in2="hardAlpha" operator="arithmetic" k2="-1" k3="1"/>
<feColorMatrix type="matrix" values="0 0 0 0 0 0 0 0 0 0 0 0 0 0 0 0 0 0 0.25 0"/>
<feBlend mode="normal" in2="shape" result="effect1_innerShadow_0_1"/>
</filter>
<filter id="filter4_ii_0_1" x="248.497" y="47.4999" width="104.003" height="157" filterUnits="userSpaceOnUse" color-interpolation-filters="sRGB">
<feFlood flood-opacity="0" result="BackgroundImageFix"/>
<feBlend mode="normal" in="SourceGraphic" in2="BackgroundImageFix" result="shape"/>
<feColorMatrix in="SourceAlpha" type="matrix" values="0 0 0 0 0 0 0 0 0 0 0 0 0 0 0 0 0 0 127 0" result="hardAlpha"/>
<feOffset dx="8" dy="4"/>
<feComposite in2="hardAlpha" operator="arithmetic" k2="-1" k3="1"/>
<feColorMatrix type="matrix" values="0 0 0 0 0.6125 0 0 0 0 1 0 0 0 0 0.721 0 0 0 0.26 0"/>
<feBlend mode="normal" in2="shape" result="effect1_innerShadow_0_1"/>
<feColorMatrix in="SourceAlpha" type="matrix" values="0 0 0 0 0 0 0 0 0 0 0 0 0 0 0 0 0 0 127 0" result="hardAlpha"/>
<feOffset dx="-10" dy="-4"/>
<feComposite in2="hardAlpha" operator="arithmetic" k2="-1" k3="1"/>
<feColorMatrix type="matrix" values="0 0 0 0 0 0 0 0 0 0 0 0 0 0 0 0 0 0 0.25 0"/>
<feBlend mode="normal" in2="effect1_innerShadow_0_1" result="effect2_innerShadow_0_1"/>
</filter>
<filter id="filter5_ii_0_1" x="651.711" y="50.4999" width="104.48" height="153.824" filterUnits="userSpaceOnUse" color-interpolation-filters="sRGB">
<feFlood flood-opacity="0" result="BackgroundImageFix"/>
<feBlend mode="normal" in="SourceGraphic" in2="BackgroundImageFix" result="shape"/>
<feColorMatrix in="SourceAlpha" type="matrix" values="0 0 0 0 0 0 0 0 0 0 0 0 0 0 0 0 0 0 127 0" result="hardAlpha"/>
<feOffset dx="8" dy="4"/>
<feComposite in2="hardAlpha" operator="arithmetic" k2="-1" k3="1"/>
<feColorMatrix type="matrix" values="0 0 0 0 0.6125 0 0 0 0 1 0 0 0 0 0.721 0 0 0 0.26 0"/>
<feBlend mode="normal" in2="shape" result="effect1_innerShadow_0_1"/>
<feColorMatrix in="SourceAlpha" type="matrix" values="0 0 0 0 0 0 0 0 0 0 0 0 0 0 0 0 0 0 127 0" result="hardAlpha"/>
<feOffset dx="-10" dy="-4"/>
<feComposite in2="hardAlpha" operator="arithmetic" k2="-1" k3="1"/>
<feColorMatrix type="matrix" values="0 0 0 0 0 0 0 0 0 0 0 0 0 0 0 0 0 0 0.25 0"/>
<feBlend mode="normal" in2="effect1_innerShadow_0_1" result="effect2_innerShadow_0_1"/>
</filter>
<filter id="filter6_ii_0_1" x="348.5" y="57.5" width="136" height="149" filterUnits="userSpaceOnUse" color-interpolation-filters="sRGB">
<feFlood flood-opacity="0" result="BackgroundImageFix"/>
<feBlend mode="normal" in="SourceGraphic" in2="BackgroundImageFix" result="shape"/>
<feColorMatrix in="SourceAlpha" type="matrix" values="0 0 0 0 0 0 0 0 0 0 0 0 0 0 0 0 0 0 127 0" result="hardAlpha"/>
<feOffset dx="-10" dy="-4"/>
<feComposite in2="hardAlpha" operator="arithmetic" k2="-1" k3="1"/>
<feColorMatrix type="matrix" values="0 0 0 0 0 0 0 0 0 0 0 0 0 0 0 0 0 0 0.25 0"/>
<feBlend mode="normal" in2="shape" result="effect1_innerShadow_0_1"/>
<feColorMatrix in="SourceAlpha" type="matrix" values="0 0 0 0 0 0 0 0 0 0 0 0 0 0 0 0 0 0 127 0" result="hardAlpha"/>
<feOffset dx="8" dy="4"/>
<feComposite in2="hardAlpha" operator="arithmetic" k2="-1" k3="1"/>
<feColorMatrix type="matrix" values="0 0 0 0 0.818667 0 0 0 0 1 0 0 0 0 0.733333 0 0 0 0.25 0"/>
<feBlend mode="normal" in2="effect1_innerShadow_0_1" result="effect2_innerShadow_0_1"/>
</filter>
<filter id="filter7_ii_0_1" x="545.5" y="65.5" width="111.985" height="146.302" filterUnits="userSpaceOnUse" color-interpolation-filters="sRGB">
<feFlood flood-opacity="0" result="BackgroundImageFix"/>
<feBlend mode="normal" in="SourceGraphic" in2="BackgroundImageFix" result="shape"/>
<feColorMatrix in="SourceAlpha" type="matrix" values="0 0 0 0 0 0 0 0 0 0 0 0 0 0 0 0 0 0 127 0" result="hardAlpha"/>
<feOffset dx="-10" dy="-4"/>
<feComposite in2="hardAlpha" operator="arithmetic" k2="-1" k3="1"/>
<feColorMatrix type="matrix" values="0 0 0 0 0 0 0 0 0 0 0 0 0 0 0 0 0 0 0.25 0"/>
<feBlend mode="normal" in2="shape" result="effect1_innerShadow_0_1"/>
<feColorMatrix in="SourceAlpha" type="matrix" values="0 0 0 0 0 0 0 0 0 0 0 0 0 0 0 0 0 0 127 0" result="hardAlpha"/>
<feOffset dx="8" dy="4"/>
<feGaussianBlur stdDeviation="2"/>
<feComposite in2="hardAlpha" operator="arithmetic" k2="-1" k3="1"/>
<feColorMatrix type="matrix" values="0 0 0 0 0.734583 0 0 0 0 1 0 0 0 0 0.729167 0 0 0 0.25 0"/>
<feBlend mode="normal" in2="effect1_innerShadow_0_1" result="effect2_innerShadow_0_1"/>
</filter>
<filter id="filter8_ii_0_1" x="62.5" y="17.5" width="38" height="216" filterUnits="userSpaceOnUse" color-interpolation-filters="sRGB">
<feFlood flood-opacity="0" result="BackgroundImageFix"/>
<feBlend mode="normal" in="SourceGraphic" in2="BackgroundImageFix" result="shape"/>
<feColorMatrix in="SourceAlpha" type="matrix" values="0 0 0 0 0 0 0 0 0 0 0 0 0 0 0 0 0 0 127 0" result="hardAlpha"/>
<feOffset dx="-11" dy="4"/>
<feComposite in2="hardAlpha" operator="arithmetic" k2="-1" k3="1"/>
<feColorMatrix type="matrix" values="0 0 0 0 0 0 0 0 0 0 0 0 0 0 0 0 0 0 0.25 0"/>
<feBlend mode="normal" in2="shape" result="effect1_innerShadow_0_1"/>
<feColorMatrix in="SourceAlpha" type="matrix" values="0 0 0 0 0 0 0 0 0 0 0 0 0 0 0 0 0 0 127 0" result="hardAlpha"/>
<feOffset dx="8" dy="4"/>
<feComposite in2="hardAlpha" operator="arithmetic" k2="-1" k3="1"/>
<feColorMatrix type="matrix" values="0 0 0 0 0.6125 0 0 0 0 1 0 0 0 0 0.721 0 0 0 0.26 0"/>
<feBlend mode="normal" in2="effect1_innerShadow_0_1" result="effect2_innerShadow_0_1"/>
</filter>
<filter id="filter9_ii_0_1" x="8.5" y="45.9709" width="153" height="161.168" filterUnits="userSpaceOnUse" color-interpolation-filters="sRGB">
<feFlood flood-opacity="0" result="BackgroundImageFix"/>
<feBlend mode="normal" in="SourceGraphic" in2="BackgroundImageFix" result="shape"/>
<feColorMatrix in="SourceAlpha" type="matrix" values="0 0 0 0 0 0 0 0 0 0 0 0 0 0 0 0 0 0 127 0" result="hardAlpha"/>
<feOffset dx="-11" dy="4"/>
<feComposite in2="hardAlpha" operator="arithmetic" k2="-1" k3="1"/>
<feColorMatrix type="matrix" values="0 0 0 0 0 0 0 0 0 0 0 0 0 0 0 0 0 0 0.25 0"/>
<feBlend mode="normal" in2="shape" result="effect1_innerShadow_0_1"/>
<feColorMatrix in="SourceAlpha" type="matrix" values="0 0 0 0 0 0 0 0 0 0 0 0 0 0 0 0 0 0 127 0" result="hardAlpha"/>
<feOffset dx="8" dy="4"/>
<feComposite in2="hardAlpha" operator="arithmetic" k2="-1" k3="1"/>
<feColorMatrix type="matrix" values="0 0 0 0 0.6125 0 0 0 0 1 0 0 0 0 0.721 0 0 0 0.26 0"/>
<feBlend mode="normal" in2="effect1_innerShadow_0_1" result="effect2_innerShadow_0_1"/>
</filter>
</defs>
</svg>
