<svg width="579" height="239" viewBox="0 0 579 239" fill="none" xmlns="http://www.w3.org/2000/svg">
<g filter="url(#filter0_ii_0_1)">
<path fill-rule="evenodd" clip-rule="evenodd" d="M162.07 52.7734C161.87 66.3027 161.669 79.8636 161.669 93.4191V112.705C161.669 115.042 161.622 117.398 161.574 119.762C161.458 125.465 161.342 131.211 161.892 136.824C162.792 146.004 162.704 155.276 162.615 164.525C162.588 167.292 162.562 170.058 162.562 172.818C162.562 175.402 162.266 178.572 161.95 181.955C161.25 189.45 160.452 197.988 162.562 203.5C167.478 206.684 207.509 204.202 211.5 202C214.611 200.284 217.474 197.687 220.249 195.17C221.408 194.119 222.551 193.082 223.691 192.128C233.39 184.016 241.636 173.664 245.332 161.44C245.96 159.363 246.741 157.339 247.521 155.316C249.017 151.44 250.509 147.572 250.909 143.369C251.545 136.696 251.802 130.219 251.802 123.513C251.802 117.27 250.612 110.97 249.397 104.896C249.015 102.986 248.671 101.045 248.326 99.0941C247.239 92.96 246.134 86.7251 243.77 81.0247C243.382 80.0878 243.012 79.1027 242.636 78.1002C241.351 74.6708 239.988 71.0376 237.523 68.4319C234.205 64.9238 230.703 61.3813 226.815 58.5164C219.997 53.4931 213.155 49.2095 205.199 46.345C199.251 44.2038 192.811 42.9985 186.458 42.9985C183.922 42.9985 177.977 42.9985 172.378 44.3371C169.477 45.0306 163.862 47.9449 162.116 49.6915C162.1 50.7186 162.085 51.7459 162.07 52.7734ZM186.827 78.9863C186.827 88.1538 186.487 105.948 185.833 115.102C185.703 116.919 185.561 118.729 185.42 120.532C184.548 131.656 183.694 142.553 185.746 153.712C185.886 154.477 185.931 155.224 185.973 155.946C186.099 158.072 186.213 159.983 188.732 161.506C190.778 162.742 194.926 161.107 196.3 159.906C197.451 158.901 198.678 157.973 199.904 157.045C201.552 155.799 203.197 154.555 204.651 153.126C205.188 152.599 205.784 152.118 206.448 151.583C209.736 148.932 214.689 144.94 222.327 127.297C232.542 95.9536 203.588 92.5395 193.648 91.3674C192.034 91.1771 190.921 91.0459 190.559 90.8638C189.573 90.3681 187.895 83.3378 187.173 80.3134C186.941 79.3452 186.808 78.7875 186.827 78.9863Z" fill="#D90B17"/>
</g>
<path d="M162.07 52.7734L163.57 52.7956L163.57 52.7956L162.07 52.7734ZM161.574 119.762L163.074 119.793L163.074 119.793L161.574 119.762ZM161.892 136.824L160.4 136.971L160.4 136.971L161.892 136.824ZM162.615 164.525L164.115 164.539L162.615 164.525ZM161.95 181.955L160.456 181.815L160.456 181.815L161.95 181.955ZM162.562 203.5L161.161 204.036L161.336 204.493L161.747 204.759L162.562 203.5ZM211.5 202L210.775 200.687L210.775 200.687L211.5 202ZM220.249 195.17L219.241 194.059L219.241 194.059L220.249 195.17ZM223.691 192.128L224.653 193.279L224.653 193.279L223.691 192.128ZM245.332 161.44L246.768 161.874L246.768 161.874L245.332 161.44ZM247.521 155.316L246.122 154.776L246.122 154.776L247.521 155.316ZM250.909 143.369L249.416 143.226L249.416 143.227L250.909 143.369ZM249.397 104.896L250.868 104.602L250.868 104.602L249.397 104.896ZM248.326 99.0941L249.802 98.8323L249.802 98.8323L248.326 99.0941ZM243.77 81.0247L245.156 80.4502L245.156 80.4502L243.77 81.0247ZM242.636 78.1002L241.232 78.6269L241.232 78.6269L242.636 78.1002ZM237.523 68.4319L236.434 69.4627L236.434 69.4627L237.523 68.4319ZM226.815 58.5164L225.925 59.724L225.925 59.724L226.815 58.5164ZM205.199 46.345L205.707 44.9337L205.707 44.9337L205.199 46.345ZM172.378 44.3371L172.029 42.8782L172.029 42.8782L172.378 44.3371ZM162.116 49.6915L161.055 48.6309L160.625 49.0611L160.616 49.6695L162.116 49.6915ZM185.833 115.102L184.337 114.995L185.833 115.102ZM186.827 78.9863H188.327V78.9148L188.32 78.8437L186.827 78.9863ZM185.42 120.532L186.915 120.649L186.915 120.649L185.42 120.532ZM185.746 153.712L187.221 153.441L187.221 153.441L185.746 153.712ZM185.973 155.946L184.476 156.035L184.476 156.035L185.973 155.946ZM188.732 161.506L189.508 160.222L189.508 160.222L188.732 161.506ZM196.3 159.906L195.313 158.777L195.313 158.777L196.3 159.906ZM199.904 157.045L198.999 155.849L198.999 155.849L199.904 157.045ZM204.651 153.126L203.6 152.056L203.6 152.056L204.651 153.126ZM206.448 151.583L207.39 152.751L207.39 152.751L206.448 151.583ZM222.327 127.297L223.703 127.893L223.731 127.829L223.753 127.762L222.327 127.297ZM193.648 91.3674L193.824 89.8777L193.824 89.8777L193.648 91.3674ZM190.559 90.8638L189.885 92.204L189.885 92.204L190.559 90.8638ZM187.173 80.3134L185.714 80.6617L185.714 80.6617L187.173 80.3134ZM163.169 93.4191C163.169 79.8765 163.37 66.3268 163.57 52.7956L160.57 52.7512C160.37 66.2787 160.169 79.8506 160.169 93.4191H163.169ZM163.169 112.705V93.4191H160.169V112.705H163.169ZM163.074 119.793C163.121 117.431 163.169 115.059 163.169 112.705H160.169C160.169 115.024 160.122 117.365 160.074 119.732L163.074 119.793ZM163.385 136.678C162.845 131.168 162.958 125.511 163.074 119.793L160.074 119.732C159.959 125.419 159.839 131.254 160.4 136.971L163.385 136.678ZM164.115 164.539C164.203 155.304 164.294 145.951 163.385 136.678L160.4 136.971C161.29 146.057 161.204 155.248 161.115 164.511L164.115 164.539ZM164.062 172.818C164.062 170.066 164.088 167.308 164.115 164.539L161.115 164.511C161.088 167.277 161.062 170.049 161.062 172.818H164.062ZM163.443 182.094C163.757 178.735 164.062 175.487 164.062 172.818H161.062C161.062 175.317 160.774 178.409 160.456 181.815L163.443 182.094ZM163.963 202.964C163.009 200.472 162.68 197.184 162.702 193.48C162.725 189.797 163.092 185.855 163.443 182.094L160.456 181.815C160.107 185.55 159.726 189.625 159.702 193.462C159.679 197.279 160.005 201.016 161.161 204.036L163.963 202.964ZM210.775 200.687C210.69 200.734 210.443 200.835 209.957 200.966C209.497 201.09 208.903 201.22 208.183 201.352C206.744 201.615 204.872 201.876 202.694 202.12C198.343 202.608 192.845 203.023 187.311 203.271C181.774 203.519 176.23 203.598 171.782 203.42C169.554 203.33 167.631 203.178 166.132 202.956C164.55 202.722 163.689 202.442 163.378 202.241L161.747 204.759C162.665 205.353 164.13 205.693 165.693 205.924C167.34 206.167 169.382 206.326 171.661 206.417C176.226 206.6 181.861 206.518 187.445 206.268C193.032 206.018 198.598 205.599 203.028 205.102C205.242 204.853 207.19 204.584 208.723 204.303C209.49 204.162 210.17 204.016 210.737 203.863C211.278 203.717 211.811 203.541 212.225 203.313L210.775 200.687ZM219.241 194.059C216.437 196.603 213.705 199.071 210.775 200.687L212.225 203.313C215.517 201.497 218.511 198.771 221.257 196.281L219.241 194.059ZM222.729 190.978C221.562 191.954 220.396 193.012 219.241 194.059L221.257 196.281C222.42 195.226 223.541 194.21 224.653 193.279L222.729 190.978ZM243.896 161.006C240.31 172.866 232.282 182.988 222.729 190.978L224.653 193.279C234.499 185.045 242.962 174.462 246.768 161.874L243.896 161.006ZM246.122 154.776C245.345 156.79 244.543 158.867 243.896 161.006L246.768 161.874C247.376 159.86 248.137 157.887 248.921 155.856L246.122 154.776ZM249.416 143.227C249.038 147.191 247.629 150.869 246.122 154.776L248.921 155.856C250.404 152.011 251.979 147.953 252.403 143.511L249.416 143.227ZM250.302 123.513C250.302 130.179 250.046 136.608 249.416 143.226L252.403 143.511C253.043 136.783 253.302 130.258 253.302 123.513H250.302ZM247.926 105.191C249.143 111.275 250.302 117.438 250.302 123.513H253.302C253.302 117.102 252.081 110.665 250.868 104.602L247.926 105.191ZM246.849 99.3558C247.194 101.304 247.54 103.261 247.926 105.191L250.868 104.602C250.49 102.711 250.149 100.786 249.802 98.8323L246.849 99.3558ZM242.385 81.5992C244.675 87.1222 245.756 93.1915 246.849 99.3558L249.802 98.8323C248.721 92.7286 247.593 86.3281 245.156 80.4502L242.385 81.5992ZM241.232 78.6269C241.606 79.6246 241.984 80.6343 242.385 81.5992L245.156 80.4502C244.779 79.5413 244.419 78.5809 244.041 77.5736L241.232 78.6269ZM236.434 69.4627C238.652 71.8079 239.922 75.1322 241.232 78.6269L244.041 77.5736C242.78 74.2095 241.324 70.2672 238.613 67.4011L236.434 69.4627ZM225.925 59.724C229.697 62.5032 233.12 65.9602 236.434 69.4627L238.613 67.4011C235.289 63.8875 231.709 60.2595 227.704 57.3088L225.925 59.724ZM204.691 47.7564C212.454 50.5511 219.163 54.7413 225.925 59.724L227.704 57.3088C220.832 52.245 213.857 47.8678 205.707 44.9337L204.691 47.7564ZM186.458 44.4985C192.625 44.4985 198.894 45.6695 204.691 47.7564L205.707 44.9337C199.608 42.738 192.996 41.4985 186.458 41.4985V44.4985ZM172.727 45.796C178.134 44.5033 183.915 44.4985 186.458 44.4985V41.4985C183.928 41.4985 177.821 41.4937 172.029 42.8782L172.727 45.796ZM163.176 50.7522C163.874 50.0541 165.535 48.9769 167.507 47.9498C169.454 46.9357 171.455 46.1001 172.727 45.796L172.029 42.8782C170.401 43.2676 168.143 44.2359 166.121 45.289C164.124 46.3291 162.103 47.5823 161.055 48.6309L163.176 50.7522ZM163.57 52.7956C163.585 51.7681 163.6 50.7408 163.615 49.7136L160.616 49.6695C160.601 50.6965 160.585 51.7237 160.57 52.7512L163.57 52.7956ZM187.329 115.209C187.987 106.001 188.327 88.1642 188.327 78.9863H185.327C185.327 88.1434 184.987 105.896 184.337 114.995L187.329 115.209ZM186.915 120.649C187.056 118.847 187.198 117.032 187.329 115.209L184.337 114.995C184.207 116.806 184.066 118.611 183.924 120.415L186.915 120.649ZM187.221 153.441C185.21 142.506 186.041 131.803 186.915 120.649L183.924 120.415C183.055 131.509 182.177 142.601 184.27 153.983L187.221 153.441ZM187.471 155.858C187.429 155.147 187.381 154.31 187.221 153.441L184.27 153.983C184.392 154.644 184.433 155.301 184.476 156.035L187.471 155.858ZM189.508 160.222C188.509 159.618 188.085 159.011 187.855 158.414C187.594 157.735 187.537 156.967 187.471 155.858L184.476 156.035C184.536 157.052 184.598 158.302 185.055 159.491C185.544 160.761 186.436 161.871 187.957 162.79L189.508 160.222ZM195.313 158.777C194.847 159.185 193.692 159.809 192.369 160.174C191.728 160.351 191.114 160.448 190.589 160.446C190.053 160.445 189.708 160.343 189.508 160.222L187.957 162.79C188.779 163.287 189.72 163.444 190.581 163.446C191.451 163.449 192.344 163.293 193.167 163.066C194.773 162.623 196.38 161.829 197.287 161.036L195.313 158.777ZM198.999 155.849C197.781 156.771 196.511 157.731 195.313 158.777L197.287 161.036C198.392 160.071 199.576 159.174 200.809 158.242L198.999 155.849ZM203.6 152.056C202.227 153.405 200.661 154.592 198.999 155.849L200.809 158.242C202.443 157.006 204.168 155.704 205.703 154.196L203.6 152.056ZM205.507 150.415C204.855 150.941 204.199 151.468 203.6 152.056L205.703 154.196C206.177 153.73 206.714 153.296 207.39 152.751L205.507 150.415ZM220.95 126.701C217.159 135.458 214.064 140.758 211.549 144.172C209.056 147.556 207.109 149.123 205.507 150.415L207.39 152.751C209.076 151.392 211.249 149.637 213.964 145.952C216.657 142.296 219.857 136.779 223.703 127.893L220.95 126.701ZM193.473 92.8571C198.496 93.4494 207.847 94.5781 214.7 99.2568C218.078 101.563 220.802 104.703 222.117 109.059C223.438 113.431 223.389 119.197 220.901 126.833L223.753 127.762C226.372 119.726 226.535 113.311 224.989 108.191C223.438 103.055 220.218 99.391 216.392 96.7791C208.837 91.6218 198.74 90.4574 193.824 89.8777L193.473 92.8571ZM189.885 92.204C190.146 92.3348 190.43 92.4088 190.636 92.4555C190.868 92.5079 191.132 92.5536 191.41 92.5957C191.965 92.6795 192.675 92.763 193.473 92.8571L193.824 89.8777C193.007 89.7814 192.354 89.7042 191.858 89.6293C191.611 89.592 191.428 89.5589 191.299 89.5296C191.144 89.4945 191.154 89.4838 191.233 89.5236L189.885 92.204ZM185.714 80.6617C186.073 82.1688 186.681 84.7159 187.325 86.9521C187.646 88.0659 187.987 89.1402 188.321 89.9837C188.486 90.4019 188.667 90.8053 188.861 91.1417C188.958 91.3102 189.076 91.4922 189.217 91.6607C189.347 91.8159 189.566 92.0435 189.885 92.204L191.233 89.5236C191.339 89.5768 191.41 89.633 191.449 89.6667C191.489 89.7012 191.511 89.7267 191.516 89.733C191.524 89.7426 191.504 89.7198 191.459 89.6426C191.37 89.4879 191.252 89.2371 191.11 88.8792C190.83 88.1707 190.52 87.2054 190.208 86.1216C189.586 83.9626 188.994 81.4824 188.632 79.9651L185.714 80.6617ZM188.32 78.8437C188.321 78.8452 188.325 78.8909 188.325 78.9553C188.326 78.9816 188.325 79.0661 188.309 79.1742C188.301 79.2269 188.282 79.3334 188.236 79.4615C188.2 79.5606 188.084 79.8532 187.784 80.1021C187.386 80.4308 186.856 80.5274 186.379 80.3774C186.017 80.2637 185.803 80.0458 185.733 79.9708C185.577 79.8042 185.5 79.6408 185.489 79.6197C185.444 79.5296 185.421 79.4573 185.421 79.4568C185.411 79.4291 185.419 79.4496 185.452 79.5813C185.509 79.8038 185.597 80.1719 185.714 80.6617L188.632 79.9651C188.517 79.4867 188.423 79.0919 188.36 78.8432C188.334 78.7393 188.297 78.597 188.261 78.4905C188.254 78.4702 188.225 78.3834 188.175 78.2842C188.163 78.2586 188.083 78.092 187.926 77.9236C187.855 77.8476 187.64 77.6292 187.278 77.5153C186.8 77.3651 186.269 77.4618 185.871 77.7909C185.569 78.0403 185.454 78.3338 185.417 78.434C185.37 78.5633 185.351 78.6713 185.343 78.7259C185.326 78.8377 185.325 78.9273 185.325 78.9603C185.326 79.0378 185.332 79.1026 185.334 79.1289L188.32 78.8437Z" fill="black"/>
<g filter="url(#filter1_ii_0_1)">
<path d="M502.373 156.595C502.373 131.078 503.124 105.272 501.502 79.8994C499.504 82.3552 495.013 82.7833 493.685 82.7833C490.196 82.7833 486.438 82.9497 484.278 79.8994C481.795 76.3941 479.63 68.9864 482.068 64.9613C484.753 60.5313 490.602 57.878 496.018 57.0304C509.448 54.9287 524.634 52.4857 538.116 55.2054C540.687 55.7239 545.712 56.9052 545.712 59.8918C545.712 63.807 544.002 65.7053 541.244 68.5663C539.734 70.1321 537.625 71.5539 535.436 72.2163C534.229 72.5814 531.467 72.9293 530.521 73.6808C528.694 75.1317 527.84 80.1756 527.84 82.3552C527.84 92.0489 529.062 101.536 529.652 111.172C529.652 119.471 531.861 152.96 531.861 161.259V169.956C531.861 171.388 532.294 170.215 533.648 169.776C536.481 168.857 539.976 167.96 542.979 167.96C550.279 168.867 552.292 180.426 551.967 186.334C551.893 187.686 550.7 189.457 550.279 190.795C549.893 192.022 548.793 193.708 547.598 194.445C543.54 196.95 539.258 198.87 534.691 200.529C524.528 204.219 513.647 204.99 502.82 204.99C496.252 204.99 480.309 200.68 483.955 190.752C486.368 184.181 493.649 180.558 500.238 178.405C502.888 177.539 502.373 172.407 502.373 170.384V156.595Z" fill="#D90B17"/>
</g>
<path d="M501.479 79.5389C503.131 105.027 502.373 130.957 502.373 156.595C502.373 161.191 502.373 165.788 502.373 170.384C502.373 172.407 502.888 177.539 500.238 178.405C493.649 180.558 486.368 184.181 483.955 190.752C480.309 200.68 496.252 204.99 502.82 204.99C513.647 204.99 524.528 204.219 534.691 200.529C539.258 198.87 543.54 196.95 547.598 194.445C548.793 193.708 549.893 192.022 550.279 190.795C550.7 189.457 551.892 187.686 551.967 186.334C552.292 180.426 550.279 168.867 542.979 167.96C539.976 167.96 536.481 168.857 533.648 169.776C532.294 170.215 531.861 171.388 531.861 169.956C531.861 167.057 531.861 164.158 531.861 161.259C531.861 152.96 529.652 119.471 529.652 111.172C529.062 101.536 527.84 92.0489 527.84 82.3552C527.84 80.1756 528.694 75.1317 530.521 73.6808C531.467 72.9293 534.229 72.5814 535.436 72.2163C537.625 71.5539 539.734 70.1321 541.244 68.5663C544.002 65.7053 545.712 63.807 545.712 59.8918C545.712 56.9052 540.687 55.7239 538.116 55.2054C524.634 52.4857 509.448 54.9287 496.018 57.0304C490.602 57.878 484.753 60.5313 482.068 64.9613C479.63 68.9864 481.795 76.3941 484.278 79.8994C486.438 82.9497 490.196 82.7833 493.685 82.7833C495.013 82.7833 499.504 82.3552 501.502 79.8994" stroke="black" stroke-width="3" stroke-linecap="round"/>
<g filter="url(#filter2_i_0_1)">
<path d="M494.355 60.7825C495.992 61.3085 498.521 62.4188 499.301 63.8968C500.08 65.3749 497.46 69.4444 496.337 70.0937C495.041 70.8429 493.455 71.3602 491.921 70.8672L483.021 68.0072C476.873 66.0314 471.931 62.4816 466.464 59.3502C465.752 58.9424 465.112 58.4524 464.391 58.0592C463.986 57.8384 463.452 57.8103 463.106 57.5087C461.955 56.504 462.275 56.1211 462.542 54.8489C463.297 51.2446 465.287 47.8625 466.631 44.4276C468.084 40.7145 470.408 37.0695 472.572 33.6795C473.961 31.5021 475.273 29.3511 476.206 26.9672C476.938 25.0954 475.703 30.9475 474.971 32.8193C474.095 35.0572 473.57 37.5971 473.235 39.9509C473.097 40.9179 472.711 41.7864 472.651 42.7607C472.583 43.8446 472.242 45.0929 471.874 46.1229C471.038 48.4602 470.531 53.2262 473.803 54.3688C476.865 55.4376 480.008 56.4527 483.19 57.1523C487.052 58.0012 490.65 59.5919 494.355 60.7825Z" fill="#C9CB8D"/>
</g>
<path d="M494.355 60.7825C495.992 61.3085 498.521 62.4188 499.301 63.8968C500.08 65.3749 497.46 69.4444 496.337 70.0937C495.041 70.8429 493.455 71.3602 491.921 70.8672L483.021 68.0072C476.873 66.0314 471.931 62.4816 466.464 59.3502C465.752 58.9424 465.112 58.4524 464.391 58.0592C463.986 57.8384 463.452 57.8103 463.106 57.5087C461.955 56.504 462.275 56.1211 462.542 54.8489C463.297 51.2446 465.287 47.8625 466.631 44.4276C468.084 40.7145 470.408 37.0695 472.572 33.6795C473.961 31.5021 475.273 29.3511 476.206 26.9672C476.938 25.0954 475.703 30.9475 474.971 32.8193C474.095 35.0572 473.57 37.5971 473.235 39.9509C473.097 40.9179 472.711 41.7864 472.651 42.7607C472.583 43.8446 472.242 45.0929 471.874 46.1229C471.038 48.4602 470.531 53.2262 473.803 54.3688C476.865 55.4376 480.008 56.4527 483.19 57.1523C487.052 58.0012 490.65 59.5919 494.355 60.7825Z" stroke="black" stroke-width="3" stroke-linecap="round"/>
<g filter="url(#filter3_i_0_1)">
<path d="M530.072 55.7329C528.391 56.0976 525.759 56.9557 524.816 58.3444C523.873 59.733 525.994 64.0103 527.031 64.7599C528.227 65.6248 529.736 66.2878 531.312 65.9459L540.452 63.9627C546.767 62.5927 552.07 59.5499 557.843 56.9711C558.595 56.6353 559.286 56.2113 560.045 55.8907C560.471 55.7107 561.003 55.7337 561.38 55.4682C562.636 54.5834 562.363 54.174 562.247 52.8894C561.917 49.2501 560.34 45.7132 559.408 42.1856C558.4 38.3722 556.523 34.5433 554.775 30.9821C553.652 28.6947 552.603 26.4408 551.956 23.9926C551.448 22.0703 551.992 27.98 552.5 29.9023C553.107 32.2006 553.333 34.7645 553.391 37.1261C553.415 38.0962 553.696 38.9925 553.643 39.9626C553.584 41.0418 553.777 42.3098 554.022 43.3643C554.578 45.7572 554.528 50.5227 551.157 51.3419C548.003 52.1082 544.774 52.8137 541.543 53.203C537.622 53.6755 533.877 54.9073 530.072 55.7329Z" fill="#C9CB8D"/>
</g>
<path d="M530.072 55.7329C528.391 56.0976 525.759 56.9557 524.816 58.3444C523.873 59.733 525.994 64.0103 527.031 64.7599C528.227 65.6248 529.736 66.2878 531.312 65.9459L540.452 63.9627C546.767 62.5927 552.07 59.5499 557.843 56.9711C558.595 56.6353 559.286 56.2113 560.045 55.8907C560.471 55.7107 561.003 55.7337 561.38 55.4682C562.636 54.5834 562.363 54.174 562.247 52.8894C561.917 49.2501 560.34 45.7132 559.408 42.1856C558.4 38.3722 556.523 34.5433 554.775 30.9821C553.652 28.6947 552.603 26.4408 551.956 23.9926C551.448 22.0703 551.992 27.98 552.5 29.9023C553.107 32.2006 553.333 34.7645 553.391 37.1261C553.415 38.0962 553.696 38.9925 553.643 39.9626C553.584 41.0418 553.777 42.3098 554.022 43.3643C554.578 45.7572 554.528 50.5227 551.157 51.3419C548.003 52.1082 544.774 52.8137 541.543 53.203C537.622 53.6755 533.877 54.9073 530.072 55.7329Z" stroke="black" stroke-width="3" stroke-linecap="round"/>
<g filter="url(#filter4_ii_0_1)">
<path fill-rule="evenodd" clip-rule="evenodd" d="M286.351 202.239C278.145 200.15 254.034 194.014 252 114.21C252.053 113.906 252.106 113.599 252.159 113.289C252.625 110.569 253.122 107.67 254.16 105.152C254.931 103.281 255.617 101.398 256.298 99.5245C257.896 95.1321 259.476 90.7912 262.108 86.7714C262.937 85.5065 263.759 84.2327 264.582 82.957C267.236 78.8456 269.902 74.7157 272.821 70.8092C273.522 69.8715 274.226 68.8623 274.945 67.8316C277.029 64.8446 279.239 61.6779 281.849 59.5522C284.721 56.1474 293.658 49.9604 296.234 49.3504C298.36 48.8472 300.202 48.9893 302.215 49.1446C302.768 49.1873 303.335 49.231 303.923 49.2625C312.305 48.4895 332.026 66.2466 334.939 70.6333C335.683 71.754 336.444 72.8271 337.199 73.8929C338.644 75.9333 340.071 77.9474 341.332 80.2194C341.989 81.4014 342.386 82.8257 342.768 84.1938C342.907 84.6915 343.044 85.1817 343.19 85.6501C343.592 86.9372 344.036 88.2193 344.481 89.5032C345.301 91.8707 346.123 94.2441 346.689 96.6653C347.06 98.25 347.373 99.9177 347.69 101.608C348.386 105.316 349.102 109.13 350.49 112.408C352.062 116.12 352.349 120.895 352.607 125.202C352.674 126.313 352.739 127.392 352.823 128.414C353.303 134.228 352.726 139.987 352.045 145.739C351.726 148.437 350.933 151.186 350.166 153.786C349.877 154.769 349.684 155.808 349.491 156.85C349.194 158.45 348.896 160.057 348.244 161.481C347.051 164.089 346.032 166.744 345.013 169.399C344.064 171.873 343.114 174.347 342.024 176.784C338.491 184.674 334.757 192.66 328.719 198.946C324.005 203.854 301.272 203.18 287.681 202.596C287.304 202.481 286.858 202.368 286.351 202.239ZM294.43 158.996C292.679 156.86 291.054 154.433 289.564 152.106C287.228 148.456 285.88 144.404 284.522 140.324C283.648 137.697 282.77 135.059 281.622 132.507C277.471 123.284 277.621 116.007 281.121 105.551C284.621 99.0071 290.528 94.6724 297.768 94.2466C305.563 93.788 311.73 99.6849 315.92 105.551C317.122 107.234 338.122 142.007 308.061 158.738C306.417 160.524 296.122 163.007 294.43 158.996Z" fill="#D90B17"/>
</g>
<path d="M252 114.21L250.522 113.953L250.497 114.1L250.5 114.249L252 114.21ZM286.351 202.239L286.721 200.785L286.721 200.785L286.351 202.239ZM252.159 113.289L250.68 113.036L250.68 113.036L252.159 113.289ZM254.16 105.152L252.773 104.58L252.773 104.58L254.16 105.152ZM256.298 99.5245L257.708 100.037L256.298 99.5245ZM262.108 86.7714L260.853 85.9496L260.853 85.9496L262.108 86.7714ZM264.582 82.957L265.843 83.7705L265.843 83.7705L264.582 82.957ZM272.821 70.8092L274.023 71.707L274.023 71.707L272.821 70.8092ZM274.945 67.8316L273.715 66.9733L273.715 66.9733L274.945 67.8316ZM281.849 59.5522L282.797 60.7153L282.906 60.6266L282.996 60.5192L281.849 59.5522ZM296.234 49.3504L295.889 47.8908L295.889 47.8908L296.234 49.3504ZM302.215 49.1446L302.099 50.6401L302.099 50.6401L302.215 49.1446ZM303.923 49.2625L303.843 50.7604L303.952 50.7662L304.061 50.7562L303.923 49.2625ZM334.939 70.6333L333.69 71.4632L333.69 71.4632L334.939 70.6333ZM337.199 73.8929L335.975 74.76L335.975 74.76L337.199 73.8929ZM341.332 80.2194L340.021 80.9476L340.021 80.9476L341.332 80.2194ZM342.768 84.1938L344.213 83.7907L344.213 83.7907L342.768 84.1938ZM343.19 85.6501L341.758 86.0976L341.758 86.0976L343.19 85.6501ZM344.481 89.5032L343.063 89.9941L343.063 89.9941L344.481 89.5032ZM346.689 96.6653L345.228 97.0069L345.228 97.0069L346.689 96.6653ZM347.69 101.608L346.216 101.884L346.216 101.884L347.69 101.608ZM350.49 112.408L349.109 112.992L349.109 112.992L350.49 112.408ZM352.607 125.202L354.104 125.113L354.104 125.113L352.607 125.202ZM352.823 128.414L351.328 128.537L351.328 128.537L352.823 128.414ZM352.045 145.739L353.535 145.915L353.535 145.915L352.045 145.739ZM350.166 153.786L348.728 153.362L348.728 153.362L350.166 153.786ZM349.491 156.85L348.016 156.577L348.016 156.577L349.491 156.85ZM348.244 161.481L346.88 160.857L346.88 160.857L348.244 161.481ZM345.013 169.399L343.613 168.861L343.613 168.861L345.013 169.399ZM342.024 176.784L343.393 177.397L343.393 177.397L342.024 176.784ZM328.719 198.946L329.801 199.985L329.801 199.985L328.719 198.946ZM287.681 202.596L287.245 204.031L287.427 204.086L287.617 204.095L287.681 202.596ZM289.564 152.106L288.3 152.914L288.3 152.914L289.564 152.106ZM294.43 158.996L295.812 158.413L295.728 158.213L295.59 158.045L294.43 158.996ZM284.522 140.324L283.099 140.798L283.099 140.798L284.522 140.324ZM281.622 132.507L280.254 133.123L280.254 133.123L281.622 132.507ZM281.121 105.551L279.798 104.844L279.739 104.955L279.699 105.075L281.121 105.551ZM297.768 94.2466L297.856 95.744L297.768 94.2466ZM315.92 105.551L314.699 106.423L314.699 106.423L315.92 105.551ZM308.061 158.738L307.331 157.427L307.12 157.544L306.957 157.722L308.061 158.738ZM250.5 114.249C251.52 154.258 258.073 176.057 265.587 188.159C269.357 194.231 273.367 197.859 277.023 200.104C280.673 202.345 283.906 203.164 285.981 203.692L286.721 200.785C284.694 200.269 281.835 199.538 278.593 197.547C275.357 195.561 271.674 192.275 268.136 186.577C261.034 175.137 254.514 153.966 253.5 114.172L250.5 114.249ZM250.68 113.036C250.627 113.346 250.575 113.651 250.522 113.953L253.478 114.468C253.531 114.161 253.584 113.852 253.637 113.543L250.68 113.036ZM252.773 104.58C251.66 107.28 251.14 110.351 250.68 113.036L253.637 113.543C254.109 110.788 254.583 108.06 255.547 105.724L252.773 104.58ZM254.889 99.0117C254.205 100.89 253.531 102.743 252.773 104.58L255.547 105.724C256.332 103.819 257.028 101.906 257.708 100.037L254.889 99.0117ZM260.853 85.9496C258.11 90.1379 256.478 94.6432 254.889 99.0117L257.708 100.037C259.315 95.6211 260.841 91.4445 263.363 87.5932L260.853 85.9496ZM263.322 82.1435C262.498 83.4198 261.679 84.6895 260.853 85.9496L263.363 87.5932C264.195 86.3235 265.02 85.0455 265.843 83.7705L263.322 82.1435ZM271.62 69.9114C268.665 73.8659 265.971 78.0395 263.322 82.1435L265.843 83.7705C268.502 79.6517 271.14 75.5654 274.023 71.707L271.62 69.9114ZM273.715 66.9733C272.993 68.0081 272.303 68.9967 271.62 69.9114L274.023 71.707C274.741 70.7463 275.459 69.7165 276.175 68.69L273.715 66.9733ZM280.902 58.389C278.097 60.6732 275.768 64.0316 273.715 66.9733L276.175 68.69C278.291 65.6577 280.381 62.6826 282.797 60.7153L280.902 58.389ZM295.889 47.8908C295.006 48.0998 293.792 48.7089 292.553 49.4241C291.261 50.1704 289.774 51.1328 288.29 52.176C285.36 54.2351 282.271 56.7253 280.703 58.5851L282.996 60.5192C284.299 58.9743 287.115 56.6687 290.015 54.6305C291.445 53.6252 292.856 52.7136 294.054 52.022C295.305 51.2991 296.174 50.9061 296.58 50.8101L295.889 47.8908ZM302.33 47.649C300.334 47.4951 298.272 47.3267 295.889 47.8908L296.58 50.8101C298.448 50.3678 300.069 50.4836 302.099 50.6401L302.33 47.649ZM304.004 47.7646C303.435 47.7342 302.886 47.6919 302.33 47.649L302.099 50.6401C302.651 50.6826 303.234 50.7277 303.843 50.7604L304.004 47.7646ZM336.189 69.8035C335.357 68.5508 333.464 66.516 331.076 64.2472C328.651 61.944 325.612 59.3036 322.398 56.8252C319.19 54.3511 315.773 52.0117 312.597 50.3326C309.494 48.6924 306.351 47.5323 303.786 47.7688L304.061 50.7562C305.687 50.6062 308.151 51.3758 311.195 52.9848C314.165 54.5547 317.432 56.7839 320.566 59.2008C323.694 61.6134 326.655 64.1864 329.01 66.4224C331.4 68.6926 333.065 70.5224 333.69 71.4632L336.189 69.8035ZM338.423 73.0259C337.666 71.9573 336.919 70.9023 336.189 69.8035L333.69 71.4632C334.448 72.6057 335.222 73.6969 335.975 74.76L338.423 73.0259ZM342.644 79.4913C341.336 77.1362 339.862 75.0573 338.423 73.0259L335.975 74.76C337.426 76.8092 338.806 78.7585 340.021 80.9476L342.644 79.4913ZM344.213 83.7907C343.842 82.4617 343.402 80.8565 342.644 79.4913L340.021 80.9476C340.576 81.9462 340.93 83.1896 341.323 84.597L344.213 83.7907ZM344.622 85.2026C344.483 84.7602 344.353 84.2927 344.213 83.7907L341.323 84.597C341.461 85.0902 341.604 85.6032 341.758 86.0976L344.622 85.2026ZM345.898 89.0124C345.452 87.7248 345.016 86.4642 344.622 85.2026L341.758 86.0976C342.168 87.4101 342.62 88.7139 343.063 89.9941L345.898 89.0124ZM348.15 96.3237C347.562 93.8139 346.714 91.367 345.898 89.0124L343.063 89.9941C343.888 92.3744 344.683 94.6742 345.228 97.0069L348.15 96.3237ZM349.164 101.331C348.848 99.6474 348.529 97.9464 348.15 96.3237L345.228 97.0069C345.59 98.5536 345.897 100.188 346.216 101.884L349.164 101.331ZM351.872 111.823C350.559 108.722 349.867 105.075 349.164 101.331L346.216 101.884C346.905 105.556 347.646 109.538 349.109 112.992L351.872 111.823ZM354.104 125.113C353.85 120.878 353.564 115.82 351.872 111.823L349.109 112.992C350.56 116.42 350.847 120.913 351.11 125.292L354.104 125.113ZM354.318 128.29C354.235 127.288 354.171 126.227 354.104 125.113L351.11 125.292C351.176 126.399 351.242 127.496 351.328 128.537L354.318 128.29ZM353.535 145.915C354.216 140.162 354.812 134.269 354.318 128.29L351.328 128.537C351.795 134.186 351.237 139.811 350.556 145.563L353.535 145.915ZM351.605 154.21C352.367 151.626 353.198 148.759 353.535 145.915L350.556 145.563C350.254 148.116 349.498 150.746 348.728 153.362L351.605 154.21ZM350.965 157.124C351.162 156.067 351.341 155.105 351.605 154.21L348.728 153.362C348.412 154.432 348.206 155.549 348.016 156.577L350.965 157.124ZM349.608 162.105C350.35 160.483 350.676 158.686 350.965 157.124L348.016 156.577C347.712 158.213 347.441 159.631 346.88 160.857L349.608 162.105ZM346.414 169.936C347.435 167.274 348.438 164.663 349.608 162.105L346.88 160.857C345.664 163.515 344.629 166.213 343.613 168.861L346.414 169.936ZM343.393 177.397C344.503 174.917 345.467 172.404 346.414 169.936L343.613 168.861C342.661 171.342 341.726 173.778 340.655 176.171L343.393 177.397ZM329.801 199.985C336.043 193.486 339.87 185.266 343.393 177.397L340.655 176.171C337.113 184.082 333.47 191.835 327.637 197.907L329.801 199.985ZM287.617 204.095C294.412 204.387 303.553 204.704 311.599 204.329C315.618 204.141 319.415 203.779 322.531 203.138C324.09 202.818 325.515 202.421 326.728 201.924C327.928 201.433 329.01 200.808 329.801 199.985L327.637 197.907C327.249 198.311 326.589 198.739 325.591 199.148C324.606 199.551 323.375 199.902 321.927 200.2C319.031 200.795 315.411 201.148 311.459 201.332C303.562 201.701 294.541 201.389 287.746 201.097L287.617 204.095ZM285.981 203.692C286.499 203.824 286.908 203.929 287.245 204.031L288.118 201.161C287.701 201.034 287.218 200.912 286.721 200.785L285.981 203.692ZM288.3 152.914C289.797 155.253 291.462 157.74 293.27 159.947L295.59 158.045C293.897 155.979 292.31 153.613 290.827 151.297L288.3 152.914ZM283.099 140.798C284.447 144.849 285.847 149.081 288.3 152.914L290.827 151.297C288.609 147.831 287.313 143.96 285.945 139.85L283.099 140.798ZM280.254 133.123C281.365 135.593 282.221 138.159 283.099 140.798L285.945 139.85C285.075 137.235 284.174 134.524 282.99 131.892L280.254 133.123ZM279.699 105.075C277.919 110.391 276.956 114.999 277.002 119.507C277.049 124.03 278.11 128.36 280.254 133.123L282.99 131.892C280.982 127.431 280.044 123.51 280.002 119.476C279.961 115.425 280.823 111.168 282.543 106.027L279.699 105.075ZM297.68 92.7491C289.837 93.2105 283.503 97.9169 279.798 104.844L282.444 106.259C285.739 100.097 291.219 96.1344 297.856 95.744L297.68 92.7491ZM317.141 104.679C312.909 98.7559 306.316 92.2411 297.68 92.7491L297.856 95.744C304.811 95.3349 310.55 100.614 314.699 106.423L317.141 104.679ZM308.79 160.048C316.584 155.711 321.157 150.144 323.534 144.159C325.9 138.203 326.045 131.951 325.197 126.28C323.51 114.987 317.837 105.654 317.141 104.679L314.699 106.423C315.205 107.131 320.632 116.026 322.23 126.723C323.026 132.047 322.859 137.73 320.746 143.052C318.643 148.346 314.568 153.4 307.331 157.427L308.79 160.048ZM293.048 159.579C293.731 161.197 295.224 161.995 296.683 162.355C298.151 162.718 299.845 162.713 301.434 162.531C303.039 162.347 304.64 161.97 305.964 161.514C306.627 161.286 307.243 161.03 307.767 160.756C308.266 160.495 308.786 160.165 309.164 159.753L306.957 157.722C306.957 157.722 306.956 157.722 306.956 157.723C306.956 157.723 306.955 157.724 306.954 157.725C306.952 157.727 306.95 157.729 306.946 157.732C306.94 157.739 306.93 157.748 306.916 157.759C306.889 157.782 306.851 157.812 306.8 157.847C306.696 157.919 306.557 158.003 306.378 158.097C306.018 158.285 305.547 158.484 304.987 158.677C303.866 159.064 302.479 159.392 301.093 159.551C299.691 159.711 298.391 159.687 297.402 159.443C296.404 159.196 295.976 158.8 295.812 158.413L293.048 159.579Z" fill="black"/>
<path d="M405.846 135.415C405.846 133.299 405.918 131.192 405.918 129.077C405.918 128.723 406.204 128.906 406.278 128.573C406.32 128.382 406.453 128.273 406.534 128.101C406.623 127.913 406.614 127.748 406.746 127.565C406.892 127.362 407.001 127.149 407.126 126.933C407.193 126.817 407.236 126.569 407.33 126.485C407.805 126.063 408.172 125.949 408.799 125.796C409.546 125.615 410.249 125.506 411.015 125.46C414.33 125.264 417.606 124.9 420.93 124.9C424.021 124.9 427.324 124.662 430.336 125.516C430.865 125.666 431.402 125.768 431.933 125.909C432.092 125.951 432.313 125.937 432.457 126.017C432.904 126.265 432.866 126.484 432.929 126.985C432.974 127.346 433.136 127.707 433.197 128.069C433.301 128.681 433.347 129.305 433.357 129.926C433.368 130.63 433.521 131.36 433.557 132.07C433.59 132.71 433.598 133.356 433.517 133.991C433.432 134.664 433.562 135.356 433.493 136.031C433.427 136.674 433.369 137.369 433.245 138.008C433.063 138.943 432.809 139.933 432.453 140.816C431.911 142.161 431.261 143.672 430.2 144.689C428.792 146.039 426.533 146.218 424.675 146.218C423.932 146.218 423.232 146.214 422.498 146.106C421.344 145.935 420.201 145.711 419.033 145.626C416.12 145.413 413.047 144.939 410.335 143.837C409.131 143.348 407.956 142.612 407.11 141.621C406.758 141.208 406.389 140.79 406.278 140.236C406.147 139.583 405.929 138.959 405.862 138.288C405.768 137.346 405.846 136.36 405.846 135.415Z" fill="#AA0000" stroke="black" stroke-width="2" stroke-linecap="round"/>
<g filter="url(#filter5_ii_0_1)">
<path d="M361.409 83.838C362.129 78.6723 363.14 68.8453 363.573 63.6714C366.571 60.0381 387.661 59 390.324 59C395.676 59 403.518 61.4573 407.425 66.1254C412.995 72.7808 419.127 84.9504 423.037 93.2573C423.537 94.3188 428.607 80.6069 430.152 77.6537C432.451 73.2575 435.819 71.1844 438.703 67.7387C443.072 62.517 448.339 61.4199 454.341 61.4199C459.346 61.4199 465.314 61.0759 469.811 63.8399C474.73 66.8625 477.061 73.197 478.699 79.3006C480.221 84.967 481.29 91.8283 481.85 97.719C482.51 104.666 483.843 111.684 483.987 118.692C484.32 134.783 485 150.842 485 166.956C485 173.34 484.348 184.377 483.369 190.67C482.84 194.067 482.489 200.105 480.003 201.739C474.843 205.13 456.775 206.347 451.866 201.739C450.671 196.842 449.785 164.886 449.785 156.604C448.397 148.788 445.403 122.927 444.722 114.995C443.819 119.602 437.528 120.248 420.039 128.034C386.735 125.438 393.849 114.158 390.858 111.701C390.313 116.257 390.714 120.898 390.07 125.515C389.418 130.193 388.805 135.468 388.805 140.202C388.805 146.857 387.729 153.182 386.273 159.562C384.909 165.539 390.858 204.334 364.572 204.334C357.077 204.334 355.406 207.144 353.364 201.22C350.295 192.312 353.364 167.087 353.364 157.646C353.364 144.955 354.734 132.987 356.121 120.439C356.935 113.078 357.663 105.681 358.484 98.324C359.03 93.4313 360.736 88.6604 361.409 83.838Z" fill="#D90B17"/>
</g>
<path d="M361.409 83.838C362.129 78.6723 363.14 68.8453 363.573 63.6714C366.571 60.0381 387.661 59 390.324 59C395.676 59 403.518 61.4573 407.425 66.1254C412.995 72.7808 419.127 84.9504 423.037 93.2573C423.537 94.3188 428.607 80.6069 430.152 77.6537C432.451 73.2575 435.819 71.1844 438.703 67.7387C443.072 62.517 448.339 61.4199 454.341 61.4199C459.346 61.4199 465.314 61.0759 469.811 63.8399C474.73 66.8625 477.061 73.197 478.699 79.3006C480.221 84.967 481.29 91.8283 481.85 97.719C482.51 104.666 483.843 111.684 483.987 118.692C484.32 134.783 485 150.842 485 166.956C485 173.34 484.348 184.377 483.369 190.67C482.84 194.067 482.489 200.105 480.003 201.739C474.843 205.13 456.775 206.347 451.866 201.739C450.671 196.842 449.785 164.886 449.785 156.604C448.397 148.788 445.403 122.927 444.722 114.995C443.819 119.602 437.528 120.248 420.039 128.034C386.735 125.438 393.849 114.158 390.858 111.701C390.313 116.257 390.714 120.898 390.07 125.515C389.418 130.193 388.805 135.468 388.805 140.202C388.805 146.857 387.729 153.182 386.273 159.562C384.909 165.539 390.858 204.334 364.572 204.334C357.077 204.334 355.406 207.144 353.364 201.22C350.295 192.312 353.364 167.087 353.364 157.646C353.364 144.955 354.734 132.987 356.121 120.439C356.935 113.078 357.663 105.681 358.484 98.324C359.03 93.4313 360.736 88.6604 361.409 83.838Z" stroke="black" stroke-width="3" stroke-linecap="round"/>
<path d="M412 129C412 138.448 412.151 146.664 412.151 156.112C412.151 157.913 412.338 159.287 412.556 161.024C412.748 162.553 412.925 164.949 413.623 166.184C415.006 168.629 418.173 168.404 419.854 166.702C420.808 165.736 422.02 165.455 422.728 164.021C423.47 162.519 423.78 161.407 424.099 159.605C424.488 157.412 424.629 155.393 424.629 153.115C424.629 151.564 424.629 150.013 424.629 148.463C424.629 147.058 424.792 145.857 424.894 144.497C425.123 141.426 424.909 138.16 424.909 135.067C424.909 133.31 424.909 131.552 424.909 129.795" stroke="black" stroke-width="3" stroke-linecap="round"/>
<path d="M412.153 155.783C412.153 146.073 412.002 137.71 412.002 128C412.734 135.277 424.468 131.235 424.97 127.491C424.97 127.313 424.97 127.148 424.97 127C424.993 127.163 424.993 127.327 424.97 127.491C424.98 131.143 425.081 140.837 424.862 143.846C424.761 145.243 424.598 146.478 424.598 147.922V152.703C424.598 155.044 425.25 157.247 424.862 159.5C424.544 161.352 424.24 163.456 423.5 165C422.794 166.474 422 167 420 167.5C418.323 169.249 413.934 168.646 412.555 166.134C411.858 164.865 411.682 162.403 411.491 160.831C411.273 159.046 412.153 157.633 412.153 155.783Z" fill="#AA0000"/>
<path d="M412.002 128C412.002 137.71 412.153 146.073 412.153 155.783C412.153 157.633 411.273 159.046 411.491 160.831C411.682 162.403 411.858 164.865 412.555 166.134C413.934 168.646 418.323 169.249 420 167.5C422 167 422.794 166.474 423.5 165C424.24 163.456 424.544 161.352 424.862 159.5C425.25 157.247 424.598 155.044 424.598 152.703C424.598 151.109 424.598 149.516 424.598 147.922C424.598 146.478 424.761 145.243 424.862 143.846C425.091 140.69 424.97 130.178 424.97 127C425.521 130.857 412.766 135.598 412.002 128Z" stroke="black" stroke-width="3" stroke-linecap="round"/>
<path d="M415.5 140.5C415.5 138.569 414.83 133.624 414.83 131.701C414.83 130.238 415 127.464 415 126C415 125.527 415.499 128.063 415.499 127.59C415.499 127.087 415.499 128.107 415.999 127.59C416.402 128.048 416.799 126.743 417.257 126.743C417.973 126.743 418.522 125.983 419.237 126C420.014 126.019 420.811 126.219 421.577 126.219C421.665 126.219 421.991 123.306 421.998 123.5C422.011 123.868 422.563 122.651 422.5 123C422.255 124.35 421.998 129.593 421.998 131C421.998 132.277 421.677 134.256 421.677 135.533C421.677 136.239 421.809 140.65 421.096 139.918C419.665 138.453 417.77 139.542 416.219 138.67C415.816 138.443 415.384 137.193 415.805 136.647C416.306 135.999 417.003 135.618 417.596 135.326C418.608 134.826 419.647 134.572 420.664 134.138C420.794 134.083 420.933 134.003 420.903 133.724C420.85 133.23 420.31 133.351 420.122 133.395C419.191 133.613 417.882 135.461 416.965 134.315C416.724 134.014 416.46 133.486 416.519 132.932C416.613 132.038 417.364 131.927 417.774 131.921C418.032 131.917 420.949 131.935 420.054 130.355C419.402 129.205 418.067 129.9 417.257 129.661C416.312 129.382 416.629 127.445 417.411 127.145C418.284 126.81 419.392 127.29 420.25 127.59C420.86 127.803 421.008 128.286 420.778 129.289C420.21 131.77 420.072 134.265 420.072 136.928C420.072 137.345 420.05 137.747 420.122 138.146C420.165 138.388 420.157 138.464 420.043 138.28C419.354 137.17 418.413 136.964 417.503 136.964" stroke="#AA0000" stroke-width="3" stroke-linecap="round"/>
<path d="M428.84 143.48C429.227 145.688 429.61 148.373 431.763 149.606C433.439 150.566 436.981 149.952 437.22 147.616C437.308 146.758 436.702 146.475 435.899 146.621C434.937 146.796 434.344 147.544 434.344 148.518C434.344 149.902 435.664 151.293 436.396 152.374C436.779 152.939 437.277 153.975 438.075 153.975" stroke="black" stroke-width="2" stroke-linecap="round"/>
<path d="M407.151 136.484C407.005 137.163 406.455 137.711 406.047 138.241C405.203 139.335 404.589 140.566 403.528 141.482C402.027 142.779 400.123 142.064 399.548 140.285C399.443 139.962 399.382 139.554 399.843 139.586C400.807 139.652 401.609 140.342 401.849 141.273C402.329 143.137 400.858 145.381 399.835 146.8C399.303 147.539 398.658 148.266 397.775 148.518" stroke="black" stroke-width="2" stroke-linecap="round"/>
<g filter="url(#filter6_ii_0_1)">
<path d="M94.8235 36.9393C92.8841 46.1203 91.8272 54.9651 91.8272 64.5083C91.8272 72.2478 94.8657 164.692 94.8657 172.431C94.8657 177.161 95.6253 181.982 95.6253 186.815C95.6253 189.384 96.0084 191.501 96.3428 193.963C96.6044 195.889 97.8374 197.482 97.9042 199.379C98.0707 204.109 98.0252 207.925 100.014 212.342C101.555 215.764 101.127 219.101 99.8455 222.375C97.8722 227.417 87.5557 235.913 82.3741 229.967C77.0671 223.876 74.3559 218.607 74.3559 209.945C74.3559 198.28 74.843 186.117 77.732 174.829C79.5631 167.674 78.154 158.565 78.154 151.166C78.154 144.211 79.0093 136.548 77.9852 129.68C76.8612 122.142 77.078 114.475 76.0439 106.861C75.0231 99.3437 75.2726 91.1143 75.1155 83.5092C75.0358 79.6554 73.5962 76.1353 73.5962 72.233C73.5962 68.3266 72.9642 65.2682 72.2458 61.4895C71.2145 56.0652 69.6499 49.9203 69.0807 44.5308C68.614 40.1119 66 36.5227 66 32.1891C66 27.2709 67.1314 26.4276 70.3889 23.1326C74.2498 19.2273 88.5579 17.3057 92.9667 20.9129C95.2615 22.7905 95.6253 23.7863 95.6253 27.3501C95.6253 30.6108 95.4902 33.7834 94.8235 36.9393Z" fill="#D90B17"/>
</g>
<path d="M94.8235 36.9393C92.8841 46.1203 91.8272 54.9651 91.8272 64.5083C91.8272 72.2478 94.8657 164.692 94.8657 172.431C94.8657 177.161 95.6253 181.982 95.6253 186.815C95.6253 189.384 96.0084 191.501 96.3428 193.963C96.6044 195.889 97.8374 197.482 97.9042 199.379C98.0707 204.109 98.0252 207.925 100.014 212.342C101.555 215.764 101.127 219.101 99.8455 222.375C97.8722 227.417 87.5557 235.913 82.3741 229.967C77.0671 223.876 74.3559 218.607 74.3559 209.945C74.3559 198.28 74.843 186.117 77.732 174.829C79.5631 167.674 78.154 158.565 78.154 151.166C78.154 144.211 79.0093 136.548 77.9852 129.68C76.8612 122.142 77.078 114.475 76.0439 106.861C75.0231 99.3437 75.2726 91.1143 75.1155 83.5092C75.0358 79.6554 73.5962 76.1353 73.5962 72.233C73.5962 68.3266 72.9642 65.2682 72.2458 61.4895C71.2145 56.0652 69.6499 49.9203 69.0807 44.5308C68.614 40.1119 66 36.5227 66 32.1891C66 27.2709 67.1314 26.4276 70.3889 23.1326C74.2498 19.2273 88.5579 17.3057 92.9667 20.9129C95.2615 22.7905 95.6253 23.7863 95.6253 27.3501C95.6253 30.6108 95.4902 33.7834 94.8235 36.9393Z" stroke="black" stroke-width="3" stroke-linecap="round"/>
<g filter="url(#filter7_ii_0_1)">
<path d="M51.7637 199.441C44.3558 201.181 35 204.584 27.397 202.54C25.7582 201.55 23.7227 198.794 22.9016 196.961C6.5 168.175 17.7553 147.422 20.1001 145.828C24.5175 142.827 27.7513 144.557 31.7622 147.619C38.8362 153.019 40.9673 162.736 47.9849 168.175C53.1779 172.201 58.735 175.146 65.1197 176.646C71.0012 178.027 76.9091 177.829 82.9712 177.748C88.5283 177.673 93.9414 176.347 99.2265 174.718C103.06 173.536 106.345 173.361 109.879 171.205C115.371 167.856 117.744 159.931 114.961 153.576C110.574 143.561 104.335 137.63 95.1546 132.778C90.7825 130.467 85.7788 130.58 81.2122 128.784C76.2603 126.836 70.8595 128.553 65.869 127.234C57.6168 125.054 48.8797 125.999 40.6553 123.826C32.7509 121.737 25.4336 116.996 20.4258 110.259C17.7888 106.711 15.47 103.86 14.2364 99.3781C12.6286 93.536 10.7904 83.4736 13.0637 77.6164C14.0224 75.1463 14.0722 72.3895 15.116 69.9378C16.3455 67.0496 18.2105 64.2872 20.1001 61.846C23.5209 57.4265 27.5752 55.0175 31.9576 51.9293C39.8963 46.3351 49.7457 47.5907 58.8326 47.5907C66.979 47.5907 75.5627 47.4509 83.4273 49.76C87.342 50.9095 92.0347 50.0955 95.8712 51.4472C100.184 52.9668 105.7 53.0664 110.27 52.4114C119.265 51.1222 130.712 49.521 139.523 52.4114C141.914 53.1957 145.594 53.8807 147.341 55.958C148.403 57.2205 150.239 58.2779 150.729 59.9866C151.316 62.0342 151.671 64.1082 152.162 66.1846C154.645 76.6843 149.698 88.7743 147.471 98.896C146.529 103.178 142.555 107.432 138.904 109.26C135.109 111.16 131.214 109.956 127.633 107.952C122.415 105.032 117.763 101.483 113.202 97.5187C108.282 93.2431 104.563 87.4382 99.8129 82.9191C96.9861 80.2299 92.9885 78.9528 89.6167 77.2032C86.9601 75.8247 83.66 73.7647 80.6258 73.6221C76.3507 73.4213 71.4007 74.2474 67.5955 76.3768C64.6204 78.0416 60.7324 80.831 59.1584 84.1587C57.8479 86.9289 58.4775 93.2165 59.5167 96.0725C61.6643 101.975 69.5692 103.629 74.3712 106.471C77.1839 108.136 80.1494 108.271 83.1667 109.26C87.3844 110.644 91.6724 112.158 96.0341 112.945C103.464 114.286 110.746 116.031 118.023 118.11C123.027 119.539 128.753 120.906 133.301 123.55C137.522 126.004 141.828 128.296 145.321 131.883C147.568 134.189 153.008 137.214 153.791 140.526C154.272 142.558 156.372 144.778 157.309 146.758C158.337 148.931 159.727 150.88 160.371 153.231C161.996 159.166 162 165.031 162 171.205C162 180.659 159.11 192.403 151.315 198.201C148.617 200.208 145.707 202.089 142.357 202.505C136.678 203.211 131.47 205.639 125.645 205.639C119.085 205.639 112.518 205.019 106.002 205.019C99.6574 205.019 93.4465 202.156 87.1735 201.3C75.7477 199.742 63.3047 196.73 51.7637 199.441Z" fill="#D90B17"/>
</g>
<path d="M51.7637 199.441C44.3558 201.181 35 204.584 27.397 202.54C25.7582 201.55 23.7227 198.794 22.9016 196.961C6.5 168.175 17.7553 147.422 20.1001 145.828C24.5175 142.827 27.7513 144.557 31.7622 147.619C38.8362 153.019 40.9673 162.736 47.9849 168.175C53.1779 172.201 58.735 175.146 65.1197 176.646C71.0012 178.027 76.9091 177.829 82.9712 177.748C88.5283 177.673 93.9414 176.347 99.2265 174.718C103.06 173.536 106.345 173.361 109.879 171.205C115.371 167.856 117.744 159.931 114.961 153.576C110.574 143.561 104.335 137.63 95.1546 132.778C90.7825 130.467 85.7788 130.58 81.2122 128.784C76.2603 126.836 70.8595 128.553 65.869 127.234C57.6168 125.054 48.8797 125.999 40.6553 123.826C32.7509 121.737 25.4336 116.996 20.4258 110.259C17.7888 106.711 15.47 103.86 14.2364 99.3781C12.6286 93.536 10.7904 83.4736 13.0637 77.6164C14.0224 75.1463 14.0722 72.3895 15.116 69.9378C16.3455 67.0496 18.2105 64.2872 20.1001 61.846C23.5209 57.4265 27.5752 55.0175 31.9576 51.9293C39.8963 46.3351 49.7457 47.5907 58.8326 47.5907C66.979 47.5907 75.5627 47.4509 83.4273 49.76C87.342 50.9095 92.0347 50.0955 95.8712 51.4472C100.184 52.9668 105.7 53.0664 110.27 52.4114C119.265 51.1222 130.712 49.521 139.523 52.4114C141.914 53.1957 145.594 53.8807 147.341 55.958C148.403 57.2205 150.239 58.2779 150.729 59.9866C151.316 62.0342 151.671 64.1082 152.162 66.1846C154.645 76.6843 149.698 88.7743 147.471 98.896C146.529 103.178 142.555 107.432 138.904 109.26C135.109 111.16 131.214 109.956 127.633 107.952C122.415 105.032 117.763 101.483 113.202 97.5187C108.282 93.2431 104.563 87.4382 99.8129 82.9191C96.9861 80.2299 92.9885 78.9528 89.6167 77.2032C86.9601 75.8247 83.66 73.7647 80.6258 73.6221C76.3507 73.4213 71.4007 74.2474 67.5955 76.3768C64.6204 78.0416 60.7324 80.831 59.1584 84.1587C57.8479 86.9289 58.4775 93.2165 59.5167 96.0725C61.6643 101.975 69.5692 103.629 74.3712 106.471C77.1839 108.136 80.1494 108.271 83.1667 109.26C87.3844 110.644 91.6724 112.158 96.0341 112.945C103.464 114.286 110.746 116.031 118.023 118.11C123.027 119.539 128.753 120.906 133.301 123.55C137.522 126.004 141.828 128.296 145.321 131.883C147.568 134.189 153.008 137.214 153.791 140.526C154.272 142.558 156.372 144.778 157.309 146.758C158.337 148.931 159.727 150.88 160.371 153.231C161.996 159.166 162 165.031 162 171.205C162 180.659 159.11 192.403 151.315 198.201C148.617 200.208 145.707 202.089 142.357 202.505C136.678 203.211 131.47 205.639 125.645 205.639C119.085 205.639 112.518 205.019 106.002 205.019C99.6574 205.019 93.4465 202.156 87.1735 201.3C75.7477 199.742 63.3047 196.73 51.7637 199.441Z" stroke="black" stroke-width="3" stroke-linecap="round"/>
<defs>
<filter id="filter0_ii_0_1" x="159.701" y="41.4985" width="93.6006" height="165.018" filterUnits="userSpaceOnUse" color-interpolation-filters="sRGB">
<feFlood flood-opacity="0" result="BackgroundImageFix"/>
<feBlend mode="normal" in="SourceGraphic" in2="BackgroundImageFix" result="shape"/>
<feColorMatrix in="SourceAlpha" type="matrix" values="0 0 0 0 0 0 0 0 0 0 0 0 0 0 0 0 0 0 127 0" result="hardAlpha"/>
<feOffset dx="8" dy="4"/>
<feComposite in2="hardAlpha" operator="arithmetic" k2="-1" k3="1"/>
<feColorMatrix type="matrix" values="0 0 0 0 0.6125 0 0 0 0 1 0 0 0 0 0.721 0 0 0 0.26 0"/>
<feBlend mode="normal" in2="shape" result="effect1_innerShadow_0_1"/>
<feColorMatrix in="SourceAlpha" type="matrix" values="0 0 0 0 0 0 0 0 0 0 0 0 0 0 0 0 0 0 127 0" result="hardAlpha"/>
<feOffset dx="-10" dy="-4"/>
<feComposite in2="hardAlpha" operator="arithmetic" k2="-1" k3="1"/>
<feColorMatrix type="matrix" values="0 0 0 0 0 0 0 0 0 0 0 0 0 0 0 0 0 0 0.25 0"/>
<feBlend mode="normal" in2="effect1_innerShadow_0_1" result="effect2_innerShadow_0_1"/>
</filter>
<filter id="filter1_ii_0_1" x="479.5" y="52.501" width="74" height="153.989" filterUnits="userSpaceOnUse" color-interpolation-filters="sRGB">
<feFlood flood-opacity="0" result="BackgroundImageFix"/>
<feBlend mode="normal" in="SourceGraphic" in2="BackgroundImageFix" result="shape"/>
<feColorMatrix in="SourceAlpha" type="matrix" values="0 0 0 0 0 0 0 0 0 0 0 0 0 0 0 0 0 0 127 0" result="hardAlpha"/>
<feOffset dx="8" dy="4"/>
<feComposite in2="hardAlpha" operator="arithmetic" k2="-1" k3="1"/>
<feColorMatrix type="matrix" values="0 0 0 0 0.6125 0 0 0 0 1 0 0 0 0 0.721 0 0 0 0.26 0"/>
<feBlend mode="normal" in2="shape" result="effect1_innerShadow_0_1"/>
<feColorMatrix in="SourceAlpha" type="matrix" values="0 0 0 0 0 0 0 0 0 0 0 0 0 0 0 0 0 0 127 0" result="hardAlpha"/>
<feOffset dx="-10" dy="-4"/>
<feComposite in2="hardAlpha" operator="arithmetic" k2="-1" k3="1"/>
<feColorMatrix type="matrix" values="0 0 0 0 0 0 0 0 0 0 0 0 0 0 0 0 0 0 0.25 0"/>
<feBlend mode="normal" in2="effect1_innerShadow_0_1" result="effect2_innerShadow_0_1"/>
</filter>
<filter id="filter2_i_0_1" x="460.759" y="25.1321" width="40.2139" height="47.4001" filterUnits="userSpaceOnUse" color-interpolation-filters="sRGB">
<feFlood flood-opacity="0" result="BackgroundImageFix"/>
<feBlend mode="normal" in="SourceGraphic" in2="BackgroundImageFix" result="shape"/>
<feColorMatrix in="SourceAlpha" type="matrix" values="0 0 0 0 0 0 0 0 0 0 0 0 0 0 0 0 0 0 127 0" result="hardAlpha"/>
<feOffset dx="-5" dy="-9"/>
<feComposite in2="hardAlpha" operator="arithmetic" k2="-1" k3="1"/>
<feColorMatrix type="matrix" values="0 0 0 0 0 0 0 0 0 0 0 0 0 0 0 0 0 0 0.25 0"/>
<feBlend mode="normal" in2="shape" result="effect1_innerShadow_0_1"/>
</filter>
<filter id="filter3_i_0_1" x="523.065" y="22.1282" width="40.8047" height="45.395" filterUnits="userSpaceOnUse" color-interpolation-filters="sRGB">
<feFlood flood-opacity="0" result="BackgroundImageFix"/>
<feBlend mode="normal" in="SourceGraphic" in2="BackgroundImageFix" result="shape"/>
<feColorMatrix in="SourceAlpha" type="matrix" values="0 0 0 0 0 0 0 0 0 0 0 0 0 0 0 0 0 0 127 0" result="hardAlpha"/>
<feOffset dx="-1" dy="-7"/>
<feComposite in2="hardAlpha" operator="arithmetic" k2="-1" k3="1"/>
<feColorMatrix type="matrix" values="0 0 0 0 0 0 0 0 0 0 0 0 0 0 0 0 0 0 0.25 0"/>
<feBlend mode="normal" in2="shape" result="effect1_innerShadow_0_1"/>
</filter>
<filter id="filter4_ii_0_1" x="250.497" y="47.5" width="104.003" height="157" filterUnits="userSpaceOnUse" color-interpolation-filters="sRGB">
<feFlood flood-opacity="0" result="BackgroundImageFix"/>
<feBlend mode="normal" in="SourceGraphic" in2="BackgroundImageFix" result="shape"/>
<feColorMatrix in="SourceAlpha" type="matrix" values="0 0 0 0 0 0 0 0 0 0 0 0 0 0 0 0 0 0 127 0" result="hardAlpha"/>
<feOffset dx="8" dy="4"/>
<feComposite in2="hardAlpha" operator="arithmetic" k2="-1" k3="1"/>
<feColorMatrix type="matrix" values="0 0 0 0 0.6125 0 0 0 0 1 0 0 0 0 0.721 0 0 0 0.26 0"/>
<feBlend mode="normal" in2="shape" result="effect1_innerShadow_0_1"/>
<feColorMatrix in="SourceAlpha" type="matrix" values="0 0 0 0 0 0 0 0 0 0 0 0 0 0 0 0 0 0 127 0" result="hardAlpha"/>
<feOffset dx="-10" dy="-4"/>
<feComposite in2="hardAlpha" operator="arithmetic" k2="-1" k3="1"/>
<feColorMatrix type="matrix" values="0 0 0 0 0 0 0 0 0 0 0 0 0 0 0 0 0 0 0.25 0"/>
<feBlend mode="normal" in2="effect1_innerShadow_0_1" result="effect2_innerShadow_0_1"/>
</filter>
<filter id="filter5_ii_0_1" x="350.5" y="57.5" width="136" height="149" filterUnits="userSpaceOnUse" color-interpolation-filters="sRGB">
<feFlood flood-opacity="0" result="BackgroundImageFix"/>
<feBlend mode="normal" in="SourceGraphic" in2="BackgroundImageFix" result="shape"/>
<feColorMatrix in="SourceAlpha" type="matrix" values="0 0 0 0 0 0 0 0 0 0 0 0 0 0 0 0 0 0 127 0" result="hardAlpha"/>
<feOffset dx="-10" dy="-4"/>
<feComposite in2="hardAlpha" operator="arithmetic" k2="-1" k3="1"/>
<feColorMatrix type="matrix" values="0 0 0 0 0 0 0 0 0 0 0 0 0 0 0 0 0 0 0.25 0"/>
<feBlend mode="normal" in2="shape" result="effect1_innerShadow_0_1"/>
<feColorMatrix in="SourceAlpha" type="matrix" values="0 0 0 0 0 0 0 0 0 0 0 0 0 0 0 0 0 0 127 0" result="hardAlpha"/>
<feOffset dx="8" dy="4"/>
<feComposite in2="hardAlpha" operator="arithmetic" k2="-1" k3="1"/>
<feColorMatrix type="matrix" values="0 0 0 0 0.818667 0 0 0 0 1 0 0 0 0 0.733333 0 0 0 0.25 0"/>
<feBlend mode="normal" in2="effect1_innerShadow_0_1" result="effect2_innerShadow_0_1"/>
</filter>
<filter id="filter6_ii_0_1" x="64.5" y="17.5" width="38" height="216" filterUnits="userSpaceOnUse" color-interpolation-filters="sRGB">
<feFlood flood-opacity="0" result="BackgroundImageFix"/>
<feBlend mode="normal" in="SourceGraphic" in2="BackgroundImageFix" result="shape"/>
<feColorMatrix in="SourceAlpha" type="matrix" values="0 0 0 0 0 0 0 0 0 0 0 0 0 0 0 0 0 0 127 0" result="hardAlpha"/>
<feOffset dx="-11" dy="4"/>
<feComposite in2="hardAlpha" operator="arithmetic" k2="-1" k3="1"/>
<feColorMatrix type="matrix" values="0 0 0 0 0 0 0 0 0 0 0 0 0 0 0 0 0 0 0.25 0"/>
<feBlend mode="normal" in2="shape" result="effect1_innerShadow_0_1"/>
<feColorMatrix in="SourceAlpha" type="matrix" values="0 0 0 0 0 0 0 0 0 0 0 0 0 0 0 0 0 0 127 0" result="hardAlpha"/>
<feOffset dx="8" dy="4"/>
<feComposite in2="hardAlpha" operator="arithmetic" k2="-1" k3="1"/>
<feColorMatrix type="matrix" values="0 0 0 0 0.6125 0 0 0 0 1 0 0 0 0 0.721 0 0 0 0.26 0"/>
<feBlend mode="normal" in2="effect1_innerShadow_0_1" result="effect2_innerShadow_0_1"/>
</filter>
<filter id="filter7_ii_0_1" x="10.5" y="45.9709" width="153" height="161.167" filterUnits="userSpaceOnUse" color-interpolation-filters="sRGB">
<feFlood flood-opacity="0" result="BackgroundImageFix"/>
<feBlend mode="normal" in="SourceGraphic" in2="BackgroundImageFix" result="shape"/>
<feColorMatrix in="SourceAlpha" type="matrix" values="0 0 0 0 0 0 0 0 0 0 0 0 0 0 0 0 0 0 127 0" result="hardAlpha"/>
<feOffset dx="-11" dy="4"/>
<feComposite in2="hardAlpha" operator="arithmetic" k2="-1" k3="1"/>
<feColorMatrix type="matrix" values="0 0 0 0 0 0 0 0 0 0 0 0 0 0 0 0 0 0 0.25 0"/>
<feBlend mode="normal" in2="shape" result="effect1_innerShadow_0_1"/>
<feColorMatrix in="SourceAlpha" type="matrix" values="0 0 0 0 0 0 0 0 0 0 0 0 0 0 0 0 0 0 127 0" result="hardAlpha"/>
<feOffset dx="8" dy="4"/>
<feComposite in2="hardAlpha" operator="arithmetic" k2="-1" k3="1"/>
<feColorMatrix type="matrix" values="0 0 0 0 0.6125 0 0 0 0 1 0 0 0 0 0.721 0 0 0 0.26 0"/>
<feBlend mode="normal" in2="effect1_innerShadow_0_1" result="effect2_innerShadow_0_1"/>
</filter>
</defs>
</svg>
